<svg width="124" height="80" viewBox="0 0 124 80" fill="none" xmlns="http://www.w3.org/2000/svg">
<path d="M68.6813 60.0602C99.1271 50.341 120.774 32.9571 117.031 21.2323C113.288 9.50751 85.5728 7.88169 55.127 17.6009C24.6812 27.3202 3.03424 44.704 6.77717 56.4289C10.5201 68.1537 38.2356 69.7795 68.6813 60.0602Z" fill="#CED7DB"/>
<path d="M117.059 21.2305L121.269 34.4175C122.797 39.2025 120.154 45.3495 112.854 52.0515C96.263 67.2815 61.894 79.6085 36.094 79.5845C21.646 79.5705 12.947 75.6865 11.003 69.5965L6.79297 56.4095C8.73697 62.4995 17.436 66.3845 31.884 66.3975C57.684 66.4225 92.053 54.0945 108.644 38.8645C115.945 32.1625 118.587 26.0155 117.059 21.2305Z" fill="#AFBDC4"/>
<path d="M113.176 18.9835L113.746 20.7325C111.831 14.8535 103.52 11.1045 89.7977 11.1045C65.3187 11.1045 32.7507 23.0385 17.1947 37.7075C10.3587 44.1545 7.92867 50.0725 9.43067 54.6825L8.86066 52.9335C7.35866 48.3245 9.78867 42.4055 16.6247 35.9585C32.1797 21.2895 64.7487 9.35547 89.2277 9.35547C102.949 9.35547 111.26 13.1045 113.176 18.9835Z" fill="#AFBDC4"/>
<path d="M90.2379 8.40625C115.598 8.40625 123.118 20.7673 107.008 35.9603C90.8969 51.1533 57.1579 63.5193 31.7969 63.5193C6.44386 63.5193 -1.07113 51.1533 15.0389 35.9603C31.1489 20.7673 64.8849 8.40625 90.2379 8.40625ZM32.8099 62.5633C57.2889 62.5633 89.8569 50.6293 105.413 35.9603C120.969 21.2913 113.709 9.35725 89.2289 9.35725C64.7499 9.35725 32.1809 21.2913 16.6259 35.9603C1.07088 50.6293 8.32987 62.5633 32.8099 62.5633Z" fill="#EBEEF0"/>
<path d="M115.047 18.3789L115.617 20.1279C117.172 24.9019 114.656 31.0319 107.576 37.7079C91.4651 52.9009 57.7261 65.2669 32.3661 65.2669C18.1561 65.2669 9.5501 61.3829 7.5661 55.2929L6.99609 53.5439C8.98009 59.6329 17.5861 63.5179 31.7961 63.5179C57.1561 63.5179 90.8961 51.1519 107.007 35.9589C114.086 29.2819 116.602 23.1529 115.047 18.3789Z" fill="#AFBDC4"/>
<path d="M26.2536 37.7076C38.7696 25.9046 64.9735 16.3056 84.6695 16.3056C94.7295 16.3056 101.164 18.8136 103.395 22.8366C101.646 18.3066 95.0306 15.4336 84.2626 15.4336C64.5666 15.4336 38.3625 25.0326 25.8465 36.8356C19.7245 42.6096 18.0056 47.8536 20.1426 51.7076C18.6916 47.9506 20.5806 43.0566 26.2536 37.7076Z" fill="#788F9B"/>
<path d="M38.8672 58.2407C58.5622 58.2407 84.7642 48.6367 97.2802 36.8347C102.953 31.4847 104.843 26.5917 103.392 22.8357C101.161 18.8127 94.7272 16.3047 84.6672 16.3047C64.9712 16.3047 38.7672 25.9037 26.2512 37.7067C20.5782 43.0567 18.6892 47.9497 20.1402 51.7067C22.3712 55.7307 28.8072 58.2407 38.8672 58.2407Z" fill="#8FA3AD"/>
<path d="M64.8454 28.5371L65.4154 30.2861C65.0694 29.2231 62.6014 28.4951 55.4684 28.4951L54.8984 26.7461C62.0314 26.7451 64.4984 27.4741 64.8454 28.5371Z" fill="#788F9B"/>
<path d="M74.7728 25.9648L75.3428 27.7148H71.7458L71.1758 25.9648H74.7728Z" fill="#788F9B"/>
<path d="M62.5661 31.8438L63.1361 33.5927H50.0661L49.4961 31.8438H62.5661Z" fill="#788F9B"/>
<path d="M80.6634 25.9648L81.2334 27.7148H75.3434L74.7734 25.9648H80.6634Z" fill="#788F9B"/>
<path d="M82.8481 23.9062L83.4181 25.6553L81.2341 27.7153L80.6641 25.9653L82.8481 23.9062Z" fill="#788F9B"/>
<path d="M71.4488 26.4023L72.0188 28.1514C72.1898 28.6754 72.0408 29.4253 71.5738 30.2993C71.3618 30.6923 71.0848 31.1113 70.7458 31.5473L70.1758 29.7983C70.5148 29.3623 70.7918 28.9433 71.0038 28.5503C71.4708 27.6773 71.6198 26.9273 71.4488 26.4023Z" fill="#788F9B"/>
<path d="M48.6719 38.5234L49.2419 40.2724L49.4399 41.2674L48.8699 39.5184L48.6719 38.5234Z" fill="#788F9B"/>
<path d="M74.4312 31.8438L75.0012 33.5927H68.7682L68.1992 31.8438H74.4312Z" fill="#788F9B"/>
<path d="M76.5986 29.8008L77.1686 31.5498L75.0036 33.5918L74.4336 31.8428L76.5986 29.8008Z" fill="#788F9B"/>
<path d="M68.1999 31.8438L68.7699 33.5927C64.0479 37.6677 57.1509 39.2697 52.9479 39.8887C50.7229 40.2157 49.3159 40.2697 49.2419 40.2727L48.6719 38.5237C48.7459 38.5207 50.1519 38.4667 52.3769 38.1397C56.5809 37.5197 63.4779 35.9187 68.1999 31.8438Z" fill="#788F9B"/>
<path d="M48.8711 39.5195L49.4411 41.2685L51.3991 51.3215L50.8291 49.5725L48.8711 39.5195Z" fill="#788F9B"/>
<path d="M50.8293 49.5703L51.3993 51.3193H45.6833L45.1133 49.5703H50.8293Z" fill="#788F9B"/>
<path d="M82.8482 23.9062L80.6642 25.9653H74.7742H71.1772C71.6832 26.4493 71.6232 27.3922 71.0042 28.5522C70.7922 28.9452 70.5152 29.3642 70.1762 29.8002H76.5982L74.4332 31.8423H68.2002C63.4782 35.9173 56.5812 37.5192 52.3782 38.1382C50.1522 38.4652 48.7462 38.5192 48.6732 38.5222L48.8702 39.5172L50.8282 49.5703H45.1122L43.0472 41.5682L42.3242 38.7762L44.7952 36.4463C54.5952 36.4463 59.8742 34.2563 62.5642 31.8433H49.4942L51.6592 29.8013H64.5102C65.6712 28.0953 64.6032 26.7473 54.8982 26.7473L57.9102 23.9073H77.4602H82.8482V23.9062Z" fill="#EBEEF0"/>
</svg>
