<svg width="201" height="134" viewBox="0 0 201 134" fill="none" xmlns="http://www.w3.org/2000/svg">
<path d="M126.74 91.8086V104.799C126.74 120.778 100.829 133.734 68.87 133.734C36.911 133.734 11 120.778 11 104.799V91.8086C11 107.789 36.911 120.744 68.87 120.744C100.829 120.744 126.74 107.789 126.74 91.8086Z" fill="#AFBDC4"/>
<path d="M68.87 120.743C100.831 120.743 126.74 107.788 126.74 91.808C126.74 75.8277 100.831 62.873 68.87 62.873C36.9093 62.873 11 75.8277 11 91.808C11 107.788 36.9093 120.743 68.87 120.743Z" fill="#CED7DB"/>
<path d="M24.7148 90.5251C24.7148 90.7691 24.7358 91.0111 24.7518 91.2531C25.5248 79.4171 45.0118 69.9091 68.8688 69.9091C92.7258 69.9091 112.205 79.4171 112.977 91.2531C112.993 91.0111 113.014 90.7691 113.014 90.5251C113.014 78.3531 93.2138 68.4531 68.8688 68.4531C44.5238 68.4531 24.7148 78.3531 24.7148 90.5251Z" fill="#788F9B"/>
<path d="M68.867 69.9082C45.01 69.9082 25.523 79.4162 24.75 91.2522C25.523 103.088 45.01 112.597 68.867 112.597C92.724 112.597 112.203 103.089 112.975 91.2522C112.203 79.4162 92.724 69.9082 68.867 69.9082Z" fill="#8FA3AD"/>
<path d="M123.746 89.4165V91.1485C123.746 76.0195 99.131 63.7125 68.873 63.7125C38.615 63.7125 14 76.0195 14 91.1485V89.4165C14 74.2875 38.615 61.9805 68.873 61.9805C99.131 61.9805 123.746 74.2875 123.746 89.4165Z" fill="#AFBDC4"/>
<path d="M125.706 89.418V91.15C125.706 106.819 100.209 119.568 68.8713 119.568C37.5243 119.568 12.0273 106.819 12.0273 91.15V89.418C12.0273 105.087 37.5243 117.836 68.8713 117.836C100.209 117.836 125.706 105.087 125.706 89.418Z" fill="#AFBDC4"/>
<path d="M12.0273 89.417C12.0273 73.748 37.5243 61 68.8713 61C100.209 61 125.706 73.748 125.706 89.417C125.706 105.086 100.209 117.835 68.8713 117.835C37.5243 117.835 12.0273 105.086 12.0273 89.417ZM123.744 89.417C123.744 74.288 99.1293 61.981 68.8713 61.981C38.6133 61.981 13.9984 74.288 13.9984 89.417C13.9984 104.546 38.6133 116.853 68.8713 116.853C99.1293 116.854 123.744 104.546 123.744 89.417Z" fill="#EBEEF0"/>
<path d="M76.5554 78.25H72.1094V80.848H76.5554V78.25Z" fill="#788F9B"/>
<path d="M83.8447 78.25H76.5547V80.848H83.8447V78.25Z" fill="#788F9B"/>
<path d="M68.8967 82.2066V84.8047C68.1047 83.0457 65.0087 81.6546 53.0117 81.6546V79.0566C65.0087 79.0566 68.1047 80.4476 68.8967 82.2066Z" fill="#788F9B"/>
<path d="M83.8458 84.3164H76.1328V86.9144H83.8458V84.3164Z" fill="#788F9B"/>
<path d="M69.1667 84.3164H53.0117V86.9144H69.1667V84.3164Z" fill="#788F9B"/>
<path d="M76.1337 84.3164V86.9144C75.6477 91.1124 69.2127 92.7644 64.8297 93.4034C62.5077 93.7454 60.8487 93.7964 60.7617 93.7994V91.2014C60.8487 91.1984 62.5077 91.1474 64.8297 90.8054C69.2127 90.1664 75.6477 88.5144 76.1337 84.3164Z" fill="#788F9B"/>
<path d="M57.7923 94.3428V96.9408L53.2383 94.0648V91.4668L57.7923 94.3428Z" fill="#788F9B"/>
<path d="M77.906 102.596H70.832V105.194H77.906V102.596Z" fill="#788F9B"/>
<path d="M83.8457 76.127V78.2509H76.5557H72.1097C73.3697 78.7499 74.5307 79.7219 75.2867 80.9189C75.5387 81.3239 75.7457 81.7559 75.8987 82.2059H83.8457V84.3159H76.1327C75.6467 88.5149 69.2117 90.1659 64.8287 90.8049C62.5067 91.1469 60.8477 91.1979 60.7607 91.2009L62.2997 92.2269L77.9057 102.595H70.8317L57.7907 94.3419L53.2367 91.4669V89.0589C65.3507 89.0589 69.0047 86.7999 69.1667 84.3159H53.0117V82.2059H68.8967C68.1047 80.4459 65.0087 79.0559 53.0117 79.0559V76.127H77.1767H83.8457Z" fill="#EBEEF0"/>
<path d="M70.83 102.597V105.195L57.7891 96.9417V94.3438L70.83 102.597Z" fill="#788F9B"/>
<path d="M137.74 70.8086V83.7986C137.74 99.7776 111.829 112.734 79.87 112.734C47.911 112.734 22 99.7776 22 83.7986V70.8086C22 86.7886 47.911 99.7436 79.87 99.7436C111.829 99.7436 137.74 86.7886 137.74 70.8086Z" fill="#AFBDC4"/>
<path d="M79.87 99.743C111.831 99.743 137.74 86.7884 137.74 70.808C137.74 54.8277 111.831 41.873 79.87 41.873C47.9093 41.873 22 54.8277 22 70.808C22 86.7884 47.9093 99.743 79.87 99.743Z" fill="#CED7DB"/>
<path d="M35.7148 69.5251C35.7148 69.7691 35.7358 70.0111 35.7518 70.2531C36.5248 58.4171 56.0118 48.9091 79.8688 48.9091C103.726 48.9091 123.205 58.4171 123.977 70.2531C123.993 70.0111 124.014 69.7691 124.014 69.5251C124.014 57.3531 104.214 47.4531 79.8688 47.4531C55.5238 47.4531 35.7148 57.3531 35.7148 69.5251Z" fill="#788F9B"/>
<path d="M79.867 48.9082C56.01 48.9082 36.523 58.4162 35.75 70.2522C36.523 82.0882 56.01 91.5972 79.867 91.5972C103.724 91.5972 123.203 82.0892 123.975 70.2522C123.203 58.4162 103.724 48.9082 79.867 48.9082Z" fill="#8FA3AD"/>
<path d="M134.746 68.4165V70.1485C134.746 55.0195 110.131 42.7125 79.873 42.7125C49.615 42.7125 25 55.0195 25 70.1485V68.4165C25 53.2875 49.615 40.9805 79.873 40.9805C110.131 40.9805 134.746 53.2875 134.746 68.4165Z" fill="#AFBDC4"/>
<path d="M136.706 68.418V70.15C136.706 85.819 111.209 98.568 79.8713 98.568C48.5243 98.568 23.0273 85.819 23.0273 70.15V68.418C23.0273 84.087 48.5243 96.836 79.8713 96.836C111.209 96.836 136.706 84.087 136.706 68.418Z" fill="#AFBDC4"/>
<path d="M23.0273 68.417C23.0273 52.748 48.5243 40 79.8713 40C111.209 40 136.706 52.748 136.706 68.417C136.706 84.086 111.209 96.835 79.8713 96.835C48.5243 96.835 23.0273 84.086 23.0273 68.417ZM134.744 68.417C134.744 53.288 110.129 40.981 79.8713 40.981C49.6133 40.981 24.9984 53.288 24.9984 68.417C24.9984 83.546 49.6133 95.853 79.8713 95.853C110.129 95.854 134.744 83.546 134.744 68.417Z" fill="#EBEEF0"/>
<path d="M87.5554 57.25H83.1094V59.848H87.5554V57.25Z" fill="#788F9B"/>
<path d="M94.8447 57.25H87.5547V59.848H94.8447V57.25Z" fill="#788F9B"/>
<path d="M79.8967 61.2066V63.8047C79.1047 62.0457 76.0087 60.6546 64.0117 60.6546V58.0566C76.0087 58.0566 79.1047 59.4476 79.8967 61.2066Z" fill="#788F9B"/>
<path d="M94.8458 63.3164H87.1328V65.9144H94.8458V63.3164Z" fill="#788F9B"/>
<path d="M80.1667 63.3164H64.0117V65.9144H80.1667V63.3164Z" fill="#788F9B"/>
<path d="M87.1337 63.3164V65.9144C86.6477 70.1124 80.2127 71.7644 75.8297 72.4034C73.5077 72.7454 71.8487 72.7964 71.7617 72.7994V70.2014C71.8487 70.1984 73.5077 70.1474 75.8297 69.8054C80.2127 69.1664 86.6477 67.5144 87.1337 63.3164Z" fill="#788F9B"/>
<path d="M68.7923 73.3428V75.9408L64.2383 73.0648V70.4668L68.7923 73.3428Z" fill="#788F9B"/>
<path d="M88.906 81.5957H81.832V84.1937H88.906V81.5957Z" fill="#788F9B"/>
<path d="M94.8457 55.127V57.2509H87.5557H83.1097C84.3697 57.7499 85.5307 58.7219 86.2867 59.9189C86.5387 60.3239 86.7457 60.7559 86.8987 61.2059H94.8457V63.3159H87.1327C86.6467 67.5149 80.2117 69.1659 75.8287 69.8049C73.5067 70.1469 71.8477 70.1979 71.7607 70.2009L73.2997 71.2269L88.9057 81.5949H81.8317L68.7907 73.3419L64.2367 70.4669V68.0589C76.3507 68.0589 80.0047 65.7999 80.1667 63.3159H64.0117V61.2059H79.8967C79.1047 59.4459 76.0087 58.0559 64.0117 58.0559V55.127H88.1767H94.8457Z" fill="#EBEEF0"/>
<path d="M81.83 81.5967V84.1947L68.7891 75.9417V73.3438L81.83 81.5967Z" fill="#788F9B"/>
<path d="M115.74 50.8086V63.7986C115.74 79.7776 89.829 92.7336 57.87 92.7336C25.911 92.7336 0 79.7776 0 63.7986V50.8086C0 66.7886 25.911 79.7436 57.87 79.7436C89.829 79.7436 115.74 66.7886 115.74 50.8086Z" fill="#AFBDC4"/>
<path d="M57.87 79.743C89.8307 79.743 115.74 66.7884 115.74 50.808C115.74 34.8277 89.8307 21.873 57.87 21.873C25.9093 21.873 0 34.8277 0 50.808C0 66.7884 25.9093 79.743 57.87 79.743Z" fill="#CED7DB"/>
<path d="M13.7148 49.5251C13.7148 49.7691 13.7358 50.0111 13.7518 50.2531C14.5248 38.4171 34.0118 28.9091 57.8688 28.9091C81.7258 28.9091 101.205 38.4171 101.977 50.2531C101.993 50.0111 102.014 49.7691 102.014 49.5251C102.014 37.3531 82.2138 27.4531 57.8688 27.4531C33.5238 27.4531 13.7148 37.3531 13.7148 49.5251Z" fill="#788F9B"/>
<path d="M57.867 28.9082C34.01 28.9082 14.523 38.4162 13.75 50.2522C14.523 62.0882 34.01 71.5972 57.867 71.5972C81.724 71.5972 101.203 62.0892 101.975 50.2522C101.203 38.4162 81.724 28.9082 57.867 28.9082Z" fill="#8FA3AD"/>
<path d="M112.746 48.4165V50.1485C112.746 35.0195 88.131 22.7125 57.873 22.7125C27.615 22.7125 3 35.0195 3 50.1485V48.4165C3 33.2875 27.615 20.9805 57.873 20.9805C88.131 20.9805 112.746 33.2875 112.746 48.4165Z" fill="#AFBDC4"/>
<path d="M114.706 48.418V50.15C114.706 65.819 89.2093 78.568 57.8713 78.568C26.5243 78.568 1.02734 65.819 1.02734 50.15V48.418C1.02734 64.087 26.5243 76.836 57.8713 76.836C89.2093 76.836 114.706 64.087 114.706 48.418Z" fill="#AFBDC4"/>
<path d="M1.02734 48.417C1.02734 32.748 26.5243 20 57.8713 20C89.2093 20 114.706 32.748 114.706 48.417C114.706 64.086 89.2093 76.835 57.8713 76.835C26.5243 76.835 1.02734 64.086 1.02734 48.417ZM112.744 48.417C112.744 33.288 88.1293 20.981 57.8713 20.981C27.6133 20.981 2.99835 33.288 2.99835 48.417C2.99835 63.546 27.6133 75.853 57.8713 75.853C88.1293 75.854 112.744 63.546 112.744 48.417Z" fill="#EBEEF0"/>
<path d="M65.5554 37.25H61.1094V39.848H65.5554V37.25Z" fill="#788F9B"/>
<path d="M72.8447 37.25H65.5547V39.848H72.8447V37.25Z" fill="#788F9B"/>
<path d="M57.8967 41.2066V43.8047C57.1047 42.0457 54.0087 40.6546 42.0117 40.6546V38.0566C54.0087 38.0566 57.1047 39.4476 57.8967 41.2066Z" fill="#788F9B"/>
<path d="M72.8458 43.3164H65.1328V45.9144H72.8458V43.3164Z" fill="#788F9B"/>
<path d="M58.1667 43.3164H42.0117V45.9144H58.1667V43.3164Z" fill="#788F9B"/>
<path d="M65.1337 43.3164V45.9144C64.6477 50.1124 58.2127 51.7644 53.8297 52.4034C51.5077 52.7454 49.8487 52.7964 49.7617 52.7994V50.2014C49.8487 50.1984 51.5077 50.1474 53.8297 49.8054C58.2127 49.1664 64.6477 47.5144 65.1337 43.3164Z" fill="#788F9B"/>
<path d="M46.7923 53.3428V55.9408L42.2383 53.0648V50.4668L46.7923 53.3428Z" fill="#788F9B"/>
<path d="M66.906 61.5957H59.832V64.1937H66.906V61.5957Z" fill="#788F9B"/>
<path d="M72.8457 35.127V37.2509H65.5557H61.1097C62.3697 37.7499 63.5307 38.7219 64.2867 39.9189C64.5387 40.3239 64.7457 40.7559 64.8987 41.2059H72.8457V43.3159H65.1327C64.6467 47.5149 58.2117 49.1659 53.8287 49.8049C51.5067 50.1469 49.8477 50.1979 49.7607 50.2009L51.2997 51.2269L66.9057 61.5949H59.8317L46.7907 53.3419L42.2367 50.4669V48.0589C54.3507 48.0589 58.0047 45.7999 58.1667 43.3159H42.0117V41.2059H57.8967C57.1047 39.4459 54.0087 38.0559 42.0117 38.0559V35.127H66.1767H72.8457Z" fill="#EBEEF0"/>
<path d="M59.83 61.5967V64.1947L46.7891 55.9417V53.3438L59.83 61.5967Z" fill="#788F9B"/>
<path d="M178.56 104.659L169.216 113.682C157.721 124.782 130.402 115.143 108.202 92.1541C86.0011 69.1647 77.3216 41.5259 88.8159 30.426L98.1602 21.4023C86.6651 32.503 95.3453 60.1411 117.546 83.1305C139.747 106.12 167.065 115.759 178.56 104.659Z" fill="#AFBDC4"/>
<path d="M117.544 83.1308C139.746 106.121 167.063 115.76 178.558 104.659C190.054 93.5582 181.374 65.9215 159.173 42.9309C136.971 19.9403 109.654 10.3018 98.1586 21.4027C86.6632 32.5036 95.3426 60.1402 117.544 83.1308Z" fill="#CED7DB"/>
<path d="M108.607 30.3774C108.432 30.5469 108.272 30.7301 108.109 30.9097C117.16 23.2438 137.536 30.6568 154.109 47.8181C170.681 64.9794 177.373 85.5962 169.395 94.3735C169.581 94.2169 169.769 94.0639 169.945 93.8944C178.701 85.439 172.068 64.319 155.156 46.8067C138.245 29.2943 117.363 21.922 108.607 30.3774Z" fill="#788F9B"/>
<path d="M154.107 47.8172C137.535 30.6559 117.158 23.2429 108.107 30.9088C100.13 39.6868 106.827 60.3101 123.399 77.4714C139.972 94.6327 160.342 102.04 169.394 94.3726C177.371 85.5953 170.68 64.9784 154.107 47.8172Z" fill="#8FA3AD"/>
<path d="M178.195 100.841L176.95 102.044C187.832 91.5349 179.586 65.2792 158.567 43.5134C137.548 21.7476 111.596 12.5902 100.714 23.0997L101.959 21.8965C112.842 11.3871 138.794 20.5444 159.813 42.3102C180.832 64.076 189.078 90.3317 178.195 100.841Z" fill="#AFBDC4"/>
<path d="M179.558 102.252L178.312 103.455C167.041 114.34 140.158 104.855 118.389 82.3126C96.6135 59.7635 88.0726 32.5663 99.344 21.6817L100.59 20.4785C89.3185 31.3631 97.8593 58.5603 119.635 81.1095C141.404 103.652 168.287 113.137 179.558 102.252Z" fill="#AFBDC4"/>
<path d="M100.59 20.4784C111.861 9.59378 138.743 19.0793 160.518 41.6284C182.288 64.1711 190.829 91.3676 179.558 102.252C168.287 113.137 141.404 103.652 119.635 81.1093C97.8593 58.5602 89.3184 31.363 100.59 20.4784ZM178.195 100.841C189.078 90.3314 180.832 64.0757 159.813 42.3099C138.794 20.5441 112.842 11.3867 101.959 21.8962C91.0761 32.4057 99.3221 58.6614 120.341 80.4272C141.359 102.194 167.312 111.35 178.195 100.841Z" fill="#EBEEF0"/>
<path d="M153.452 59.1396L150.363 55.9414L148.494 57.7461L151.583 60.9443L153.452 59.1396Z" fill="#788F9B"/>
<path d="M158.517 64.3846L153.453 59.1406L151.584 60.9453L156.648 66.1893L158.517 64.3846Z" fill="#788F9B"/>
<path d="M145.288 56.3786L143.419 58.1833C144.135 56.3917 142.985 53.1983 134.651 44.5684L136.52 42.7637C144.853 51.3936 146.003 54.5869 145.288 56.3786Z" fill="#788F9B"/>
<path d="M154.151 68.5971L148.793 63.0488L146.924 64.8535L152.282 70.4018L154.151 68.5971Z" fill="#788F9B"/>
<path d="M143.957 58.0389L132.734 46.418L130.866 48.2227L142.088 59.8436L143.957 58.0389Z" fill="#788F9B"/>
<path d="M148.795 63.0499L146.927 64.8546C143.569 67.4212 137.911 63.9398 134.406 61.2308C132.547 59.7981 131.358 58.6401 131.296 58.5796L133.165 56.7749C133.227 56.8354 134.416 57.9934 136.275 59.4261C139.78 62.1351 145.438 65.6165 148.795 63.0499Z" fill="#788F9B"/>
<path d="M128.841 56.8206L126.972 58.6253L125.877 53.3516L127.746 51.5469L128.841 56.8206Z" fill="#788F9B"/>
<path d="M136.879 77.0222L131.965 71.9336L130.096 73.7383L135.01 78.8269L136.879 77.0222Z" fill="#788F9B"/>
<path d="M160.044 62.9087L158.516 64.3841L153.452 59.1401L150.364 55.9419C150.88 57.1949 150.987 58.7053 150.651 60.0806C150.535 60.5432 150.368 60.9922 150.151 61.4149L155.671 67.1315L154.153 68.5972L148.796 63.0489C145.437 65.6162 139.78 62.1341 136.275 59.4251C134.416 57.9924 133.227 56.8344 133.165 56.7739L133.496 58.5937L136.878 77.022L131.964 71.9334L128.842 56.8195L127.747 51.5464L129.479 49.8737C137.894 58.5878 142.057 59.647 143.957 58.038L132.734 46.4171L134.252 44.9513L145.287 56.3781C146.003 54.5857 144.852 51.3931 136.518 42.7632L138.625 40.7285L155.411 58.1114L160.044 62.9087Z" fill="#EBEEF0"/>
<path d="M131.962 71.9342L130.093 73.7389L126.971 58.625L128.84 56.8203L131.962 71.9342Z" fill="#788F9B"/>
</svg>
