<svg width="60" height="70" viewBox="0 0 60 70" fill="none" xmlns="http://www.w3.org/2000/svg">
<g clip-path="url(#clip0_895_743)">
<path d="M40.1541 23.9684C40.1535 23.9588 40.144 23.9495 40.1357 23.9514C40.1259 23.9517 40.1182 23.9596 40.1182 23.9693C40.1182 24.4274 39.8167 24.8787 39.2219 25.3107C39.217 25.314 39.2144 25.3195 39.2144 25.3253C39.2506 30.2741 38.3678 38.3199 36.792 47.3994C35.4881 54.9121 33.972 61.52 33.2652 62.7697C32.246 64.5716 26.8445 65.3823 23.3346 65.3823C20.0502 65.3823 14.6847 64.5518 13.5992 62.7694C12.96 61.7196 11.3172 54.7456 9.93711 47.2234C8.20453 37.7789 7.28517 29.786 7.41496 25.2941C7.4151 25.2883 7.41243 25.2828 7.40781 25.2793C6.84104 24.8568 6.55361 24.4161 6.55361 23.9693C6.55361 23.9597 6.54606 23.9519 6.53656 23.9514C6.52832 23.9516 6.51879 23.9581 6.51796 23.9676C5.96518 29.7597 8.15122 43.0562 9.11688 48.504C10.7444 57.687 12.7118 66.3639 13.413 67.451C14.0599 68.4538 15.9395 69.054 17.4024 69.3807C19.1647 69.7746 21.3274 70.0002 23.336 70.0002C27.3796 70.0002 32.2098 69.2025 33.2592 67.4504C34.036 66.1537 35.8926 57.9523 37.4862 48.7794C38.3991 43.5236 40.4868 30.5846 40.1541 23.9684Z" fill="#DFDAD0"/>
<path d="M39.2426 25.3246C39.2426 25.3179 39.2389 25.3118 39.2329 25.3088C39.2265 25.3056 39.2196 25.3064 39.2142 25.3103C36.8902 26.9977 30.5062 28.1314 23.3283 28.1314C16.0897 28.1314 9.6887 26.9851 7.40015 25.2789C7.39484 25.2749 7.38769 25.2743 7.38155 25.2772C7.37552 25.2801 7.37162 25.2861 7.37147 25.2928C7.24168 29.7869 8.16118 37.7826 9.89417 47.2293C11.2748 54.7553 12.9198 61.7347 13.561 62.7874C14.1713 63.7896 16.0541 64.4122 17.5261 64.7579C19.2853 65.171 21.4539 65.4176 23.3269 65.4176C26.8455 65.4176 32.2624 64.6014 33.2885 62.7871C33.9973 61.534 35.5151 54.9212 36.8196 47.405C38.3957 38.3235 39.2788 30.2755 39.2426 25.3246Z" fill="#EAE7E0"/>
<path d="M36.7129 41.4553C36.704 41.4538 36.6946 41.4592 36.692 41.4684C36.5599 41.981 35.1139 42.4621 32.6208 42.823C30.1141 43.1858 26.815 43.3856 23.3314 43.3856C19.8576 43.3856 16.5652 43.1867 14.0609 42.8258C11.5707 42.4667 10.1187 41.9875 9.97267 41.4765C9.97 41.4674 9.96064 41.4616 9.95168 41.4639C9.94244 41.4659 9.93629 41.4747 9.9377 41.4841C10.5859 45.7388 11.4995 50.6104 12.4445 54.85C13.3069 58.7192 14.0677 61.4837 14.4298 62.0642C15.4255 63.6603 20.3278 64.4038 23.3275 64.4038C26.5332 64.4038 31.4685 63.6778 32.4037 62.0636C33.2424 60.6161 35.4021 50.8315 36.7273 41.4754C36.7285 41.466 36.7224 41.4571 36.7129 41.4553Z" fill="#F77ADE"/>
<path d="M39.2324 25.9772C39.2218 25.9756 39.2106 25.9813 39.2074 25.9911C39.0492 26.5342 37.3201 27.0439 34.3385 27.4263C31.3407 27.8107 27.3952 28.0225 23.229 28.0225C19.0746 28.0225 15.1371 27.8118 12.1422 27.4292C9.16407 27.0488 7.42761 26.5411 7.25298 25.9996C7.24979 25.9899 7.2386 25.9839 7.22789 25.9862C7.21684 25.9884 7.20949 25.9977 7.21118 26.0077C7.98631 30.5158 8.79376 36.4992 9.92387 40.9909C10.9553 45.0907 12.1503 47.1981 12.5833 47.8131C13.7742 49.5042 19.637 50.2922 23.2244 50.2922C27.0581 50.2922 33.9971 49.0027 35.1156 47.2923C36.1184 45.7585 37.9241 35.3625 39.5091 25.4494C39.5106 25.4394 39.2436 25.9791 39.2324 25.9772Z" fill="#F77ADE"/>
<path d="M35.2177 20.9964C32.0432 20.2065 27.8228 19.7715 23.3338 19.7715C18.8449 19.7715 14.6245 20.2065 11.45 20.9964C8.26792 21.7882 6.51562 22.8442 6.51562 23.9698C6.51562 24.4285 6.80782 24.8788 7.38422 25.3085C9.67838 27.0189 16.0881 28.1681 23.3338 28.1681C30.5186 28.1681 36.9113 27.0316 39.2407 25.3401C39.8453 24.901 40.1519 24.44 40.1519 23.9698C40.1519 22.8442 38.3998 21.7882 35.2177 20.9964Z" fill="#F8FBF6"/>
<path d="M12.0848 26.0167C15.0885 26.6262 19.0819 26.9619 23.3295 26.9619C27.5771 26.9619 31.5705 26.6262 34.5741 26.0167C37.5862 25.4056 39.245 24.5893 39.245 23.7182C39.245 22.8472 37.5862 22.0309 34.5741 21.4197C31.5705 20.8103 27.5771 20.4746 23.3295 20.4746C19.0819 20.4746 15.0885 20.8103 12.0848 21.4197C9.07278 22.0309 7.41406 22.8471 7.41406 23.7182C7.41406 24.5893 9.07278 25.4056 12.0848 26.0167Z" fill="#DFDAD0"/>
<path d="M34.6009 21.6707C31.5971 21.0229 27.6037 20.666 23.3564 20.666C19.1089 20.666 15.1156 21.0229 12.112 21.6707C9.09757 22.3207 7.4375 23.1925 7.4375 24.1254C7.4375 24.1744 7.44301 24.2259 7.45429 24.283C7.82248 26.1344 14.8075 27.5845 23.3564 27.5845C31.9411 27.5845 38.9273 26.1277 39.2612 24.2678C39.2706 24.2152 39.2752 24.1685 39.2752 24.1253C39.2752 23.1925 37.615 22.3207 34.6009 21.6707Z" fill="#F77ADE"/>
<path d="M26.1507 45.457L26.0732 45.3973C26.0124 45.362 25.9459 45.3442 25.8764 45.3439C25.8212 45.3422 25.7707 45.3534 25.7263 45.3769C25.6774 45.393 25.6344 45.4206 25.5996 45.4582C25.5612 45.4938 25.5335 45.5368 25.5188 45.5831C25.494 45.6301 25.4824 45.6815 25.4846 45.7375L25.4985 45.8391C25.517 45.9052 25.5508 45.9631 25.5991 46.0117L25.6009 46.0134L25.6784 46.0731C25.7429 46.1104 25.8136 46.1271 25.8875 46.1265C25.9371 46.1265 25.9841 46.115 26.0253 46.0935C26.0741 46.0774 26.1172 46.0498 26.152 46.0122C26.1904 45.9763 26.2181 45.9336 26.2328 45.8874C26.2576 45.8403 26.2692 45.7889 26.267 45.7329L26.253 45.631C26.2348 45.5653 26.2009 45.5073 26.1507 45.457Z" fill="#FC7DA8"/>
<path d="M25.9609 48.0663C25.9609 48.1886 26.0428 48.3121 26.1991 48.3121C26.3554 48.3121 26.4372 48.1883 26.4372 48.0661C26.4372 47.944 26.3554 47.8203 26.1991 47.8203C26.0428 47.8203 25.9609 47.9443 25.9609 48.0663Z" fill="#FC7DA8"/>
<path d="M27.5859 46.7964L27.5466 46.7659C27.5151 46.7478 27.4809 46.7386 27.4452 46.7384C27.4157 46.7375 27.3896 46.7435 27.3678 46.7553C27.3421 46.7636 27.3196 46.7783 27.302 46.7972C27.282 46.8159 27.2674 46.8385 27.2601 46.8615C27.2471 46.8862 27.2411 46.9132 27.2423 46.9433L27.2495 46.9947C27.2589 47.0286 27.2763 47.0585 27.3014 47.0837L27.3032 47.0854L27.3425 47.1156C27.3758 47.1348 27.4131 47.1431 27.45 47.1434C27.4762 47.1434 27.5008 47.1374 27.5212 47.1265C27.5468 47.1182 27.5694 47.1035 27.5871 47.0843C27.6073 47.0656 27.6216 47.0429 27.6288 47.0203C27.6418 46.9956 27.6479 46.9686 27.6467 46.9385L27.6396 46.8868C27.63 46.8529 27.6126 46.8228 27.5859 46.7964Z" fill="#FC7DA8"/>
<path d="M27.811 50.8952C27.9484 50.8952 28.0204 50.7864 28.0204 50.6791C28.0204 50.5717 27.9484 50.4629 27.811 50.4629C27.6735 50.4629 27.6016 50.5717 27.6016 50.6793C27.6016 50.7867 27.6735 50.8952 27.811 50.8952Z" fill="#FC7DA8"/>
<path d="M31.2997 49.5542C31.2997 49.4535 31.232 49.3516 31.1029 49.3516C30.9738 49.3516 30.9062 49.4538 30.9062 49.5545C30.9062 49.6073 30.9237 49.6564 30.9553 49.6935C30.9913 49.7354 31.0423 49.7575 31.1029 49.7575C31.232 49.7572 31.2997 49.6553 31.2997 49.5542Z" fill="#FC7DA8"/>
<path d="M30.2996 45.4047C30.2513 45.4879 30.2267 45.5789 30.2266 45.678L30.2456 45.8184C30.2708 45.9085 30.3169 45.9877 30.3828 46.0543L30.4 46.0761C30.4493 46.129 30.5083 46.1669 30.5729 46.1878C30.6378 46.2217 30.7096 46.2378 30.7816 46.2349C30.7874 46.2349 30.793 46.2352 30.7985 46.2352C30.8669 46.2352 30.9317 46.2191 30.9891 46.189C31.0564 46.1672 31.1153 46.129 31.1656 46.075L31.2487 45.9673C31.2972 45.8832 31.322 45.7917 31.3221 45.6923L31.303 45.5514C31.2775 45.4601 31.2308 45.38 31.1625 45.3117L31.1431 45.2967C31.0941 45.2439 31.0354 45.2063 30.9713 45.1856C30.9068 45.1518 30.8359 45.1368 30.7638 45.1389C30.691 45.1371 30.6194 45.1518 30.5577 45.1845C30.4909 45.2063 30.4321 45.2439 30.3822 45.2979L30.2996 45.4047Z" fill="#FC7DA8"/>
<path d="M33.809 44.8881C33.8299 44.8523 33.8405 44.8126 33.8405 44.7707C33.8405 44.7288 33.8299 44.6895 33.809 44.6533C33.7883 44.6189 33.7604 44.5907 33.7254 44.5701C33.6534 44.5284 33.5618 44.5293 33.4926 44.5692L33.4883 44.5718L33.4438 44.6062C33.4208 44.6278 33.4042 44.6536 33.3953 44.6812L33.3844 44.707L33.3826 44.7139L33.3792 44.7397C33.3726 44.7699 33.3737 44.8003 33.3829 44.8279L33.3835 44.8325C33.3947 44.8718 33.4148 44.9062 33.4421 44.9335C33.4561 44.951 33.4734 44.9642 33.4912 44.9714C33.527 44.9924 33.5664 45.003 33.6083 45.0033C33.6502 45.003 33.6895 44.9924 33.7257 44.9714C33.7602 44.951 33.7883 44.9229 33.809 44.8881Z" fill="#FC7DA8"/>
<path d="M33.7957 47.666C33.748 47.666 33.7078 47.6835 33.6791 47.7165C33.6541 47.7455 33.6406 47.7843 33.6406 47.8259C33.6406 47.9054 33.6937 47.9858 33.7957 47.9858C33.8976 47.9858 33.951 47.9054 33.951 47.8256C33.951 47.7464 33.8976 47.666 33.7957 47.666Z" fill="#FC7DA8"/>
<path d="M32.9158 52.2676C32.7763 52.2676 32.7031 52.3781 32.7031 52.4872C32.7031 52.544 32.722 52.5974 32.7562 52.637C32.795 52.6824 32.8501 52.7062 32.9158 52.7062C33.0553 52.7062 33.1283 52.596 33.1283 52.4869C33.1283 52.3778 33.0553 52.2676 32.9158 52.2676Z" fill="#FC7DA8"/>
<path d="M25.236 53.2734C25.0964 53.2734 25.0234 53.384 25.0234 53.493C25.0234 53.5502 25.0423 53.6033 25.0764 53.6432C25.1153 53.6885 25.1704 53.7124 25.236 53.7124C25.3756 53.7124 25.4486 53.6019 25.4486 53.4928C25.4486 53.4356 25.4299 53.3822 25.3956 53.3426C25.3567 53.2973 25.3016 53.2734 25.236 53.2734Z" fill="#FC7DA8"/>
<path d="M22.9062 49.3528C22.9062 49.395 22.9202 49.4346 22.9457 49.4642C22.9746 49.4981 23.0158 49.5159 23.0646 49.5159C23.1685 49.5159 23.2229 49.4338 23.2229 49.3525C23.2229 49.2716 23.1685 49.1895 23.0646 49.1895C22.9607 49.1895 22.9062 49.2716 22.9062 49.3528Z" fill="#FC7DA8"/>
<path d="M30.0752 61.715L30.0734 61.7135L30.0468 61.6932C30.0251 61.6805 30.0014 61.6742 29.9767 61.6739C29.9552 61.6731 29.9379 61.6777 29.9235 61.6854C29.9055 61.6912 29.8898 61.7015 29.8774 61.7147C29.8633 61.7279 29.8532 61.7437 29.8486 61.7589C29.8395 61.7758 29.8352 61.7948 29.836 61.8166L29.8411 61.8513C29.8475 61.8752 29.8597 61.8958 29.8787 61.9148L29.9054 61.9352C29.9288 61.9487 29.9562 61.9544 29.9798 61.9544C29.9983 61.9544 30.0154 61.9501 30.0287 61.9429C30.0467 61.9372 30.0625 61.9268 30.0747 61.9139C30.0888 61.9007 30.099 61.8849 30.1036 61.8697C30.1129 61.8522 30.117 61.8335 30.1161 61.8117L30.1112 61.777C30.1047 61.7532 30.0926 61.7325 30.0752 61.715Z" fill="#FC7DA8"/>
<path d="M27.7247 62.6067L27.7229 62.6053L27.6295 62.5332C27.5565 62.491 27.4766 62.4695 27.3928 62.4692C27.3285 62.466 27.2663 62.4804 27.2124 62.5088C27.1537 62.528 27.1021 62.561 27.0602 62.6064C27.014 62.6495 26.9808 62.7008 26.963 62.7565C26.9334 62.8131 26.9195 62.8748 26.9222 62.9417L26.9389 63.0643C26.9611 63.1435 27.0018 63.2133 27.0615 63.2733L27.155 63.3453C27.228 63.3875 27.3077 63.4091 27.3915 63.4094C27.3964 63.4096 27.4013 63.4096 27.4062 63.4096C27.466 63.4096 27.5225 63.3959 27.572 63.3694C27.6307 63.3505 27.6823 63.3172 27.7242 63.2721C27.7704 63.2291 27.8035 63.1777 27.8213 63.1217C27.8511 63.0654 27.8649 63.0037 27.8623 62.9368L27.8455 62.8142C27.8235 62.735 27.7828 62.6653 27.7247 62.6067Z" fill="#FC7DA8"/>
<path d="M25.9584 62.0387C25.9484 62.0034 25.9304 61.9721 25.9047 61.9463L25.9028 61.9446L25.8622 61.9133C25.8297 61.8946 25.7942 61.8848 25.7571 61.8848C25.7261 61.884 25.6998 61.89 25.677 61.9024C25.6505 61.911 25.6273 61.9259 25.6088 61.9457C25.5881 61.9649 25.573 61.9882 25.5655 62.0123C25.5521 62.0376 25.5458 62.0654 25.547 62.0967L25.5544 62.1501C25.5642 62.1854 25.5824 62.2164 25.61 62.244L25.6508 62.2753C25.6854 62.2954 25.723 62.3043 25.7627 62.304C25.7895 62.304 25.8149 62.2977 25.8357 62.2865C25.8623 62.2779 25.8856 62.2629 25.9041 62.2428C25.9251 62.2236 25.94 62.2001 25.9473 62.1765C25.9609 62.151 25.9672 62.1228 25.9659 62.0936L25.9653 62.0887L25.9584 62.0387Z" fill="#FC7DA8"/>
<path d="M25.1525 63.1113C25.0318 63.1113 24.9688 63.2066 24.9688 63.3011C24.9688 63.3502 24.985 63.3964 25.0145 63.4308C25.0482 63.4699 25.0959 63.4906 25.1525 63.4906C25.2733 63.4906 25.3365 63.395 25.3365 63.3008C25.3365 63.2514 25.3203 63.2055 25.2906 63.171C25.257 63.132 25.2092 63.1113 25.1525 63.1113Z" fill="#FC7DA8"/>
<path d="M16.8209 62.1501L16.819 62.1486L16.7669 62.1087C16.7257 62.0846 16.6807 62.0726 16.6336 62.0723C16.5968 62.072 16.5614 62.0786 16.5319 62.0944C16.4983 62.1053 16.4689 62.1242 16.4456 62.1495C16.4191 62.1742 16.4004 62.2035 16.3907 62.2342C16.3738 62.2661 16.3658 62.3014 16.3674 62.3404L16.3767 62.4087C16.3892 62.4535 16.4123 62.4928 16.4467 62.5273L16.4988 62.5675C16.5428 62.5927 16.5912 62.6034 16.6408 62.6037C16.6748 62.6037 16.7068 62.5959 16.734 62.5813C16.7675 62.5703 16.7969 62.5517 16.8203 62.5261C16.8465 62.502 16.8654 62.4727 16.8752 62.4417C16.8921 62.4093 16.9 62.3743 16.8985 62.3355L16.8891 62.2672C16.8764 62.2224 16.8534 62.1828 16.8209 62.1501Z" fill="#FC7DA8"/>
<path d="M16.5366 60.7677C16.5366 60.652 16.4591 60.5352 16.3113 60.5352C16.1633 60.5352 16.0859 60.6523 16.0859 60.768C16.0859 60.8285 16.1058 60.8851 16.142 60.927C16.1833 60.975 16.2418 61.0005 16.3113 61.0005C16.3807 61.0005 16.4393 60.975 16.4804 60.927C16.5166 60.8848 16.5366 60.8283 16.5366 60.7677Z" fill="#FC7DA8"/>
<path d="M15.6912 61.4722C15.6738 61.455 15.653 61.4427 15.6309 61.4366L15.5758 61.424C15.556 61.4229 15.5397 61.4274 15.5263 61.4346C15.5095 61.4401 15.4948 61.4496 15.4817 61.4639L15.4628 61.4886C15.4512 61.5087 15.4452 61.5305 15.4453 61.5569L15.4517 61.5948L15.4571 61.6086C15.4635 61.6321 15.4757 61.6528 15.493 61.6703C15.5103 61.6875 15.531 61.6996 15.5548 61.7065C15.5672 61.7096 15.5796 61.7114 15.5919 61.7114C15.6287 61.7114 15.6646 61.697 15.6912 61.6703C15.7267 61.6347 15.7406 61.5825 15.7271 61.534C15.7207 61.5104 15.7085 61.4897 15.6912 61.4722Z" fill="#FC7DA8"/>
<path d="M14.8253 58.9297C14.7298 58.9297 14.6797 59.0052 14.6797 59.0798C14.6797 59.1542 14.7298 59.2297 14.8253 59.2297C14.9208 59.2297 14.9709 59.1542 14.9709 59.0795C14.9709 59.0049 14.9208 58.9297 14.8253 58.9297Z" fill="#FC7DA8"/>
<path d="M12.8556 48.2539C12.6328 48.2539 12.5312 48.4276 12.5312 48.5892C12.5312 48.7505 12.6328 48.9239 12.8556 48.9239C13.0784 48.9239 13.1798 48.7503 13.1798 48.5886C13.1798 48.4273 13.0784 48.2539 12.8556 48.2539Z" fill="#FC7DA8"/>
<path d="M13.25 51.2813C13.25 51.5442 13.4155 51.8273 13.7786 51.8273C14.1417 51.8273 14.3071 51.5439 14.3071 51.2804C14.3071 51.0174 14.1417 50.7344 13.7786 50.7344C13.4155 50.7344 13.25 51.0177 13.25 51.2813Z" fill="#FC7DA8"/>
<path d="M18.5395 47.3198C18.5716 47.3384 18.6066 47.3479 18.6437 47.3479C18.6807 47.3479 18.7157 47.3384 18.7479 47.3198C18.7787 47.3014 18.8036 47.2764 18.8219 47.2457C18.8405 47.2132 18.8499 47.1785 18.8499 47.1415C18.8499 47.1047 18.8405 47.0697 18.8227 47.0396L18.8103 47.0111C18.7933 46.9824 18.7701 46.9592 18.741 46.942C18.681 46.9075 18.6062 46.9072 18.5462 46.942C18.5173 46.9592 18.494 46.9824 18.476 47.0132L18.4656 47.0376C18.447 47.0697 18.4375 47.1047 18.4375 47.1418C18.4375 47.1785 18.447 47.2135 18.4657 47.2457C18.4838 47.2764 18.5086 47.3014 18.5395 47.3198Z" fill="#FC7DA8"/>
<path d="M15.7431 48.5853C15.7564 48.6077 15.7744 48.6258 15.7969 48.639C15.8201 48.6525 15.8456 48.6597 15.8726 48.6597C15.9258 48.6597 15.9753 48.6312 16.0021 48.5853C16.0289 48.5394 16.0289 48.4799 16.0021 48.4337C15.9753 48.3881 15.9257 48.3594 15.8726 48.3594C15.8456 48.3597 15.8201 48.3666 15.7968 48.38C15.7744 48.3933 15.7564 48.4113 15.7424 48.4352L15.7341 48.4521C15.7239 48.4699 15.7188 48.4891 15.7188 48.5095C15.7188 48.5299 15.7239 48.5494 15.7336 48.5658L15.7403 48.5796L15.7431 48.5853Z" fill="#FC7DA8"/>
<path d="M14.8239 45.2559C14.7772 45.2559 14.7376 45.2731 14.7098 45.3055C14.6855 45.3339 14.6719 45.3718 14.6719 45.4126C14.6719 45.4904 14.7242 45.5691 14.8239 45.5691C14.9237 45.5691 14.9758 45.4904 14.9758 45.4123C14.9758 45.3345 14.9237 45.2559 14.8239 45.2559Z" fill="#FC7DA8"/>
<path d="M11.9962 43.6772L11.9949 43.6724L11.9776 43.6313L11.9752 43.6273L11.9484 43.5925L11.9452 43.5894L11.9105 43.5627L11.9066 43.5604L11.8638 43.5423C11.8382 43.5343 11.8119 43.5331 11.7898 43.5383C11.7713 43.5386 11.7537 43.5432 11.741 43.5512C11.7168 43.559 11.6957 43.5725 11.6796 43.59L11.6576 43.6092C11.6412 43.6244 11.6295 43.6428 11.6239 43.6609C11.6134 43.6807 11.6085 43.7025 11.6095 43.7275L11.6152 43.7685C11.6228 43.7961 11.6369 43.8202 11.658 43.8414L11.7153 43.8877L11.7192 43.89L11.7619 43.9078C11.7771 43.9126 11.7926 43.9149 11.8073 43.9149C11.8172 43.9149 11.8269 43.9138 11.8358 43.9118C11.8536 43.9118 11.8705 43.9072 11.886 43.8986C11.9024 43.8937 11.917 43.8851 11.926 43.8753C11.941 43.8664 11.953 43.8546 11.962 43.84C11.974 43.8277 11.9824 43.813 11.9856 43.7995C11.9978 43.7766 12.0035 43.7513 12.0025 43.7243L12.002 43.72L11.9962 43.6772Z" fill="#FC7DA8"/>
<path d="M13.4977 46.2318C13.4446 46.2014 13.3794 46.2014 13.3262 46.2318C13.3009 46.2467 13.2805 46.2674 13.2652 46.2927C13.25 46.3191 13.2422 46.3478 13.2422 46.3785C13.2422 46.4089 13.25 46.4379 13.2655 46.4646L13.2902 46.5002L13.3169 46.5266L13.3311 46.5375L13.335 46.5398L13.3504 46.5464C13.368 46.5556 13.3871 46.5602 13.4083 46.5602C13.4103 46.5602 13.4124 46.5602 13.4144 46.5602L13.4511 46.5551L13.4558 46.5539L13.4888 46.5401L13.4927 46.5378L13.5212 46.5157L13.5246 46.5126L13.5483 46.481L13.5588 46.464C13.5739 46.4379 13.5818 46.4089 13.5819 46.3782C13.5818 46.3478 13.5739 46.3191 13.5587 46.2927C13.5435 46.2674 13.5232 46.2467 13.4977 46.2318Z" fill="#FC7DA8"/>
<path d="M20.191 45.8163C20.191 45.7784 20.1786 45.7428 20.1556 45.7164C20.1296 45.686 20.0924 45.6699 20.0486 45.6699C20.0049 45.6699 19.9679 45.686 19.9417 45.7164C19.919 45.7428 19.9062 45.7787 19.9062 45.8166C19.9062 45.8895 19.9552 45.9633 20.0486 45.9633C20.1421 45.9633 20.191 45.8895 20.191 45.8163Z" fill="#FC7DA8"/>
<path d="M20.8107 49.3005C20.8356 49.2715 20.8493 49.2329 20.8493 49.1912C20.8493 49.1117 20.796 49.0312 20.6942 49.0312C20.6465 49.0312 20.6062 49.0488 20.5776 49.0821C20.5528 49.1111 20.5391 49.1498 20.5391 49.1914C20.5391 49.271 20.5923 49.3513 20.6942 49.3513C20.7419 49.3513 20.7821 49.3338 20.8107 49.3005Z" fill="#FC7DA8"/>
<path d="M22.3433 49.875C22.2667 49.875 22.2266 49.9356 22.2266 49.9953C22.2266 50.0263 22.2368 50.0556 22.2555 50.0774C22.277 50.1024 22.3074 50.1156 22.3433 50.1156C22.42 50.1156 22.4601 50.055 22.4601 49.9953C22.4601 49.964 22.4499 49.935 22.4312 49.9132C22.4096 49.8882 22.3793 49.875 22.3433 49.875Z" fill="#FC7DA8"/>
<path d="M23.3188 44.8104C23.3188 44.755 23.3004 44.7033 23.2673 44.6648C23.2295 44.6209 23.1761 44.5977 23.1124 44.5977C22.977 44.5977 22.9062 44.7047 22.9062 44.8107C22.9062 44.8661 22.9246 44.9177 22.9576 44.9562C22.9954 45.0001 23.0489 45.0234 23.1124 45.0234C23.2478 45.0234 23.3188 44.916 23.3188 44.8104Z" fill="#FC7DA8"/>
<path d="M22.5494 52.3424C22.4968 52.3593 22.4505 52.3892 22.413 52.4296C22.372 52.4675 22.3426 52.5135 22.3254 52.5654C22.2991 52.6157 22.287 52.6705 22.2894 52.7302L22.3043 52.8396C22.3242 52.9108 22.3606 52.9731 22.4143 53.027L22.4978 53.0913C22.5632 53.1292 22.6347 53.1485 22.7095 53.1488C22.714 53.1488 22.7183 53.1488 22.7228 53.1488C22.7763 53.1488 22.8267 53.1367 22.8712 53.1132C22.9238 53.0959 22.97 53.0664 23.0075 53.0259C23.0487 52.9877 23.0784 52.9412 23.0945 52.8912C23.121 52.8407 23.1335 52.7853 23.1311 52.7253L23.1162 52.6157C23.0963 52.5447 23.0599 52.4822 23.0062 52.4285L22.9227 52.3642C22.8574 52.3263 22.7859 52.307 22.7109 52.3068C22.6534 52.3053 22.5972 52.3168 22.5494 52.3424Z" fill="#FC7DA8"/>
<path d="M25.3984 49.2332C25.3984 49.3159 25.454 49.3997 25.56 49.3997C25.666 49.3997 25.7216 49.3159 25.7216 49.2329C25.7216 49.1896 25.7073 49.1494 25.6814 49.1192C25.6518 49.0845 25.6098 49.0664 25.56 49.0664C25.5102 49.0664 25.4684 49.0848 25.4387 49.1192C25.4127 49.1494 25.3984 49.1899 25.3984 49.2332Z" fill="#FC7DA8"/>
<path d="M23.987 47.4967C24.0036 47.4772 24.0128 47.4513 24.0128 47.4235C24.0128 47.3704 23.9772 47.3164 23.9088 47.3164C23.8405 47.3164 23.8047 47.3704 23.8047 47.4238C23.8047 47.4513 23.8139 47.4772 23.8306 47.4967C23.8497 47.5188 23.8767 47.5309 23.9088 47.5309C23.9408 47.5306 23.9678 47.5188 23.987 47.4967Z" fill="#FC7DA8"/>
<path d="M17.5412 44.8901C17.5412 44.8155 17.4912 44.7402 17.3956 44.7402C17.3001 44.7402 17.25 44.8157 17.25 44.8904C17.25 44.9647 17.3001 45.0402 17.3956 45.0402C17.4912 45.0402 17.5412 44.9647 17.5412 44.8901Z" fill="#FC7DA8"/>
<path d="M17.1247 48.8806C17.0997 48.9099 17.0859 48.9486 17.0859 48.9903C17.0859 49.0695 17.1392 49.1502 17.2412 49.1502C17.343 49.1502 17.3963 49.0695 17.3963 48.99C17.3963 48.9484 17.3826 48.9096 17.3577 48.8806C17.3293 48.8476 17.289 48.8301 17.2412 48.8301C17.1933 48.8301 17.1531 48.8476 17.1247 48.8806Z" fill="#FC7DA8"/>
<path d="M14.9369 47.3571L14.9374 47.3597C14.9478 47.3961 14.9664 47.4283 14.9946 47.4564L15.0369 47.4888C15.0725 47.5095 15.1123 47.5184 15.1521 47.5184C15.1798 47.5184 15.206 47.5121 15.2277 47.5003C15.2551 47.4914 15.2791 47.4759 15.2982 47.4555C15.3197 47.4354 15.3351 47.4116 15.3428 47.3869C15.3568 47.3602 15.3632 47.3315 15.3618 47.2997L15.3543 47.2445C15.3441 47.2081 15.3253 47.1762 15.2971 47.1478L15.2548 47.1154C15.2215 47.0961 15.1849 47.0861 15.1465 47.0861C15.117 47.0849 15.0875 47.0912 15.064 47.1039C15.0366 47.1128 15.0125 47.1283 14.9935 47.1489C14.972 47.1687 14.9566 47.1929 14.9489 47.2173C14.9349 47.244 14.9285 47.2727 14.9299 47.3042L14.9369 47.3571Z" fill="#FC7DA8"/>
<path d="M31.1329 51.3595C31.1124 51.3213 31.0841 51.2903 31.049 51.2673C31.0174 51.2389 30.9799 51.2191 30.9377 51.2091L30.9122 51.203C30.8538 51.1875 30.7946 51.1875 30.7359 51.203C30.6802 51.2188 30.631 51.2475 30.5879 51.29C30.5718 51.3113 30.5554 51.3325 30.5377 51.3558C30.5079 51.4069 30.4926 51.4631 30.4924 51.5225C30.4907 51.5688 30.5005 51.6124 30.5203 51.6494C30.5337 51.6911 30.5573 51.7275 30.5896 51.7577C30.631 51.7987 30.6802 51.8271 30.7362 51.8429C30.7654 51.8507 30.7949 51.8547 30.8243 51.8547C30.8537 51.8547 30.8829 51.8507 30.9119 51.8429L30.9405 51.836L31.0155 51.8042C31.0538 51.7835 31.0851 51.7548 31.1059 51.7218C31.127 51.7008 31.1418 51.6753 31.1485 51.6497C31.1692 51.6104 31.1789 51.5676 31.1769 51.5205L31.166 51.439L31.1648 51.4341L31.1329 51.3595Z" fill="#FC7DA8"/>
<path d="M32.8487 46.5801C32.8487 46.4908 32.7887 46.4004 32.6744 46.4004C32.56 46.4004 32.5 46.4908 32.5 46.5804C32.5 46.6269 32.5155 46.6705 32.5435 46.7033C32.5754 46.7403 32.6207 46.7598 32.6744 46.7598C32.7887 46.7598 32.8487 46.6694 32.8487 46.5801Z" fill="#FC7DA8"/>
<path d="M35.1678 44.1309C35.121 44.1309 35.0814 44.1481 35.0535 44.1805C35.0294 44.2089 35.0156 44.2471 35.0156 44.2876C35.0156 44.3654 35.0682 44.4443 35.1678 44.4443C35.2674 44.4443 35.3196 44.3654 35.3196 44.2876C35.3196 44.2468 35.3062 44.2089 35.282 44.1805C35.2542 44.1481 35.2146 44.1309 35.1678 44.1309Z" fill="#FC7DA8"/>
<path d="M30.5349 44.2985L30.5368 44.2997L30.5607 44.3097C30.5932 44.3286 30.6287 44.3381 30.6666 44.3384C30.7043 44.3381 30.7397 44.3286 30.7723 44.3097C30.8036 44.291 30.8288 44.2658 30.8474 44.2345C30.8662 44.202 30.8758 44.1664 30.876 44.1288C30.8758 44.0909 30.8662 44.0556 30.8473 44.0229C30.8288 43.9916 30.8035 43.9664 30.7722 43.9477C30.707 43.9104 30.6241 43.9112 30.5626 43.9468L30.5349 43.9592C30.5054 43.9767 30.4817 44.0002 30.4643 44.0295C30.4467 44.0599 30.4376 44.0932 30.4375 44.1288C30.4376 44.1641 30.4467 44.1977 30.4645 44.2282C30.4817 44.2575 30.5055 44.2813 30.5349 44.2985Z" fill="#FC7DA8"/>
<path d="M28.678 44.7826C28.7173 44.7369 28.739 44.6755 28.739 44.6098C28.739 44.4843 28.6549 44.3574 28.4945 44.3574C28.3339 44.3574 28.25 44.4843 28.25 44.61C28.25 44.7352 28.3339 44.8624 28.4945 44.8624C28.5699 44.8624 28.6333 44.8348 28.678 44.7826Z" fill="#FC7DA8"/>
<path d="M15.3788 50.0547C15.1656 50.0547 15.1652 50.3906 15.3788 50.3906C15.5921 50.3906 15.5924 50.0547 15.3788 50.0547Z" fill="#E6AEDB"/>
<path d="M15.65 51.916C15.3253 51.916 15.3247 52.4273 15.65 52.4273C15.9747 52.4273 15.9753 51.916 15.65 51.916Z" fill="#E6AEDB"/>
<path d="M18.0011 50.7896C18.0404 50.7526 18.0683 50.7087 18.0845 50.6581C18.1097 50.6093 18.1213 50.5568 18.1192 50.5005C18.1144 50.4644 18.1096 50.4282 18.1048 50.392C18.0857 50.3228 18.0511 50.2628 18.0011 50.2117C17.9739 50.1905 17.9467 50.1692 17.9195 50.1477C17.8566 50.111 17.7888 50.0923 17.716 50.092C17.6605 50.09 17.6087 50.1018 17.5606 50.1273C17.5106 50.1437 17.4674 50.1718 17.4308 50.2117C17.3915 50.2488 17.3637 50.2924 17.3474 50.3432C17.3222 50.392 17.3106 50.4443 17.3128 50.5005C17.3175 50.5367 17.3223 50.5732 17.3271 50.6093C17.3463 50.6785 17.3808 50.7385 17.4308 50.7896C17.4581 50.8109 17.4852 50.8321 17.5125 50.8533C17.5754 50.8904 17.6432 50.909 17.716 50.9093C17.7714 50.9113 17.8232 50.8996 17.8714 50.874C17.9214 50.8576 17.9646 50.8295 18.0011 50.7896Z" fill="#E6AEDB"/>
<path d="M17.0766 48.3633C16.4853 48.3633 16.4844 49.2943 17.0766 49.2943C17.6679 49.2943 17.6689 48.3633 17.0766 48.3633Z" fill="#E6AEDB"/>
<path d="M13.4543 51.4551C13.1926 51.4551 13.1921 51.8673 13.4543 51.8673C13.716 51.8673 13.7164 51.4551 13.4543 51.4551Z" fill="#E6AEDB"/>
<path d="M14.2784 53.6062L14.238 53.5746C14.2069 53.5562 14.1732 53.547 14.1372 53.547C14.1098 53.5459 14.0841 53.5516 14.0604 53.5642C14.0356 53.5726 14.0142 53.5863 13.9961 53.6062C13.9767 53.6245 13.9629 53.6461 13.9548 53.6713C13.9424 53.6954 13.9366 53.7213 13.9376 53.7491C13.94 53.7672 13.9424 53.785 13.9447 53.8028C13.9542 53.8373 13.9714 53.8668 13.9961 53.8921L14.0365 53.9237C14.0676 53.942 14.1012 53.9512 14.1372 53.9512C14.1647 53.9524 14.1904 53.9466 14.2141 53.934C14.2389 53.9257 14.2603 53.9119 14.2784 53.8921C14.2979 53.8737 14.3116 53.8522 14.3197 53.8269C14.3322 53.8031 14.3378 53.777 14.3368 53.7491L14.3297 53.6954C14.3202 53.661 14.3031 53.6314 14.2784 53.6062Z" fill="#E6AEDB"/>
<path d="M19.2296 53.7383C18.8613 53.7383 18.8606 54.3185 19.2296 54.3185C19.5979 54.3182 19.5986 53.7383 19.2296 53.7383Z" fill="#E6AEDB"/>
<path d="M18.271 56.8555C17.733 56.8555 17.7321 57.7026 18.271 57.7026C18.809 57.7026 18.8099 56.8555 18.271 56.8555Z" fill="#E6AEDB"/>
<path d="M20.7866 55.2188C20.5297 55.2188 20.5292 55.6231 20.7866 55.6231C21.0434 55.6231 21.0439 55.2188 20.7866 55.2188Z" fill="#E6AEDB"/>
<path d="M19.1569 56.001L19.1896 56.0265C19.2149 56.0415 19.2421 56.0489 19.2714 56.0489C19.2936 56.0498 19.3145 56.0452 19.3338 56.0349C19.3538 56.0283 19.3712 56.0171 19.3859 56.001C19.4017 55.9861 19.4128 55.9685 19.4193 55.9482C19.4295 55.9286 19.4341 55.9077 19.4333 55.885L19.4275 55.8414C19.4198 55.8135 19.4059 55.7894 19.3859 55.769L19.3531 55.7432C19.3279 55.7283 19.3006 55.7208 19.2714 55.7208C19.2491 55.7199 19.2283 55.7248 19.209 55.7349C19.1889 55.7415 19.1716 55.753 19.1569 55.7687C19.1411 55.7837 19.1299 55.8012 19.1234 55.8216C19.1132 55.8414 19.1086 55.8623 19.1095 55.885L19.1152 55.9286C19.1229 55.9562 19.1368 55.9806 19.1569 56.001Z" fill="#E6AEDB"/>
<path d="M20.8772 58.248C20.6349 58.248 20.6345 58.6296 20.8772 58.6296C21.1195 58.6296 21.12 58.248 20.8772 58.248Z" fill="#E6AEDB"/>
<path d="M22.8918 58.0711C22.8748 58.0579 22.8577 58.0447 22.8407 58.0312C22.8014 58.0083 22.7589 57.9965 22.7134 57.9962C22.6787 57.9951 22.6462 58.0022 22.6162 58.0183C22.5849 58.0287 22.5578 58.0465 22.535 58.0711C22.5104 58.0944 22.493 58.1217 22.4828 58.1535C22.467 58.184 22.4597 58.2167 22.4611 58.252C22.4641 58.2747 22.4671 58.2974 22.4701 58.32C22.4821 58.3634 22.5037 58.401 22.535 58.4329C22.552 58.4461 22.569 58.4593 22.586 58.4728C22.6254 58.4957 22.6679 58.5075 22.7134 58.5075C22.7482 58.5089 22.7805 58.5018 22.8106 58.4857C22.8419 58.4753 22.8689 58.4575 22.8918 58.4329C22.9164 58.4096 22.9338 58.382 22.944 58.3505C22.9598 58.32 22.967 58.287 22.9657 58.252C22.9627 58.2293 22.9597 58.2066 22.9567 58.184C22.9447 58.1406 22.923 58.103 22.8918 58.0711Z" fill="#E6AEDB"/>
<path d="M22.3379 60.5938C21.9502 60.5938 21.9495 61.2043 22.3379 61.2043C22.7256 61.2043 22.7263 60.5938 22.3379 60.5938Z" fill="#E6AEDB"/>
<path d="M19.4155 59.332C19.0181 59.332 19.0174 59.9579 19.4155 59.9579C19.8129 59.9579 19.8136 59.332 19.4155 59.332Z" fill="#E6AEDB"/>
<path d="M27.7725 52.9991C27.5901 52.8909 27.3581 52.8909 27.1757 52.9991C27.0868 53.0522 27.0162 53.124 26.9636 53.2142C26.9101 53.3075 26.8832 53.4082 26.8828 53.5164L26.8846 53.546L26.8854 53.5598C26.8858 53.6629 26.9114 53.7587 26.9623 53.8477C26.9821 53.8868 27.0084 53.9198 27.0383 53.9491C27.073 53.9913 27.1119 54.0295 27.16 54.0584C27.2079 54.0863 27.2591 54.1021 27.3119 54.1118C27.3554 54.1259 27.4006 54.1337 27.4486 54.1302C27.5503 54.1299 27.645 54.1041 27.7329 54.0524L27.7455 54.0464L27.7725 54.0338C27.8613 53.9804 27.932 53.9089 27.9846 53.8187C28.0381 53.7254 28.065 53.6244 28.0654 53.5164C28.0654 53.3052 27.9523 53.1056 27.7725 52.9991Z" fill="#E6AEDB"/>
<path d="M25.5984 55.293C25.2591 55.293 25.2586 55.8272 25.5984 55.8272C25.9376 55.8272 25.9382 55.293 25.5984 55.293Z" fill="#E6AEDB"/>
<path d="M27.7039 57.3572L27.7034 57.3561L27.7024 57.3544L27.7005 57.3509L27.6995 57.3492C27.683 57.3277 27.6661 57.3053 27.6496 57.2835C27.6282 57.2668 27.6069 57.2502 27.5856 57.2335C27.5604 57.2226 27.5352 57.212 27.51 57.2011C27.468 57.1879 27.4259 57.1859 27.3839 57.1953C27.3553 57.1953 27.3287 57.2028 27.304 57.2172C27.2772 57.2249 27.254 57.2387 27.2342 57.2585C27.2105 57.2728 27.1916 57.2918 27.1775 57.3159C27.1579 57.336 27.1443 57.3595 27.1368 57.3868C27.117 57.425 27.1079 57.466 27.1096 57.5103L27.1209 57.5955C27.1315 57.6208 27.1422 57.6463 27.1528 57.6719C27.1693 57.6934 27.1857 57.7152 27.2022 57.7368C27.2236 57.7534 27.2449 57.7703 27.2662 57.787C27.2915 57.7976 27.3166 57.8085 27.3418 57.8191L27.4259 57.8306C27.4695 57.8324 27.5101 57.8232 27.5478 57.8031C27.5746 57.7956 27.5979 57.7818 27.6176 57.7617C27.652 57.7393 27.6791 57.7092 27.6991 57.6719L27.7029 57.665L27.704 57.663L27.7342 57.5906C27.7377 57.5637 27.7413 57.537 27.7448 57.5103C27.7413 57.4833 27.7377 57.4566 27.7342 57.4299L27.7039 57.3572Z" fill="#E6AEDB"/>
<path d="M29.6746 55.0508C29.442 55.0508 29.4416 55.4171 29.6746 55.4171C29.9073 55.4171 29.9077 55.0508 29.6746 55.0508Z" fill="#E6AEDB"/>
<path d="M27.7495 55.2383C27.4588 55.2383 27.4583 55.6962 27.7495 55.6962C28.0403 55.6962 28.0408 55.2383 27.7495 55.2383Z" fill="#E6AEDB"/>
<path d="M29.5527 52.209L29.5811 52.2079C29.9202 52.1926 29.9208 51.6888 29.5811 51.6736L29.5527 51.6722C29.2119 51.657 29.2113 52.2242 29.5527 52.209Z" fill="#E6AEDB"/>
<path d="M31.5026 54.207C31.1973 54.207 31.1968 54.6879 31.5026 54.6879C31.808 54.6879 31.8085 54.207 31.5026 54.207Z" fill="#E6AEDB"/>
<path d="M29.4889 58.207C29.0769 58.207 29.0763 58.8555 29.4889 58.8555C29.9008 58.8555 29.9015 58.207 29.4889 58.207Z" fill="#E6AEDB"/>
<path d="M32.3276 55.4238C32.0369 55.4238 32.0363 55.8817 32.3276 55.8817C32.6185 55.8817 32.6189 55.4238 32.3276 55.4238Z" fill="#E6AEDB"/>
<path d="M16.9569 39.748C16.7437 39.748 16.7434 40.0838 16.9569 40.0838C17.1702 40.0838 17.1705 39.748 16.9569 39.748Z" fill="#E6AEDB"/>
<path d="M17.2359 41.6094C16.9112 41.6094 16.9107 42.1207 17.2359 42.1207C17.5606 42.1207 17.5612 41.6094 17.2359 41.6094Z" fill="#E6AEDB"/>
<path d="M19.5792 40.4829C19.6186 40.4459 19.6464 40.4021 19.6627 40.3514C19.6878 40.3027 19.6995 40.2502 19.6973 40.194C19.6926 40.1578 19.6877 40.1216 19.6829 40.0854C19.6638 40.0161 19.6292 39.9561 19.5792 39.9051C19.552 39.8838 19.5248 39.8625 19.4977 39.8412C19.4347 39.8042 19.3669 39.7856 19.2941 39.7854C19.2386 39.7833 19.1868 39.795 19.1388 39.8206C19.0887 39.8371 19.0455 39.8652 19.009 39.9051C18.9696 39.9421 18.9419 39.9859 18.9256 40.0366C18.9003 40.0852 18.8887 40.1377 18.8909 40.194C18.8956 40.2302 18.9004 40.2664 18.9052 40.3026C18.9244 40.3718 18.959 40.4319 19.0089 40.4829C19.0362 40.5042 19.0633 40.5255 19.0906 40.5468C19.1535 40.5837 19.2213 40.6023 19.2941 40.6025C19.3496 40.6047 19.4013 40.5929 19.4495 40.5674C19.4995 40.5509 19.5427 40.5227 19.5792 40.4829Z" fill="#E6AEDB"/>
<path d="M18.647 38.0586C18.0557 38.0586 18.0547 38.9896 18.647 38.9896C19.2382 38.9896 19.2392 38.0586 18.647 38.0586Z" fill="#E6AEDB"/>
<path d="M15.0324 41.1484C14.7707 41.1484 14.7702 41.5605 15.0324 41.5605C15.2941 41.5605 15.2945 41.1484 15.0324 41.1484Z" fill="#E6AEDB"/>
<path d="M15.8643 43.2995L15.8239 43.2679C15.7928 43.2496 15.7592 43.2404 15.7232 43.2404C15.6957 43.2392 15.6701 43.245 15.6463 43.2576C15.6216 43.2659 15.6001 43.2797 15.582 43.2995C15.5626 43.3179 15.5488 43.3394 15.5408 43.3647C15.5283 43.3888 15.5225 43.4146 15.5236 43.4425C15.526 43.4606 15.5283 43.4784 15.5307 43.4962C15.5402 43.5306 15.5573 43.5602 15.582 43.5854L15.6224 43.617C15.6535 43.6354 15.6871 43.6446 15.7232 43.6446C15.7507 43.6457 15.7763 43.64 15.8001 43.6274C15.8248 43.619 15.8462 43.6052 15.8643 43.5854C15.8838 43.5671 15.8976 43.5455 15.9056 43.5203C15.9181 43.4964 15.9238 43.4703 15.9227 43.4425L15.9157 43.3888C15.9062 43.3543 15.8891 43.3248 15.8643 43.2995Z" fill="#E6AEDB"/>
<path d="M20.8077 43.4316C20.4394 43.4316 20.4388 44.0118 20.8077 44.0118C21.176 44.0115 21.1767 43.4316 20.8077 43.4316Z" fill="#E6AEDB"/>
<path d="M19.8413 46.5488C19.3033 46.5488 19.3024 47.396 19.8413 47.396C20.3793 47.396 20.3802 46.5488 19.8413 46.5488Z" fill="#E6AEDB"/>
<path d="M22.3647 44.9121C22.1078 44.9121 22.1074 45.3166 22.3647 45.3166C22.6216 45.3166 22.622 44.9121 22.3647 44.9121Z" fill="#E6AEDB"/>
<path d="M20.735 45.6943L20.7678 45.7199C20.793 45.7348 20.8202 45.7423 20.8495 45.7423C20.8718 45.7431 20.8926 45.7386 20.9119 45.7282C20.932 45.7216 20.9493 45.7104 20.964 45.6943C20.9798 45.6794 20.9909 45.6619 20.9975 45.6415C21.0076 45.622 21.0123 45.601 21.0115 45.5784L21.0056 45.5347C20.9979 45.5069 20.984 45.4828 20.964 45.4624L20.9312 45.4365C20.906 45.4216 20.8787 45.4142 20.8495 45.4142C20.8272 45.4133 20.8064 45.4182 20.7871 45.4282C20.767 45.4348 20.7497 45.4463 20.735 45.4621C20.7193 45.477 20.708 45.4945 20.7015 45.5149C20.6913 45.5347 20.6867 45.5557 20.6876 45.5784L20.6933 45.622C20.7011 45.6496 20.7149 45.674 20.735 45.6943Z" fill="#E6AEDB"/>
<path d="M22.4553 47.9414C22.213 47.9414 22.2126 48.3229 22.4553 48.3229C22.6977 48.3229 22.6981 47.9414 22.4553 47.9414Z" fill="#E6AEDB"/>
<path d="M24.4621 47.7645C24.4451 47.7513 24.428 47.7381 24.411 47.7246C24.3717 47.7016 24.3293 47.6899 24.2837 47.6896C24.249 47.6884 24.2165 47.6956 24.1865 47.7117C24.1552 47.722 24.1281 47.7398 24.1053 47.7645C24.0807 47.7878 24.0633 47.815 24.0531 47.8469C24.0373 47.8773 24.0301 47.91 24.0314 47.9454C24.0344 47.968 24.0374 47.9907 24.0404 48.0134C24.0524 48.0567 24.074 48.0944 24.1053 48.1262C24.1223 48.1394 24.1394 48.1526 24.1563 48.1661C24.1957 48.1891 24.2382 48.2009 24.2837 48.2009C24.3185 48.2023 24.3508 48.1951 24.3809 48.179C24.4122 48.1687 24.4392 48.1509 24.4621 48.1262C24.4867 48.103 24.5041 48.0754 24.5143 48.0438C24.5301 48.0134 24.5373 47.9804 24.536 47.9454C24.5331 47.9227 24.53 47.9 24.527 47.8773C24.515 47.834 24.4934 47.7964 24.4621 47.7645Z" fill="#E6AEDB"/>
<path d="M23.9239 50.2871C23.5361 50.2871 23.5355 50.8977 23.9239 50.8977C24.3116 50.8977 24.3122 50.2871 23.9239 50.2871Z" fill="#E6AEDB"/>
<path d="M20.9937 49.0254C20.5962 49.0254 20.5955 49.6512 20.9937 49.6512C21.391 49.6512 21.3917 49.0254 20.9937 49.0254Z" fill="#E6AEDB"/>
<path d="M29.3506 42.6924C29.1682 42.5843 28.9362 42.5843 28.7538 42.6924C28.6649 42.7457 28.5943 42.8173 28.5417 42.9073C28.4882 43.0008 28.4613 43.1016 28.4609 43.2097L28.4627 43.2393L28.4636 43.2531C28.4639 43.3562 28.4895 43.452 28.5404 43.541C28.5602 43.5801 28.5865 43.6131 28.6164 43.6424C28.6512 43.6846 28.69 43.7227 28.7381 43.7517C28.786 43.7796 28.8372 43.7954 28.89 43.8051C28.9336 43.8192 28.9788 43.827 29.0267 43.8235C29.1284 43.8232 29.2231 43.7974 29.311 43.7457L29.3236 43.7397L29.3506 43.7271C29.4395 43.6737 29.5102 43.6022 29.5628 43.512C29.6162 43.4187 29.6432 43.3177 29.6435 43.2097C29.6435 42.9985 29.5304 42.7991 29.3506 42.6924Z" fill="#E6AEDB"/>
<path d="M27.1765 44.9863C26.8373 44.9863 26.8367 45.5206 27.1765 45.5206C27.5157 45.5206 27.5163 44.9863 27.1765 44.9863Z" fill="#E6AEDB"/>
<path d="M29.2899 47.0506L29.2893 47.0495L29.2883 47.0477L29.2865 47.0443L29.2855 47.0426L29.285 47.0417C29.2685 47.0202 29.252 46.9986 29.2355 46.9768C29.2142 46.9602 29.1929 46.9435 29.1715 46.9269C29.1463 46.916 29.1211 46.9053 29.096 46.8944C29.0539 46.8812 29.0118 46.8792 28.9698 46.8887C28.9413 46.8887 28.9147 46.8962 28.8899 46.9105C28.8632 46.9183 28.8399 46.932 28.8202 46.9519C28.7964 46.9662 28.7775 46.9852 28.7635 47.0093C28.7438 47.0294 28.7302 47.0529 28.7227 47.0802C28.7029 47.1184 28.6938 47.1594 28.6955 47.2036L28.7068 47.2889C28.7174 47.3141 28.7281 47.3397 28.7387 47.3652C28.7552 47.3868 28.7717 47.4086 28.7881 47.4301C28.8095 47.4468 28.8309 47.4637 28.8522 47.4804C28.8774 47.491 28.9026 47.5019 28.9278 47.5125L29.0118 47.524C29.0554 47.5257 29.096 47.5165 29.1337 47.4964C29.1605 47.489 29.1838 47.4752 29.2036 47.4551C29.238 47.4327 29.2651 47.4026 29.285 47.3652L29.2889 47.3583L29.2899 47.3563L29.3201 47.284C29.3237 47.257 29.3273 47.2303 29.3308 47.2036C29.3273 47.1766 29.3237 47.1499 29.3201 47.1232L29.2899 47.0506Z" fill="#E6AEDB"/>
<path d="M31.2528 44.7461C31.0201 44.7461 31.0197 45.1124 31.2528 45.1124C31.4854 45.1124 31.4858 44.7461 31.2528 44.7461Z" fill="#E6AEDB"/>
<path d="M29.3354 44.9316C29.0447 44.9316 29.0442 45.3895 29.3354 45.3895C29.6262 45.3895 29.6268 44.9316 29.3354 44.9316Z" fill="#E6AEDB"/>
<path d="M31.1387 41.9023L31.1671 41.901C31.5062 41.8858 31.5067 41.382 31.1671 41.3668L31.1387 41.3655C30.7978 41.3502 30.7973 41.9176 31.1387 41.9023Z" fill="#E6AEDB"/>
<path d="M33.0886 43.9004C32.7831 43.9004 32.7828 44.3812 33.0886 44.3812C33.3937 44.3812 33.3943 43.9004 33.0886 43.9004Z" fill="#E6AEDB"/>
<path d="M31.067 47.9023C30.655 47.9023 30.6544 48.5508 31.067 48.5508C31.479 48.5508 31.4796 47.9023 31.067 47.9023Z" fill="#E6AEDB"/>
<path d="M33.9136 45.1172C33.6228 45.1172 33.6222 45.5751 33.9136 45.5751C34.2045 45.5751 34.2047 45.1172 33.9136 45.1172Z" fill="#E6AEDB"/>
<path d="M14.8799 24.5325C14.8547 25.0746 14.7659 25.6145 14.614 26.1377L14.1059 25.9986L13.4636 25.8245L8.45993 24.4629L8.16076 24.3815L7.60432 24.2299L7.55864 24.2186L7.44375 24.1865L7.44643 24.2273L7.38155 24.2325H7.37879L7.3965 24.4263L7.56796 26.2218L7.84507 29.1206L8.00832 30.8335L8.06018 31.3787C7.80272 31.3925 7.36605 31.3754 7.1097 31.3635C3.03075 31.1736 -0.175701 27.7773 0.00747453 23.8403C0.19065 19.9033 3.69867 16.8185 7.77762 17.0083C11.8566 17.1981 15.0631 20.5956 14.8799 24.5325Z" fill="#FEEE78"/>
<path d="M14.3482 24.5083C14.3247 25.0125 14.2422 25.514 14.1014 25.9989L13.4592 25.8249L8.45547 24.4632L8.1563 24.3818L7.59985 24.2303L7.55417 24.2189L7.43929 24.1868L7.44196 24.2276L7.37709 24.2329H7.37432L7.39204 24.4267L7.56349 26.2222L7.80656 30.2095L7.84587 30.8533C7.60788 30.8662 7.36768 30.8661 7.12895 30.8551C3.33855 30.6787 0.360133 27.5239 0.530389 23.8652C0.700645 20.2057 3.95914 17.3411 7.74962 17.5175C11.5401 17.6938 14.5184 20.8488 14.3482 24.5083Z" fill="#FEFBEE"/>
<path d="M13.6881 24.4776C13.6669 24.933 13.5923 25.3849 13.4656 25.8253C11.0517 25.4271 7.91515 24.9386 7.44573 24.1872L7.4484 24.228L7.38353 24.2333H7.38076L7.39848 24.4271L7.56993 26.2226L7.813 30.2099C7.76483 30.2132 7.71666 30.2156 7.66858 30.217C7.50109 30.2221 7.33213 30.2217 7.16529 30.2138C5.73098 30.1471 4.42578 29.6078 3.40378 28.7612C3.40322 28.7606 3.40264 28.7602 3.40202 28.7602C3.3282 28.6994 3.25714 28.6371 3.18627 28.5727L3.18535 28.5717C2.10485 27.5912 1.38119 26.2485 1.22662 24.766C1.21619 24.6732 1.20936 24.5804 1.20457 24.486C1.20124 24.4379 1.19986 24.3888 1.19847 24.3398C1.19847 24.3392 1.19847 24.3385 1.19847 24.3379C1.19331 24.1917 1.1946 24.0449 1.20143 23.8965C1.2555 22.7341 1.65461 21.6616 2.29863 20.765V20.7632C2.34025 20.705 2.38261 20.6479 2.4258 20.5927C2.45237 20.5579 2.47886 20.524 2.50626 20.4901C2.56597 20.4181 2.62752 20.3461 2.6899 20.2751C3.24173 19.6523 3.92156 19.1389 4.68684 18.7735C4.78032 18.729 4.87564 18.6862 4.9717 18.6473C5.37118 18.4793 5.79189 18.352 6.22809 18.2697C6.32323 18.2501 6.41819 18.2342 6.5149 18.2202C6.60976 18.2062 6.70638 18.194 6.8029 18.1847C7.10632 18.1554 7.41435 18.1467 7.72598 18.1612C8.40903 18.1929 9.06311 18.3314 9.67133 18.5611C9.74211 18.5876 9.81206 18.6148 9.88182 18.6439C10.3304 18.8311 10.7536 19.0678 11.1415 19.3464C11.2184 19.4017 11.2961 19.4598 11.3718 19.5197C12.858 20.6937 13.7799 22.5041 13.6881 24.4776Z" fill="#FEEE78"/>
<path d="M8.00742 30.8325L7.98324 30.8351L7.84944 30.852L7.66626 30.2217L7.66571 30.2153L7.46389 28.12L7.43418 27.8054L7.33203 26.7447L7.30757 26.4951L7.22101 25.5968L7.20634 25.4364L7.11157 24.4536L7.10465 24.3849L7.09302 24.2569L7.0849 24.1744L7.07493 24.0704L7.07364 24.0593L7.06626 23.9785L7.04679 23.7818L6.51212 18.2187L6.49219 18.0127L6.78148 17.9883L6.80012 18.1832L7.3323 23.7599L7.35103 23.953L7.3586 24.03L7.37032 24.1543L7.37789 24.2314L7.39561 24.4253L7.56706 26.2208L7.84418 29.1196L8.00742 30.8325Z" fill="#FEFBEE"/>
<path d="M3.28563 28.8994L11.3956 19.494L11.1725 19.3145L3.0625 28.7198L3.28563 28.8994Z" fill="#FEFBEE"/>
<path d="M13.6729 23.6875L12.1739 23.8185L12.0125 23.8331L9.73075 24.0299L9.52765 24.0482L7.58636 24.2156L7.55849 24.2189L7.44627 24.2276L7.3814 24.2328L7.37863 24.2327L7.29881 24.2401L7.26541 24.2432L7.17912 24.2512L7.09377 24.2583L6.88974 24.2755L6.80816 24.2828L6.28032 24.3285L5.93344 24.3586L4.03478 24.5224L3.90494 24.5339L1.2244 24.7657L0.916463 24.792L0.890625 24.5137L1.20235 24.4858L1.28761 24.4786L1.49635 24.4607L3.82531 24.2595L4.05721 24.2389L6.86297 23.9971L7.067 23.9799L7.15052 23.9727L7.27113 23.9617L7.35178 23.9543L7.35556 23.9536L7.5595 23.9372L7.71444 23.924L8.03631 23.8956L13.6454 23.4082L13.6729 23.6875Z" fill="#FEFBEE"/>
<path d="M7.60638 24.2316L7.5608 24.2201L7.44858 24.2288L7.38371 24.2341L7.38094 24.234L7.39866 24.4279L7.25267 24.3102L7.24547 24.3044L7.18143 24.2524L7.08795 24.1769L7.0229 24.1249L6.98728 24.0965L6.86528 23.9984L5.53941 22.9316L5.28028 22.7228L2.50654 20.4912L2.25 20.2852L2.43465 20.0703L2.69018 20.2762L5.48441 22.5245L5.5191 22.5528L6.54941 23.3814L6.80945 23.5903L7.04901 23.7834L7.04984 23.7844L7.20755 23.91L7.27344 23.963L7.36166 24.0326L7.36608 24.0365L7.43096 24.0903L7.58866 24.2168L7.60638 24.2316Z" fill="#FEFBEE"/>
<path d="M6.10029 18.471C6.12806 18.6047 6.3261 18.7548 6.3261 18.7548C6.3261 18.7548 6.44892 18.5435 6.42114 18.4098C6.39337 18.276 6.31401 18.2536 6.22542 18.2705C6.13683 18.2874 6.07251 18.3372 6.10029 18.471Z" fill="#FEFBEE" fill-opacity="0.67"/>
<path d="M12.5004 22.3308C12.3673 22.376 12.2422 22.586 12.2422 22.586C12.2422 22.586 12.4767 22.674 12.6097 22.6289C12.7428 22.5838 12.7543 22.5048 12.7241 22.4225C12.6939 22.3401 12.6335 22.2857 12.5004 22.3308Z" fill="#FEFBEE" fill-opacity="0.67"/>
<path d="M9.66492 24.1528C9.52871 24.1434 9.33594 24.2939 9.33594 24.2939C9.33594 24.2939 9.51127 24.4697 9.64757 24.4791C9.78386 24.4885 9.82447 24.4179 9.82927 24.3278C9.83406 24.2378 9.80112 24.1622 9.66492 24.1528Z" fill="#FEFBEE" fill-opacity="0.67"/>
<path d="M4.70409 21.2508C4.79453 21.3558 5.04239 21.3968 5.04239 21.3968C5.04239 21.3968 5.0458 21.1542 4.95537 21.0493C4.86494 20.9444 4.78419 20.9611 4.7148 21.0168C4.6454 21.0725 4.61357 21.1459 4.70409 21.2508Z" fill="#FEFBEE" fill-opacity="0.67"/>
<path d="M7.23438 18.9278C7.23547 19.0641 7.40057 19.2475 7.40057 19.2475C7.40057 19.2475 7.56271 19.0627 7.56169 18.9264C7.56058 18.7901 7.48704 18.7535 7.3967 18.7539C7.30635 18.7543 7.23327 18.7915 7.23438 18.9278Z" fill="#FEFBEE" fill-opacity="0.67"/>
<path d="M5.40074 19.1716C5.4491 19.2999 5.66817 19.4195 5.66817 19.4195C5.66817 19.4195 5.75657 19.1927 5.70822 19.0644C5.65986 18.9361 5.57792 18.9255 5.49302 18.9551C5.40812 18.9848 5.35239 19.0435 5.40074 19.1716Z" fill="#FEFBEE" fill-opacity="0.67"/>
<path d="M12.0761 24.1526C11.951 24.0977 11.7188 24.1742 11.7188 24.1742C11.7188 24.1742 11.8244 24.3989 11.9494 24.4539C12.0745 24.5088 12.1366 24.4562 12.1716 24.3729C12.2065 24.2898 12.2012 24.2075 12.0761 24.1526Z" fill="#FEFBEE" fill-opacity="0.67"/>
<path d="M4.13008 20.3353C4.21728 20.4428 4.46376 20.4909 4.46376 20.4909C4.46376 20.4909 4.47465 20.2485 4.38744 20.141C4.30024 20.0335 4.21903 20.048 4.14798 20.1016C4.07692 20.1552 4.04287 20.2279 4.13008 20.3353Z" fill="#FEFBEE" fill-opacity="0.67"/>
<path d="M4.84018 27.6263C4.92803 27.5198 4.91862 27.2773 4.91862 27.2773C4.91862 27.2773 4.67186 27.3225 4.58392 27.4289C4.49607 27.5354 4.52966 27.6083 4.60044 27.6628C4.67122 27.7173 4.75233 27.7327 4.84018 27.6263Z" fill="#FEFBEE" fill-opacity="0.67"/>
<path d="M5.50087 20.9885C5.56777 21.1087 5.80235 21.1968 5.80235 21.1968C5.80235 21.1968 5.85596 20.9599 5.78906 20.8396C5.72216 20.7194 5.63957 20.7202 5.55993 20.7613C5.48029 20.8024 5.43397 20.8682 5.50087 20.9885Z" fill="#FEFBEE" fill-opacity="0.67"/>
<path d="M3.22262 27.5664C3.33363 27.4825 3.38245 27.2446 3.38245 27.2446C3.38245 27.2446 3.13135 27.2336 3.02034 27.3174C2.90933 27.4013 2.92465 27.4798 2.98048 27.5485C3.03631 27.6172 3.11161 27.6503 3.22262 27.5664Z" fill="#FEFBEE" fill-opacity="0.67"/>
<path d="M11.6157 20.049C11.5146 20.1439 11.4922 20.3855 11.4922 20.3855C11.4922 20.3855 11.743 20.3708 11.8441 20.276C11.9453 20.1813 11.9215 20.1048 11.8584 20.0421C11.7953 19.9794 11.7169 19.9543 11.6157 20.049Z" fill="#FEFBEE" fill-opacity="0.67"/>
<path d="M3.09475 21.9698C3.21711 22.0381 3.46414 21.9939 3.46414 21.9939C3.46414 21.9939 3.38035 21.7648 3.25799 21.6964C3.13563 21.6281 3.06596 21.6708 3.02092 21.7463C2.97589 21.8218 2.97239 21.9014 3.09475 21.9698Z" fill="#FEFBEE" fill-opacity="0.67"/>
<path d="M4.36017 25.4843C4.49167 25.435 4.60951 25.2211 4.60951 25.2211C4.60951 25.2211 4.37216 25.1405 4.24066 25.1898C4.10926 25.2392 4.1004 25.3184 4.13344 25.3997C4.16638 25.481 4.22867 25.5336 4.36017 25.4843Z" fill="#FEFBEE" fill-opacity="0.67"/>
<path d="M6.85873 29.7352C6.87709 29.6001 6.73969 29.3965 6.73969 29.3965C6.73969 29.3965 6.55264 29.558 6.53427 29.6931C6.51591 29.8282 6.58355 29.8741 6.67316 29.8858C6.76276 29.8974 6.84037 29.8702 6.85873 29.7352Z" fill="#FEFBEE" fill-opacity="0.67"/>
<path d="M7.16409 19.7605C7.16751 19.8968 7.33583 20.0776 7.33583 20.0776C7.33583 20.0776 7.49473 19.8901 7.49132 19.7538C7.4879 19.6175 7.41371 19.5822 7.32337 19.5841C7.23302 19.5859 7.16059 19.6242 7.16409 19.7605Z" fill="#FEFBEE" fill-opacity="0.67"/>
<path d="M6.37727 27.5596C6.43347 27.4301 6.36407 27.1934 6.36407 27.1934C6.36407 27.1934 6.14269 27.3064 6.08649 27.4359C6.0303 27.5653 6.08013 27.6281 6.16041 27.6622C6.24069 27.6964 6.32098 27.6891 6.37727 27.5596Z" fill="#FEFBEE" fill-opacity="0.67"/>
<path d="M7.72785 20.4014C7.7117 20.5367 7.85234 20.7382 7.85234 20.7382C7.85234 20.7382 8.03671 20.5739 8.05296 20.4386C8.0691 20.3032 8.00072 20.2582 7.91094 20.248C7.82115 20.2378 7.744 20.266 7.72785 20.4014Z" fill="#FEFBEE" fill-opacity="0.67"/>
<path d="M12.0402 20.976C11.9239 21.0529 11.8594 21.2872 11.8594 21.2872C11.8594 21.2872 12.1093 21.3138 12.2256 21.237C12.342 21.1601 12.3319 21.0809 12.2807 21.0089C12.2295 20.9368 12.1565 20.8992 12.0402 20.976Z" fill="#FEFBEE" fill-opacity="0.67"/>
<path d="M12.0129 24.8356C11.8972 24.7631 11.6562 24.805 11.6562 24.805C11.6562 24.805 11.7281 25.0427 11.8439 25.1152C11.9596 25.1876 12.0287 25.1446 12.0754 25.0675C12.1221 24.9903 12.1286 24.908 12.0129 24.8356Z" fill="#FEFBEE" fill-opacity="0.67"/>
<path d="M7.32349 27.9867C7.315 27.8458 7.14594 27.666 7.14594 27.666C7.14594 27.666 6.99968 27.867 7.00817 28.0079C7.01657 28.1488 7.08947 28.1821 7.17658 28.1763C7.26369 28.1705 7.33198 28.1276 7.32349 27.9867Z" fill="#FEFBEE" fill-opacity="0.67"/>
<path d="M6.11038 24.5299C5.96947 24.5379 5.78906 24.7063 5.78906 24.7063C5.78906 24.7063 5.98949 24.8533 6.1305 24.8453C6.27141 24.8374 6.305 24.7647 6.29946 24.6776C6.29393 24.5905 6.25129 24.522 6.11038 24.5299Z" fill="#FEFBEE" fill-opacity="0.67"/>
<path d="M5.6874 25.5317C5.77147 25.4183 5.75744 25.1719 5.75744 25.1719C5.75744 25.1719 5.51622 25.2319 5.43215 25.3453C5.34809 25.4587 5.38251 25.531 5.45292 25.5825C5.52342 25.634 5.60333 25.6451 5.6874 25.5317Z" fill="#FEFBEE" fill-opacity="0.67"/>
<path d="M6.41571 28.6322C6.47504 28.5041 6.41137 28.2656 6.41137 28.2656C6.41137 28.2656 6.18732 28.3733 6.12798 28.5014C6.06864 28.6295 6.117 28.6934 6.19645 28.7295C6.2759 28.7656 6.35637 28.7602 6.41571 28.6322Z" fill="#FEFBEE" fill-opacity="0.67"/>
<path d="M7.28906 21.0725C7.2886 21.2088 7.45157 21.394 7.45157 21.394C7.45157 21.394 7.61583 21.2109 7.61638 21.0746C7.61684 20.9383 7.54376 20.901 7.45332 20.9004C7.36298 20.8998 7.28952 20.9362 7.28906 21.0725Z" fill="#FEFBEE" fill-opacity="0.67"/>
<path d="M13.2887 23.9083C13.1475 23.9112 12.9609 24.0731 12.9609 24.0731C12.9609 24.0731 13.1557 24.227 13.2969 24.2242C13.4381 24.2212 13.4744 24.1497 13.4722 24.0625C13.47 23.9753 13.4298 23.9053 13.2887 23.9083Z" fill="#FEFBEE" fill-opacity="0.67"/>
<path d="M4.73674 23.7023C4.87248 23.7171 5.07107 23.5744 5.07107 23.5744C5.07107 23.5744 4.90275 23.3918 4.76701 23.377C4.63126 23.3622 4.5878 23.431 4.5794 23.5209C4.5711 23.6107 4.601 23.6875 4.73674 23.7023Z" fill="#FEFBEE" fill-opacity="0.67"/>
<path d="M1.97546 26.6128C2.10493 26.5588 2.21446 26.3408 2.21446 26.3408C2.21446 26.3408 1.97426 26.2688 1.84479 26.3228C1.71532 26.3769 1.7096 26.4564 1.74568 26.5364C1.78176 26.6165 1.84599 26.6668 1.97546 26.6128Z" fill="#FEFBEE" fill-opacity="0.67"/>
<path d="M1.80655 23.2985C1.94524 23.3246 2.1633 23.2046 2.1633 23.2046C2.1633 23.2046 2.00661 23.0144 1.86791 22.9884C1.72922 22.9624 1.678 23.0248 1.66102 23.1105C1.64404 23.1961 1.66785 23.2726 1.80655 23.2985Z" fill="#FEFBEE" fill-opacity="0.67"/>
<path d="M1.90821 25.3743C2.04672 25.3483 2.20203 25.158 2.20203 25.158C2.20203 25.158 1.98305 25.0382 1.84453 25.0643C1.70602 25.0903 1.68286 25.1668 1.70039 25.2524C1.71793 25.3381 1.7697 25.4003 1.90821 25.3743Z" fill="#FEFBEE" fill-opacity="0.67"/>
<path d="M1.37964 24.4897C1.52074 24.4861 1.70659 24.3233 1.70659 24.3233C1.70659 24.3233 1.51105 24.1703 1.36986 24.1739C1.22876 24.1775 1.19277 24.2492 1.19545 24.3364C1.19812 24.4236 1.23845 24.4933 1.37964 24.4897Z" fill="#FEFBEE" fill-opacity="0.67"/>
<path d="M7.72941 22.4697C7.68687 22.5994 7.78542 22.8232 7.78542 22.8232C7.78542 22.8232 7.99896 22.6963 8.0415 22.5665C8.08404 22.4367 8.02572 22.38 7.93953 22.3532C7.85334 22.3264 7.77195 22.3398 7.72941 22.4697Z" fill="#FEFBEE" fill-opacity="0.67"/>
<path d="M10.8478 22.8152C10.7459 22.9061 10.7188 23.1491 10.7188 23.1491C10.7188 23.1491 10.9671 23.1465 11.069 23.0556C11.1708 22.9647 11.1489 22.8863 11.0878 22.8199C11.0267 22.7535 10.9497 22.7243 10.8478 22.8152Z" fill="#FEFBEE" fill-opacity="0.67"/>
<path d="M6.10322 26.5736C6.16246 26.4455 6.0986 26.207 6.0986 26.207C6.0986 26.207 5.87464 26.3148 5.8154 26.443C5.75615 26.5712 5.8046 26.6349 5.88405 26.671C5.96351 26.7071 6.04397 26.7018 6.10322 26.5736Z" fill="#FEFBEE" fill-opacity="0.67"/>
<path d="M11.1503 21.8376C11.03 21.9085 10.9531 22.1393 10.9531 22.1393C10.9531 22.1393 11.2014 22.1783 11.3216 22.1073C11.4419 22.0363 11.4361 21.9568 11.3888 21.8822C11.3414 21.8078 11.2706 21.7666 11.1503 21.8376Z" fill="#FEFBEE" fill-opacity="0.67"/>
<path d="M13.022 24.8302C12.9012 24.7665 12.6641 24.8261 12.6641 24.8261C12.6641 24.8261 12.7533 25.0578 12.8741 25.1215C12.9949 25.1852 13.0607 25.1372 13.1015 25.0567C13.1423 24.9763 13.1428 24.8939 13.022 24.8302Z" fill="#FEFBEE" fill-opacity="0.67"/>
<path d="M10.4541 21.0681C10.3637 21.1724 10.3672 21.415 10.3672 21.415C10.3672 21.415 10.6151 21.3755 10.7055 21.2712C10.7959 21.1667 10.7641 21.0931 10.6947 21.037C10.6253 20.9809 10.5446 20.9636 10.4541 21.0681Z" fill="#FEFBEE" fill-opacity="0.67"/>
<path d="M8.36536 19.757C8.33233 19.8894 8.44675 20.1058 8.44675 20.1058C8.44675 20.1058 8.65051 19.9644 8.68355 19.8319C8.71658 19.6995 8.65429 19.6469 8.56644 19.6262C8.47859 19.6056 8.3984 19.6246 8.36536 19.757Z" fill="#FEFBEE" fill-opacity="0.67"/>
<path d="M10.5922 24.4443C10.4577 24.4205 10.25 24.5495 10.25 24.5495C10.25 24.5495 10.4057 24.743 10.5401 24.7669C10.6746 24.7908 10.7226 24.7251 10.737 24.636C10.7514 24.547 10.7266 24.4681 10.5922 24.4443Z" fill="#FEFBEE" fill-opacity="0.67"/>
<path d="M6.08243 20.078C6.12118 20.2092 6.33084 20.3436 6.33084 20.3436C6.33084 20.3436 6.43586 20.1235 6.3971 19.9923C6.35834 19.8611 6.27741 19.8448 6.19049 19.8685C6.10356 19.8921 6.04368 19.9469 6.08243 20.078Z" fill="#FEFBEE" fill-opacity="0.67"/>
<path d="M9.2478 22.6353C9.11409 22.6628 8.96875 22.8595 8.96875 22.8595C8.96875 22.8595 9.18487 22.9818 9.31858 22.9543C9.4523 22.9268 9.4726 22.8479 9.45303 22.7599C9.43347 22.6718 9.38161 22.6077 9.2478 22.6353Z" fill="#FEFBEE" fill-opacity="0.67"/>
<path d="M3.11799 26.4627C3.24368 26.4009 3.33882 26.1766 3.33882 26.1766C3.33882 26.1766 3.09437 26.1192 2.96877 26.181C2.84309 26.2428 2.84254 26.3226 2.88378 26.4003C2.92503 26.4781 2.99231 26.5245 3.11799 26.4627Z" fill="#FEFBEE" fill-opacity="0.67"/>
<path d="M8.50825 20.9988C8.45777 21.1259 8.54239 21.3547 8.54239 21.3547C8.54239 21.3547 8.7634 21.2399 8.81388 21.1128C8.86436 20.9856 8.80964 20.9257 8.7252 20.8942C8.64076 20.8628 8.55873 20.8716 8.50825 20.9988Z" fill="#FEFBEE" fill-opacity="0.67"/>
<path d="M5.90454 29.5893C5.94615 29.4592 5.84603 29.2363 5.84603 29.2363C5.84603 29.2363 5.63342 29.3651 5.5918 29.4952C5.55018 29.6253 5.60896 29.6816 5.69525 29.7075C5.78162 29.7335 5.86293 29.7194 5.90454 29.5893Z" fill="#FEFBEE" fill-opacity="0.67"/>
<path d="M8.24573 21.8101C8.21971 21.9442 8.34549 22.1538 8.34549 22.1538C8.34549 22.1538 8.5414 22.0013 8.56742 21.8672C8.59344 21.7331 8.52848 21.6841 8.43961 21.6684C8.35075 21.6526 8.27176 21.676 8.24573 21.8101Z" fill="#FEFBEE" fill-opacity="0.67"/>
<path d="M2.3858 20.8894C2.50059 20.9692 2.75095 20.9489 2.75095 20.9489C2.75095 20.9489 2.69115 20.713 2.57636 20.6333C2.46156 20.5535 2.38792 20.5893 2.33523 20.66C2.28263 20.7308 2.271 20.8097 2.3858 20.8894Z" fill="#FEFBEE" fill-opacity="0.67"/>
<path d="M8.34761 18.8608C8.32057 18.9945 8.44459 19.2059 8.44459 19.2059C8.44459 19.2059 8.64179 19.0561 8.66883 18.9223C8.69587 18.7886 8.63127 18.7387 8.54259 18.7217C8.45391 18.7047 8.37464 18.7271 8.34761 18.8608Z" fill="#FEFBEE" fill-opacity="0.67"/>
<path d="M3.69137 19.6993C3.77746 19.8077 4.02348 19.8582 4.02348 19.8582C4.02348 19.8582 4.03686 19.6159 3.95076 19.5076C3.86467 19.3993 3.78337 19.4129 3.71167 19.4659C3.64006 19.5188 3.60527 19.591 3.69137 19.6993Z" fill="#FEFBEE" fill-opacity="0.67"/>
<path d="M4.21707 26.5869C4.33177 26.5078 4.39148 26.2723 4.39148 26.2723C4.39148 26.2723 4.14112 26.2505 4.02632 26.3296C3.91162 26.4087 3.92325 26.4877 3.97594 26.5587C4.02863 26.6298 4.10236 26.666 4.21707 26.5869Z" fill="#FEFBEE" fill-opacity="0.67"/>
<path d="M8.22562 23.4441C8.11673 23.5265 8.07031 23.7666 8.07031 23.7666C8.07031 23.7666 8.31799 23.784 8.42688 23.7015C8.53577 23.6191 8.52008 23.5392 8.46453 23.468C8.40898 23.397 8.33451 23.3617 8.22562 23.4441Z" fill="#FEFBEE" fill-opacity="0.67"/>
<path d="M5.21119 28.6364C5.27735 28.5162 5.22217 28.2793 5.22217 28.2793C5.22217 28.2793 4.98824 28.3672 4.92208 28.4875C4.85591 28.6077 4.90279 28.6735 4.98261 28.7147C5.06243 28.7558 5.14502 28.7567 5.21119 28.6364Z" fill="#FEFBEE" fill-opacity="0.67"/>
<path d="M4.48896 29.1349C4.56325 29.0191 4.52449 28.7793 4.52449 28.7793C4.52449 28.7793 4.28493 28.852 4.21065 28.9676C4.13636 29.0833 4.17853 29.152 4.2554 29.1982C4.33227 29.2443 4.41459 29.2506 4.48896 29.1349Z" fill="#FEFBEE" fill-opacity="0.67"/>
<path d="M9.84976 23.0443C9.73718 23.1216 9.67969 23.3593 9.67969 23.3593C9.67969 23.3593 9.92635 23.3881 10.0389 23.3107C10.1515 23.2334 10.1396 23.1528 10.0874 23.0793C10.0351 23.0057 9.96234 22.9671 9.84976 23.0443Z" fill="#FEFBEE" fill-opacity="0.67"/>
<path d="M7.1139 25.6286C7.14139 25.4902 7.02337 25.2734 7.02337 25.2734C7.02337 25.2734 6.83106 25.4309 6.80347 25.5693C6.77597 25.7077 6.83807 25.7585 6.92371 25.7748C7.00943 25.7911 7.0863 25.7671 7.1139 25.6286Z" fill="#FEFBEE" fill-opacity="0.67"/>
<path d="M2.73882 25.078C2.87807 25.056 3.03937 24.8704 3.03937 24.8704C3.03937 24.8704 2.82427 24.7442 2.68502 24.7663C2.54577 24.7882 2.52011 24.864 2.53497 24.9501C2.54983 25.0362 2.59957 25.0999 2.73882 25.078Z" fill="#FEFBEE" fill-opacity="0.67"/>
<path d="M2.76673 23.6931C2.90653 23.7128 3.11841 23.583 3.11841 23.583C3.11841 23.583 2.95258 23.4002 2.81278 23.3805C2.67297 23.3608 2.62489 23.4255 2.61216 23.5119C2.59943 23.5983 2.62693 23.6736 2.76673 23.6931Z" fill="#FEFBEE" fill-opacity="0.67"/>
<path d="M7.25444 26.723C7.27723 26.5837 7.15192 26.3711 7.15192 26.3711C7.15192 26.3711 6.96496 26.5349 6.94216 26.6742C6.91937 26.8136 6.98304 26.8621 7.06933 26.8756C7.15552 26.8891 7.23165 26.8623 7.25444 26.723Z" fill="#FEFBEE" fill-opacity="0.67"/>
<path d="M9.51973 19.6816C9.45744 19.8038 9.52028 20.0389 9.52028 20.0389C9.52028 20.0389 9.75126 19.944 9.81355 19.8219C9.87584 19.6997 9.82684 19.6353 9.74572 19.5966C9.66461 19.5579 9.58193 19.5594 9.51973 19.6816Z" fill="#FEFBEE" fill-opacity="0.67"/>
<path d="M3.65416 23.1388C3.78806 23.1825 4.02088 23.0917 4.02088 23.0917C4.02088 23.0917 3.89178 22.8831 3.75788 22.8395C3.62398 22.7959 3.56455 22.8512 3.53595 22.9338C3.50734 23.0164 3.52026 23.0952 3.65416 23.1388Z" fill="#FEFBEE" fill-opacity="0.67"/>
<path d="M9.57301 18.6697C9.51977 18.7958 9.5995 19.0262 9.5995 19.0262C9.5995 19.0262 9.823 18.9158 9.87615 18.7898C9.9294 18.6636 9.87587 18.6027 9.79218 18.5696C9.70848 18.5365 9.62626 18.5436 9.57301 18.6697Z" fill="#FEFBEE" fill-opacity="0.67"/>
<path d="M9.8596 21.7838C9.74656 21.8604 9.6875 22.0976 9.6875 22.0976C9.6875 22.0976 9.93398 22.128 10.047 22.0514C10.1601 21.9748 10.1487 21.8942 10.0969 21.8203C10.0452 21.7464 9.97274 21.7072 9.8596 21.7838Z" fill="#FEFBEE" fill-opacity="0.67"/>
<path d="M3.3503 25.8087C3.48235 25.7609 3.60296 25.5484 3.60296 25.5484C3.60296 25.5484 3.36663 25.465 3.23458 25.5128C3.10253 25.5606 3.09275 25.6398 3.12468 25.7215C3.1566 25.8032 3.21825 25.8565 3.3503 25.8087Z" fill="#FEFBEE" fill-opacity="0.67"/>
<path d="M5.05931 19.7817C5.12142 19.9044 5.3523 20.001 5.3523 20.001C5.3523 20.001 5.41533 19.7663 5.35322 19.6437C5.29112 19.521 5.20853 19.5188 5.12742 19.5569C5.0463 19.595 4.99721 19.6591 5.05931 19.7817Z" fill="#FEFBEE" fill-opacity="0.67"/>
<path d="M3.86598 21.051C3.9673 21.1463 4.21821 21.1619 4.21821 21.1619C4.21821 21.1619 4.19523 20.9202 4.09382 20.825C3.9924 20.7297 3.91406 20.7546 3.85112 20.817C3.78819 20.8794 3.76456 20.9558 3.86598 21.051Z" fill="#FEFBEE" fill-opacity="0.67"/>
<path d="M6.16083 22.3862C6.26501 22.4745 6.50946 22.4674 6.50946 22.4674C6.50946 22.4674 6.47227 22.2218 6.36809 22.1335C6.26391 22.0452 6.18935 22.078 6.13213 22.1477C6.07492 22.2175 6.05665 22.2979 6.16083 22.3862Z" fill="#FEFBEE" fill-opacity="0.67"/>
</g>
<defs>
<clipPath id="clip0_895_743">
<rect width="60" height="70" fill="white"/>
</clipPath>
</defs>
</svg>
