<svg width="15" height="15" viewBox="0 0 15 15" fill="none" xmlns="http://www.w3.org/2000/svg">
<path d="M14.8799 7.53253C14.8547 8.07458 14.7659 8.61451 14.614 9.13774L14.1059 8.99858L13.4636 8.82454L8.45993 7.46286L8.16076 7.38147L7.60432 7.22995L7.55864 7.2186L7.44375 7.18648L7.44643 7.22727L7.38155 7.23253H7.37879L7.3965 7.42632L7.56796 9.2218L7.84507 12.1206L8.00832 13.8335L8.06018 14.3787C7.80272 14.3925 7.36605 14.3754 7.1097 14.3635C3.03075 14.1736 -0.175701 10.7773 0.00747453 6.84034C0.19065 2.90331 3.69867 -0.181507 7.77762 0.00831233C11.8566 0.198132 15.0629 3.59541 14.8797 7.53235L14.8799 7.53253Z" fill="#FEEE78"/>
<path d="M14.3482 7.50833C14.3247 8.01255 14.2422 8.514 14.1014 8.99893L13.4592 8.82489L8.45547 7.46321L8.1563 7.38182L7.59985 7.23029L7.55417 7.21894L7.43929 7.18683L7.44196 7.22762L7.37709 7.23288H7.37432L7.39204 7.42666L7.56349 9.22215L7.80656 13.2095L7.84587 13.8533C7.60788 13.8662 7.36768 13.8661 7.12895 13.8551C3.33855 13.6787 0.360133 10.5239 0.530389 6.86523C0.700645 3.20569 3.95914 0.341145 7.74962 0.517491C11.5401 0.693838 14.5184 3.8487 14.3482 7.50824V7.50833Z" fill="#FEFBEE"/>
<path d="M13.6881 7.47763C13.6669 7.93303 13.5923 8.38493 13.4656 8.82529C11.0517 8.4271 7.91515 7.93857 7.44573 7.18723L7.4484 7.22802L7.38353 7.23328H7.38076L7.39848 7.42706L7.56993 9.22255L7.813 13.2099C7.76483 13.2132 7.71666 13.2156 7.66858 13.217H7.66766C7.50017 13.2221 7.33213 13.2217 7.16529 13.2138C5.73098 13.1471 4.42578 12.6078 3.40378 11.7612C3.40322 11.7606 3.40264 11.7602 3.40202 11.7602C3.3282 11.6994 3.25714 11.6371 3.18627 11.5727L3.18535 11.5717C2.10485 10.5912 1.38119 9.24848 1.22662 7.76601C1.21619 7.67317 1.20936 7.58043 1.20457 7.48603C1.20124 7.43786 1.19986 7.38877 1.19847 7.33977C1.19847 7.33915 1.19847 7.33854 1.19847 7.33792C1.19331 7.19175 1.1946 7.04493 1.20143 6.89645C1.2555 5.7341 1.65461 4.66162 2.29863 3.76503V3.76319C2.34025 3.70505 2.38261 3.64793 2.4258 3.59265C2.45237 3.55786 2.47886 3.524 2.50626 3.49013C2.56597 3.41806 2.62752 3.34608 2.6899 3.27512C3.24173 2.65232 3.92156 2.13888 4.68684 1.77354C4.78032 1.72897 4.87564 1.68624 4.9717 1.6473C5.37118 1.47926 5.79189 1.35201 6.22809 1.26969C6.32323 1.25013 6.41819 1.23417 6.5149 1.22023C6.60976 1.2062 6.70638 1.19402 6.8029 1.1847C7.10632 1.15536 7.41435 1.14668 7.72598 1.16117C8.40903 1.19292 9.06311 1.33143 9.67133 1.56111H9.67225C9.74303 1.5876 9.81206 1.61482 9.88182 1.64389H9.88274C10.3313 1.83112 10.7536 2.06782 11.1415 2.34641C11.2184 2.40169 11.2961 2.45983 11.3718 2.51972C12.858 3.6937 13.7798 5.50386 13.688 7.47745L13.6881 7.47763Z" fill="#FEEE78"/>
<path d="M8.00742 13.8325L7.98324 13.8351L7.84944 13.852L7.66626 13.2217L7.66571 13.2153L7.46389 11.12L7.43418 10.8054L7.33203 9.74471L7.30757 9.4951L7.22101 8.59684V8.59592L7.20634 8.43637L7.11157 7.45359L7.10465 7.38493L7.09302 7.25694L7.0849 7.17435L7.07493 7.07035L7.07364 7.05928L7.06626 6.97853L7.04679 6.78179L6.51212 1.2187L6.49219 1.01274L6.78148 0.988281L6.80012 1.18318L7.3323 6.75992L7.35103 6.95297L7.3586 7.03003L7.37032 7.15433L7.37789 7.23138L7.39561 7.42526L7.56706 9.22084L7.84418 12.1196L8.00742 13.8325Z" fill="#FEFBEE"/>
<path d="M3.28563 11.8994L11.3956 2.49403L11.1725 2.31445L3.0625 11.7198L3.28563 11.8994Z" fill="#FEFBEE"/>
<path d="M13.6729 6.68753L12.1739 6.81848L12.0125 6.83306L9.73075 7.02989L9.52765 7.04816L7.58636 7.21556L7.55849 7.21888L7.44627 7.22756L7.3814 7.23282L7.37863 7.23272L7.29881 7.24011L7.29789 7.24001L7.26541 7.24315L7.17912 7.25118L7.09377 7.25829L7.09284 7.25819L6.88974 7.27554H6.88881L6.80816 7.28283L6.28032 7.32851L5.93344 7.35859L4.03478 7.52239L3.90494 7.53393L1.2244 7.76573L0.916463 7.79203L0.890625 7.51371L1.20235 7.48575L1.28761 7.47865L1.49635 7.46065L3.82531 7.25949L4.05721 7.23891L6.86297 6.99713L7.067 6.97988L7.15052 6.97268H7.15144L7.27113 6.9617L7.35178 6.95432L7.35556 6.95358L7.5595 6.93724L7.71444 6.92405L8.03631 6.89562L13.6454 6.4082L13.6729 6.68753Z" fill="#FEFBEE"/>
<path d="M7.60638 7.23158L7.5608 7.22014L7.44858 7.22881L7.38371 7.23407L7.38094 7.23398L7.39866 7.42786L7.25267 7.3102L7.24547 7.30439L7.18143 7.25243L7.08795 7.17695L7.0229 7.1249L6.98728 7.09648L6.86528 6.99839L5.53941 5.93163L5.28028 5.7228L2.50654 3.4912L2.25 3.28523L2.43465 3.07031L2.69018 3.27619L5.48441 5.52449L5.5191 5.55282L6.54941 6.3814L6.80945 6.59033L7.04901 6.78338L7.04984 6.78439L7.20755 6.90998L7.27344 6.96295L7.36166 7.03262L7.36608 7.0365L7.43096 7.0903L7.58866 7.21681L7.60638 7.23158Z" fill="#FEFBEE"/>
<path d="M6.10029 1.47103C6.12806 1.60474 6.3261 1.75479 6.3261 1.75479C6.3261 1.75479 6.44892 1.54347 6.42114 1.40976C6.39337 1.27604 6.31401 1.25362 6.22542 1.27051C6.13683 1.28739 6.07251 1.33722 6.10029 1.47103Z" fill="#FEFBEE" fill-opacity="0.67"/>
<path d="M12.5004 5.33083C12.3673 5.37595 12.2422 5.58598 12.2422 5.58598C12.2422 5.58598 12.4767 5.67401 12.6097 5.62889C12.7428 5.58377 12.7543 5.50477 12.7241 5.42246C12.6939 5.34015 12.6334 5.28561 12.5003 5.33073L12.5004 5.33083Z" fill="#FEFBEE" fill-opacity="0.67"/>
<path d="M9.66492 7.15277C9.52871 7.14335 9.33594 7.29386 9.33594 7.29386C9.33594 7.29386 9.51127 7.46966 9.64757 7.47907C9.78386 7.48848 9.82447 7.41789 9.82927 7.32782C9.83406 7.23776 9.80112 7.16218 9.66492 7.15277Z" fill="#FEFBEE" fill-opacity="0.67"/>
<path d="M4.70409 4.25083C4.79453 4.35575 5.04239 4.39682 5.04239 4.39682C5.04239 4.39682 5.0458 4.15421 4.95537 4.04929C4.86494 3.94437 4.78419 3.96107 4.7148 4.01681C4.6454 4.07245 4.61357 4.14591 4.70409 4.25083Z" fill="#FEFBEE" fill-opacity="0.67"/>
<path d="M7.23438 1.92776C7.23548 2.06406 7.40057 2.24751 7.40057 2.24751C7.40057 2.24751 7.56271 2.06268 7.56169 1.92638C7.56058 1.79008 7.48704 1.75354 7.3967 1.75391C7.30635 1.75428 7.23336 1.79147 7.23447 1.92776H7.23438Z" fill="#FEFBEE" fill-opacity="0.67"/>
<path d="M5.40074 2.17163C5.4491 2.2999 5.66817 2.41949 5.66817 2.41949C5.66817 2.41949 5.75657 2.19267 5.70822 2.0644C5.65986 1.93613 5.57792 1.92552 5.49302 1.95514C5.40812 1.98476 5.35239 2.04345 5.40074 2.17163Z" fill="#FEFBEE" fill-opacity="0.67"/>
<path d="M12.0761 7.15265C11.951 7.09774 11.7188 7.17424 11.7188 7.17424C11.7188 7.17424 11.8244 7.39894 11.9494 7.45385C12.0745 7.50876 12.1367 7.45616 12.1717 7.37292C12.2066 7.28978 12.2012 7.20746 12.0761 7.15265H12.0761Z" fill="#FEFBEE" fill-opacity="0.67"/>
<path d="M4.13008 3.33528C4.21728 3.44279 4.46376 3.49087 4.46376 3.49087C4.46376 3.49087 4.47465 3.24854 4.38744 3.14104C4.30024 3.03353 4.21903 3.04802 4.14798 3.10163C4.07692 3.15525 4.04287 3.22787 4.13008 3.33528Z" fill="#FEFBEE" fill-opacity="0.67"/>
<path d="M4.84018 10.6263C4.92803 10.5198 4.91862 10.2773 4.91862 10.2773C4.91862 10.2773 4.67186 10.3225 4.58392 10.4289C4.49607 10.5354 4.52966 10.6083 4.60044 10.6628C4.67122 10.7173 4.75233 10.7327 4.84018 10.6263Z" fill="#FEFBEE" fill-opacity="0.67"/>
<path d="M5.50087 3.98848C5.56777 4.10872 5.80235 4.19676 5.80235 4.19676C5.80235 4.19676 5.85596 3.95988 5.78906 3.83964C5.72216 3.7194 5.63957 3.72023 5.55993 3.76129C5.48029 3.80236 5.43397 3.86824 5.50087 3.98848Z" fill="#FEFBEE" fill-opacity="0.67"/>
<path d="M3.22262 10.5664C3.33363 10.4825 3.38245 10.2446 3.38245 10.2446C3.38245 10.2446 3.13135 10.2336 3.02034 10.3174C2.90933 10.4013 2.92465 10.4798 2.98048 10.5485C3.03631 10.6172 3.11161 10.6503 3.22262 10.5664Z" fill="#FEFBEE" fill-opacity="0.67"/>
<path d="M11.6157 3.04902C11.5146 3.14389 11.4922 3.38547 11.4922 3.38547C11.4922 3.38547 11.743 3.3708 11.8441 3.27603C11.9453 3.18126 11.9215 3.10476 11.8584 3.0421C11.7953 2.97944 11.7169 2.95425 11.6157 3.04902Z" fill="#FEFBEE" fill-opacity="0.67"/>
<path d="M3.09475 4.96977C3.21711 5.03815 3.46414 4.99385 3.46414 4.99385C3.46414 4.99385 3.38035 4.76482 3.25799 4.69644C3.13563 4.62806 3.06596 4.67078 3.02092 4.74627C2.97589 4.82175 2.97239 4.90139 3.09475 4.96977Z" fill="#FEFBEE" fill-opacity="0.67"/>
<path d="M4.36017 8.48435C4.49167 8.43498 4.60951 8.22107 4.60951 8.22107C4.60951 8.22107 4.37216 8.14051 4.24066 8.18979C4.10926 8.23916 4.1004 8.31843 4.13344 8.39973C4.16638 8.48102 4.22867 8.53362 4.36017 8.48435Z" fill="#FEFBEE" fill-opacity="0.67"/>
<path d="M6.85873 12.7352C6.87709 12.6001 6.73969 12.3965 6.73969 12.3965C6.73969 12.3965 6.55264 12.558 6.53427 12.6931C6.51591 12.8282 6.58355 12.8741 6.67316 12.8858C6.76276 12.8974 6.84037 12.8702 6.85873 12.7352Z" fill="#FEFBEE" fill-opacity="0.67"/>
<path d="M7.16409 2.76049C7.16751 2.89679 7.33583 3.07756 7.33583 3.07756C7.33583 3.07756 7.49473 2.89014 7.49132 2.75385C7.4879 2.61755 7.41371 2.58221 7.32337 2.58405C7.23302 2.5859 7.16068 2.62419 7.16418 2.76049H7.16409Z" fill="#FEFBEE" fill-opacity="0.67"/>
<path d="M6.37727 10.5596C6.43347 10.4301 6.36407 10.1934 6.36407 10.1934C6.36407 10.1934 6.14269 10.3064 6.08649 10.4359C6.0303 10.5653 6.08013 10.6281 6.16041 10.6622C6.24069 10.6964 6.32098 10.6891 6.37727 10.5596Z" fill="#FEFBEE" fill-opacity="0.67"/>
<path d="M7.72785 3.40137C7.7117 3.53674 7.85234 3.73819 7.85234 3.73819C7.85234 3.73819 8.03671 3.57393 8.05296 3.43856C8.0691 3.30318 8.00072 3.25824 7.91094 3.248C7.82115 3.23776 7.744 3.266 7.72785 3.40137Z" fill="#FEFBEE" fill-opacity="0.67"/>
<path d="M12.0402 3.97603C11.9239 4.0529 11.8594 4.2872 11.8594 4.2872C11.8594 4.2872 12.1093 4.31377 12.2256 4.23699C12.342 4.16013 12.3319 4.08095 12.2807 4.00888C12.2295 3.93681 12.1565 3.89916 12.0402 3.97603Z" fill="#FEFBEE" fill-opacity="0.67"/>
<path d="M12.0129 7.83556C11.8972 7.76312 11.6562 7.80502 11.6562 7.80502C11.6562 7.80502 11.7281 8.04273 11.8439 8.11517C11.9596 8.18761 12.0287 8.14461 12.0754 8.06746C12.1221 7.99032 12.1286 7.9081 12.0129 7.83566V7.83556Z" fill="#FEFBEE" fill-opacity="0.67"/>
<path d="M7.32349 10.9867C7.315 10.8458 7.14594 10.666 7.14594 10.666C7.14594 10.666 6.99968 10.867 7.00817 11.0079C7.01657 11.1488 7.08947 11.1821 7.17658 11.1763C7.26369 11.1705 7.33198 11.1276 7.32349 10.9867Z" fill="#FEFBEE" fill-opacity="0.67"/>
<path d="M6.11038 7.52992C5.96947 7.53786 5.78906 7.70627 5.78906 7.70627C5.78906 7.70627 5.98949 7.85327 6.1305 7.84534C6.27141 7.8374 6.305 7.76468 6.29946 7.67757C6.29393 7.59046 6.25129 7.52199 6.11038 7.52992Z" fill="#FEFBEE" fill-opacity="0.67"/>
<path d="M5.6874 8.53167C5.77147 8.41826 5.75744 8.17188 5.75744 8.17188C5.75744 8.17188 5.51622 8.23186 5.43215 8.34527C5.34809 8.45868 5.38251 8.53103 5.45292 8.58252C5.52342 8.63401 5.60324 8.64509 5.68731 8.53167H5.6874Z" fill="#FEFBEE" fill-opacity="0.67"/>
<path d="M6.41571 11.6322C6.47504 11.5041 6.41137 11.2656 6.41137 11.2656C6.41137 11.2656 6.18732 11.3733 6.12798 11.5014C6.06864 11.6295 6.117 11.6934 6.19645 11.7295C6.2759 11.7656 6.35637 11.7602 6.41571 11.6322Z" fill="#FEFBEE" fill-opacity="0.67"/>
<path d="M7.28906 4.0725C7.2886 4.2088 7.45157 4.394 7.45157 4.394C7.45157 4.394 7.61583 4.21092 7.61638 4.07462C7.61684 3.93832 7.54376 3.90095 7.45332 3.9004C7.36298 3.89984 7.28952 3.9362 7.28906 4.0725Z" fill="#FEFBEE" fill-opacity="0.67"/>
<path d="M13.2887 6.90829C13.1475 6.91125 12.9609 7.0731 12.9609 7.0731C12.9609 7.0731 13.1557 7.22703 13.2969 7.22417C13.4381 7.22121 13.4744 7.1497 13.4722 7.06249C13.47 6.97529 13.4299 6.90534 13.2888 6.90829H13.2887Z" fill="#FEFBEE" fill-opacity="0.67"/>
<path d="M4.73674 6.70229C4.87248 6.71706 5.07107 6.57439 5.07107 6.57439C5.07107 6.57439 4.90275 6.39177 4.76701 6.377C4.63126 6.36224 4.5878 6.43099 4.5794 6.52087C4.5711 6.61066 4.601 6.68753 4.73674 6.70229Z" fill="#FEFBEE" fill-opacity="0.67"/>
<path d="M1.97546 9.61285C2.10493 9.55877 2.21446 9.3408 2.21446 9.3408C2.21446 9.3408 1.97426 9.26883 1.84479 9.32281C1.71532 9.37689 1.7096 9.45643 1.74568 9.53644C1.78176 9.61654 1.84599 9.66683 1.97546 9.61285Z" fill="#FEFBEE" fill-opacity="0.67"/>
<path d="M1.80655 6.29854C1.94524 6.32456 2.1633 6.2046 2.1633 6.2046C2.1633 6.2046 2.00661 6.01441 1.86791 5.98839C1.72922 5.96236 1.678 6.02484 1.66102 6.11047C1.64404 6.19611 1.66785 6.27261 1.80655 6.29854Z" fill="#FEFBEE" fill-opacity="0.67"/>
<path d="M1.90821 8.37433C2.04672 8.34831 2.20203 8.15803 2.20203 8.15803C2.20203 8.15803 1.98305 8.03815 1.84453 8.06427C1.70602 8.09029 1.68286 8.16679 1.70039 8.25243C1.71793 8.33806 1.7696 8.40044 1.90811 8.37442L1.90821 8.37433Z" fill="#FEFBEE" fill-opacity="0.67"/>
<path d="M1.37964 7.48967C1.52074 7.48607 1.70659 7.32329 1.70659 7.32329C1.70659 7.32329 1.51105 7.17029 1.36986 7.17389C1.22876 7.17749 1.19277 7.24919 1.19545 7.3364C1.19812 7.4236 1.23845 7.49336 1.37964 7.48976V7.48967Z" fill="#FEFBEE" fill-opacity="0.67"/>
<path d="M7.72941 5.46965C7.68687 5.5994 7.78542 5.82318 7.78542 5.82318C7.78542 5.82318 7.99896 5.69629 8.0415 5.56645C8.08404 5.43671 8.02572 5.37996 7.93953 5.35319C7.85334 5.32643 7.77195 5.33982 7.72941 5.46965Z" fill="#FEFBEE" fill-opacity="0.67"/>
<path d="M10.8478 5.81519C10.7459 5.90608 10.7188 6.14905 10.7188 6.14905C10.7188 6.14905 10.9671 6.14647 11.069 6.05557C11.1708 5.96468 11.1489 5.88633 11.0878 5.81989C11.0267 5.75345 10.9496 5.7242 10.8477 5.81509L10.8478 5.81519Z" fill="#FEFBEE" fill-opacity="0.67"/>
<path d="M6.10322 9.57357C6.16246 9.44548 6.0986 9.20703 6.0986 9.20703C6.0986 9.20703 5.87464 9.31481 5.8154 9.44299C5.75615 9.57117 5.8046 9.63493 5.88405 9.67101C5.96351 9.7071 6.04397 9.70165 6.10322 9.57347V9.57357Z" fill="#FEFBEE" fill-opacity="0.67"/>
<path d="M11.1503 4.83757C11.03 4.90854 10.9531 5.13933 10.9531 5.13933C10.9531 5.13933 11.2014 5.17827 11.3216 5.10731C11.4419 5.03634 11.4361 4.9568 11.3888 4.88224C11.3414 4.80777 11.2706 4.76652 11.1503 4.83748V4.83757Z" fill="#FEFBEE" fill-opacity="0.67"/>
<path d="M13.022 7.83017C12.9012 7.7665 12.6641 7.82611 12.6641 7.82611C12.6641 7.82611 12.7533 8.05783 12.8741 8.1215C12.9949 8.18517 13.0607 8.13719 13.1015 8.05672C13.1423 7.97625 13.1428 7.89394 13.022 7.83017Z" fill="#FEFBEE" fill-opacity="0.67"/>
<path d="M10.4541 4.06806C10.3637 4.17243 10.3672 4.41503 10.3672 4.41503C10.3672 4.41503 10.6151 4.37554 10.7055 4.27117C10.7959 4.16671 10.7641 4.09307 10.6947 4.03696C10.6253 3.98086 10.5446 3.9636 10.4541 4.06806Z" fill="#FEFBEE" fill-opacity="0.67"/>
<path d="M8.36536 2.757C8.33233 2.88942 8.44675 3.10582 8.44675 3.10582C8.44675 3.10582 8.65051 2.96435 8.68355 2.83193C8.71658 2.69951 8.65429 2.64691 8.56644 2.62624C8.47859 2.60557 8.3984 2.62458 8.36536 2.757Z" fill="#FEFBEE" fill-opacity="0.67"/>
<path d="M10.5922 7.44434C10.4577 7.42053 10.25 7.54954 10.25 7.54954C10.25 7.54954 10.4057 7.74305 10.5401 7.76695C10.6746 7.79076 10.7226 7.72505 10.737 7.636C10.7514 7.54695 10.7266 7.46815 10.5922 7.44434Z" fill="#FEFBEE" fill-opacity="0.67"/>
<path d="M6.08243 3.07803C6.12118 3.20925 6.33084 3.34361 6.33084 3.34361C6.33084 3.34361 6.43586 3.12352 6.3971 2.9923C6.35834 2.86108 6.27741 2.84483 6.19049 2.86846C6.10356 2.89208 6.04358 2.9468 6.08233 3.07793L6.08243 3.07803Z" fill="#FEFBEE" fill-opacity="0.67"/>
<path d="M9.2478 5.6353C9.11409 5.6628 8.96875 5.85954 8.96875 5.85954C8.96875 5.85954 9.18487 5.98181 9.31858 5.95431C9.4523 5.92681 9.4726 5.84791 9.45303 5.75988C9.43347 5.67184 9.38152 5.6078 9.24771 5.63539L9.2478 5.6353Z" fill="#FEFBEE" fill-opacity="0.67"/>
<path d="M3.11799 9.46266C3.24368 9.40092 3.33882 9.17659 3.33882 9.17659C3.33882 9.17659 3.09437 9.11919 2.96877 9.18102C2.84309 9.24276 2.84254 9.32258 2.88378 9.40028C2.92503 9.47807 2.9924 9.52439 3.11808 9.46257L3.11799 9.46266Z" fill="#FEFBEE" fill-opacity="0.67"/>
<path d="M8.50825 3.99879C8.45777 4.12595 8.54239 4.35471 8.54239 4.35471C8.54239 4.35471 8.7634 4.23991 8.81388 4.11275C8.86436 3.98559 8.80964 3.9257 8.7252 3.89423C8.64076 3.86277 8.55873 3.87163 8.50825 3.99879Z" fill="#FEFBEE" fill-opacity="0.67"/>
<path d="M5.90454 12.5893C5.94615 12.4592 5.84603 12.2363 5.84603 12.2363C5.84603 12.2363 5.63342 12.3651 5.5918 12.4952C5.55018 12.6253 5.60896 12.6816 5.69525 12.7075C5.78162 12.7335 5.86283 12.7194 5.90444 12.5893H5.90454Z" fill="#FEFBEE" fill-opacity="0.67"/>
<path d="M8.24573 4.8101C8.21971 4.94419 8.34549 5.15385 8.34549 5.15385C8.34549 5.15385 8.5414 5.00131 8.56742 4.86722C8.59344 4.73314 8.52848 4.68414 8.43961 4.66836C8.35075 4.65258 8.27176 4.67602 8.24573 4.8101Z" fill="#FEFBEE" fill-opacity="0.67"/>
<path d="M2.38584 3.88944C2.50063 3.96917 2.75099 3.94887 2.75099 3.94887C2.75099 3.94887 2.69119 3.713 2.5764 3.63327C2.4616 3.55354 2.38796 3.58935 2.33527 3.66003C2.28267 3.73081 2.27104 3.80971 2.38584 3.88944Z" fill="#FEFBEE" fill-opacity="0.67"/>
<path d="M8.34761 1.86079C8.32057 1.99451 8.44459 2.20592 8.44459 2.20592C8.44459 2.20592 8.64179 2.05606 8.66883 1.92234C8.69587 1.78863 8.63127 1.73871 8.54259 1.72173C8.45391 1.70475 8.37464 1.72708 8.34761 1.86079Z" fill="#FEFBEE" fill-opacity="0.67"/>
<path d="M3.69137 2.69935C3.77746 2.80768 4.02348 2.85816 4.02348 2.85816C4.02348 2.85816 4.03686 2.61593 3.95076 2.50759C3.86467 2.39925 3.78337 2.41291 3.71167 2.46588C3.64006 2.51885 3.60527 2.59101 3.69137 2.69935Z" fill="#FEFBEE" fill-opacity="0.67"/>
<path d="M4.21707 9.58686C4.33177 9.50778 4.39148 9.27228 4.39148 9.27228C4.39148 9.27228 4.14112 9.2505 4.02632 9.32958C3.91162 9.40867 3.92325 9.48766 3.97594 9.55872C4.02863 9.62977 4.10236 9.66604 4.21707 9.58686Z" fill="#FEFBEE" fill-opacity="0.67"/>
<path d="M8.22562 6.44421C8.11673 6.52662 8.07031 6.76673 8.07031 6.76673C8.07031 6.76673 8.31799 6.78408 8.42688 6.70158C8.53577 6.61917 8.52008 6.53926 8.46453 6.46811C8.40898 6.39705 8.33451 6.3618 8.22562 6.44421Z" fill="#FEFBEE" fill-opacity="0.67"/>
<path d="M5.21119 11.6364C5.27735 11.5162 5.22217 11.2793 5.22217 11.2793C5.22217 11.2793 4.98824 11.3672 4.92208 11.4875C4.85591 11.6077 4.90279 11.6735 4.98261 11.7147C5.06243 11.7558 5.14502 11.7567 5.21119 11.6364Z" fill="#FEFBEE" fill-opacity="0.67"/>
<path d="M4.48896 12.1349C4.56325 12.0191 4.52449 11.7793 4.52449 11.7793C4.52449 11.7793 4.28493 11.852 4.21065 11.9676C4.13636 12.0833 4.17853 12.152 4.2554 12.1982C4.33227 12.2443 4.41459 12.2506 4.48896 12.1349Z" fill="#FEFBEE" fill-opacity="0.67"/>
<path d="M9.84976 6.04431C9.73718 6.12164 9.67969 6.35926 9.67969 6.35926C9.67969 6.35926 9.92635 6.38805 10.0389 6.31072C10.1515 6.23339 10.1396 6.15283 10.0874 6.07928C10.0351 6.00574 9.96243 5.96698 9.84985 6.04422L9.84976 6.04431Z" fill="#FEFBEE" fill-opacity="0.67"/>
<path d="M7.1139 8.62862C7.14139 8.4902 7.02337 8.27344 7.02337 8.27344C7.02337 8.27344 6.83106 8.43087 6.80347 8.56929C6.77597 8.70771 6.83807 8.75846 6.92371 8.77479C7.00943 8.79113 7.0863 8.76713 7.1139 8.62862Z" fill="#FEFBEE" fill-opacity="0.67"/>
<path d="M2.73882 8.07798C2.87807 8.05602 3.03937 7.87044 3.03937 7.87044C3.03937 7.87044 2.82427 7.7442 2.68502 7.76626C2.54577 7.78822 2.52011 7.86398 2.53497 7.95008C2.54983 8.03618 2.59957 8.09994 2.73882 8.07798Z" fill="#FEFBEE" fill-opacity="0.67"/>
<path d="M2.76673 6.69314C2.90653 6.71279 3.11841 6.58296 3.11841 6.58296C3.11841 6.58296 2.95258 6.40015 2.81278 6.38049C2.67297 6.36084 2.62489 6.42553 2.61216 6.5119C2.59943 6.59827 2.62693 6.67358 2.76673 6.69314Z" fill="#FEFBEE" fill-opacity="0.67"/>
<path d="M7.25444 9.72305C7.27723 9.58371 7.15192 9.37109 7.15192 9.37109C7.15192 9.37109 6.96496 9.53489 6.94216 9.67423C6.91937 9.81358 6.98304 9.86212 7.06933 9.87559C7.15552 9.88906 7.23165 9.8623 7.25444 9.72305Z" fill="#FEFBEE" fill-opacity="0.67"/>
<path d="M9.51973 2.68162C9.45744 2.8038 9.52028 3.03893 9.52028 3.03893C9.52028 3.03893 9.75126 2.94397 9.81355 2.82189C9.87584 2.69971 9.82684 2.6353 9.74572 2.59663C9.66461 2.55787 9.58202 2.55953 9.51982 2.68171L9.51973 2.68162Z" fill="#FEFBEE" fill-opacity="0.67"/>
<path d="M3.65416 6.13881C3.78806 6.18245 4.02088 6.09174 4.02088 6.09174C4.02088 6.09174 3.89178 5.8831 3.75788 5.83954C3.62398 5.79589 3.56455 5.85117 3.53595 5.93376C3.50734 6.01635 3.52035 6.09525 3.65425 6.13881H3.65416Z" fill="#FEFBEE" fill-opacity="0.67"/>
<path d="M9.57301 1.6697C9.51977 1.79585 9.5995 2.02618 9.5995 2.02618C9.5995 2.02618 9.823 1.91581 9.87615 1.78976C9.9294 1.66361 9.87587 1.60271 9.79218 1.56958C9.70848 1.53645 9.62626 1.54356 9.57301 1.6697Z" fill="#FEFBEE" fill-opacity="0.67"/>
<path d="M9.8596 4.78378C9.74656 4.86038 9.6875 5.09763 9.6875 5.09763C9.6875 5.09763 9.93398 5.12799 10.047 5.0514C10.1601 4.9748 10.1487 4.89424 10.0969 4.82033C10.0452 4.74641 9.97274 4.70719 9.8596 4.78378Z" fill="#FEFBEE" fill-opacity="0.67"/>
<path d="M3.3503 8.80869C3.48235 8.76089 3.60296 8.54837 3.60296 8.54837C3.60296 8.54837 3.36663 8.46504 3.23458 8.51284C3.10253 8.56064 3.09275 8.63982 3.12468 8.72148C3.1566 8.80315 3.21825 8.85649 3.3503 8.80869Z" fill="#FEFBEE" fill-opacity="0.67"/>
<path d="M5.05931 2.78171C5.12142 2.90435 5.3523 3.00097 5.3523 3.00097C5.3523 3.00097 5.41533 2.7663 5.35322 2.64366C5.29112 2.52102 5.20853 2.51881 5.12742 2.55692C5.0463 2.59503 4.99721 2.65907 5.05931 2.78171Z" fill="#FEFBEE" fill-opacity="0.67"/>
<path d="M3.86598 4.05105C3.9673 4.14628 4.21821 4.16188 4.21821 4.16188C4.21821 4.16188 4.19523 3.92019 4.09382 3.82496C3.9924 3.72973 3.91406 3.75464 3.85112 3.81703C3.78819 3.87941 3.76456 3.95582 3.86598 4.05105Z" fill="#FEFBEE" fill-opacity="0.67"/>
<path d="M6.16083 5.38619C6.26501 5.4745 6.50946 5.4674 6.50946 5.4674C6.50946 5.4674 6.47227 5.22184 6.36809 5.13353C6.26391 5.04522 6.18935 5.07797 6.13213 5.14774C6.07492 5.2175 6.05674 5.29788 6.16092 5.38619H6.16083Z" fill="#FEFBEE" fill-opacity="0.67"/>
</svg>
