<svg width="111" height="126" viewBox="0 0 111 126" fill="none" xmlns="http://www.w3.org/2000/svg">
<g clip-path="url(#clip0_879_77)">
<path d="M75.3313 43.8439C75.3304 43.827 75.3137 43.8106 75.2991 43.8139C75.2818 43.8144 75.2682 43.8284 75.2682 43.8455C75.2682 44.6526 74.737 45.4477 73.689 46.2089C73.6804 46.2147 73.6758 46.2244 73.6758 46.2346C73.7396 54.9541 72.1842 69.1298 69.4078 85.1271C67.1104 98.3639 64.4392 110.006 63.1939 112.208C61.3982 115.383 51.8812 116.811 45.6971 116.811C39.9102 116.811 30.4568 115.348 28.5442 112.208C27.418 110.358 24.5236 98.0705 22.092 84.817C19.0393 68.1767 17.4195 54.0939 17.6482 46.1796C17.6484 46.1694 17.6437 46.1597 17.6356 46.1535C16.637 45.4091 16.1306 44.6327 16.1306 43.8455C16.1306 43.8287 16.1173 43.8148 16.1005 43.8139C16.086 43.8143 16.0692 43.8259 16.0678 43.8426C15.0938 54.0476 18.9454 77.4748 20.6468 87.0734C23.5144 103.253 26.9808 118.541 28.2161 120.456C29.356 122.223 32.6676 123.281 35.245 123.856C38.3502 124.55 42.1606 124.948 45.6994 124.948C52.824 124.948 61.3342 123.542 63.1832 120.455C64.552 118.17 67.8231 103.72 70.6309 87.5585C72.2393 78.2983 75.9177 55.501 75.3313 43.8439Z" fill="#DFDAD0"/>
<path d="M73.7256 46.2334C73.7256 46.2216 73.7189 46.2109 73.7083 46.2056C73.6972 46.2 73.685 46.2015 73.6755 46.2082C69.5809 49.1813 58.3327 51.1787 45.6861 51.1787C32.9324 51.1787 21.6544 49.1591 17.6221 46.1529C17.6128 46.1459 17.6002 46.1448 17.5894 46.1499C17.5787 46.155 17.5719 46.1656 17.5716 46.1774C17.3429 54.0956 18.963 68.1832 22.0164 84.8276C24.4489 98.0875 27.3473 110.385 28.477 112.239C29.5522 114.005 32.8695 115.102 35.463 115.711C38.5627 116.439 42.3836 116.873 45.6836 116.873C51.883 116.873 61.4269 115.435 63.2348 112.239C64.4838 110.031 67.1581 98.3798 69.4565 85.137C72.2334 69.1363 73.7893 54.9564 73.7256 46.2334Z" fill="#EAE7E0"/>
<path d="M66.634 38.6074C61.0408 37.2156 53.6047 36.4492 45.6955 36.4492C37.7867 36.4492 30.3506 37.2158 24.7574 38.6074C19.151 40.0025 16.0636 41.863 16.0636 43.8464C16.0636 44.6544 16.5784 45.448 17.594 46.2049C21.636 49.2184 32.9293 51.2432 45.6955 51.2432C58.3546 51.2432 69.6178 49.2408 73.7219 46.2606C74.7872 45.4869 75.3274 44.6747 75.3274 43.8464C75.3274 41.863 72.2405 40.0025 66.634 38.6074Z" fill="#F8FBF6"/>
<path d="M66.634 38.6074C61.0408 37.2156 53.6047 36.4492 45.6955 36.4492C37.7867 36.4492 30.3506 37.2158 24.7574 38.6074C19.151 40.0025 16.0636 41.863 16.0636 43.8464C16.0636 44.6544 16.5784 45.448 17.594 46.2049C21.636 49.2184 32.9293 51.2432 45.6955 51.2432C58.3546 51.2432 69.6178 49.2408 73.7219 46.2606C74.7872 45.4869 75.3274 44.6747 75.3274 43.8464C75.3274 41.863 72.2405 40.0025 66.634 38.6074Z" fill="#F8FBF6"/>
<path d="M66.634 38.6074C61.0408 37.2156 53.6047 36.4492 45.6955 36.4492C37.7867 36.4492 30.3506 37.2158 24.7574 38.6074C19.151 40.0025 16.0636 41.863 16.0636 43.8464C16.0636 44.6544 16.5784 45.448 17.594 46.2049C21.636 49.2184 32.9293 51.2432 45.6955 51.2432C58.3546 51.2432 69.6178 49.2408 73.7219 46.2606C74.7872 45.4869 75.3274 44.6747 75.3274 43.8464C75.3274 41.863 72.2405 40.0025 66.634 38.6074Z" fill="#F8FBF6"/>
<path d="M66.634 38.6074C61.0408 37.2156 53.6047 36.4492 45.6955 36.4492C37.7867 36.4492 30.3506 37.2158 24.7574 38.6074C19.151 40.0025 16.0636 41.863 16.0636 43.8464C16.0636 44.6544 16.5784 45.448 17.594 46.2049C21.636 49.2184 32.9293 51.2432 45.6955 51.2432C58.3546 51.2432 69.6178 49.2408 73.7219 46.2606C74.7872 45.4869 75.3274 44.6747 75.3274 43.8464C75.3274 41.863 72.2405 40.0025 66.634 38.6074Z" fill="#F8FBF6"/>
<path d="M25.8759 47.4528C31.1682 48.5265 38.2043 49.118 45.6882 49.118C53.172 49.118 60.208 48.5265 65.5001 47.4528C70.8069 46.3759 73.7296 44.9379 73.7296 43.4031C73.7296 41.8683 70.8069 40.43 65.5001 39.3533C60.208 38.2795 53.1718 37.688 45.6882 37.688C38.2043 37.688 31.1682 38.2795 25.8759 39.3533C20.5691 40.43 17.6466 41.8683 17.6466 43.4031C17.6466 44.9379 20.5691 46.3759 25.8759 47.4528Z" fill="#DFDAD0"/>
<path d="M50.6588 81.7084L50.5223 81.6032C50.4151 81.541 50.298 81.5096 50.1755 81.5091C50.0781 81.5061 49.9893 81.5258 49.9111 81.5672C49.8249 81.5956 49.7491 81.644 49.6878 81.7105C49.62 81.773 49.5712 81.849 49.5453 81.9304C49.5018 82.0133 49.4813 82.1039 49.4852 82.2026L49.5097 82.3816C49.5421 82.4979 49.6018 82.6001 49.6868 82.6855L49.6901 82.6887L49.8265 82.7939C49.9401 82.8596 50.0649 82.8888 50.1949 82.8879C50.2825 82.8879 50.3653 82.8677 50.4377 82.8296C50.5237 82.8014 50.5996 82.7528 50.6609 82.6866C50.7288 82.6233 50.7776 82.5479 50.8035 82.4665C50.8472 82.3835 50.8676 82.2931 50.8635 82.1945L50.8389 82.0149C50.8068 81.899 50.7473 81.7968 50.6588 81.7084Z" fill="#FC7DA8"/>
<path d="M50.3245 86.3023C50.3245 86.5176 50.4686 86.7352 50.7441 86.7352C51.0194 86.7352 51.1635 86.5172 51.1635 86.3017C51.1635 86.0868 51.0194 85.8687 50.7441 85.8687C50.4686 85.8687 50.3245 86.0871 50.3245 86.3023Z" fill="#FC7DA8"/>
<path d="M53.1876 84.0647L53.1183 84.011C53.0628 83.9793 53.0024 83.9631 52.9397 83.9626C52.8877 83.961 52.8417 83.9715 52.8033 83.9923C52.758 84.007 52.7184 84.0329 52.6872 84.0662C52.6521 84.0991 52.6264 84.1391 52.6135 84.1794C52.5906 84.223 52.5801 84.2705 52.5822 84.3238L52.5949 84.4141C52.6112 84.4739 52.6421 84.5265 52.6861 84.5709L52.6893 84.5741L52.7585 84.6272C52.8172 84.661 52.8831 84.6758 52.9481 84.6761C52.9941 84.6761 53.0376 84.6656 53.0736 84.6464C53.1187 84.6317 53.1583 84.6058 53.1897 84.572C53.2251 84.5391 53.2505 84.4992 53.263 84.4592C53.2859 84.4157 53.2968 84.3681 53.2945 84.3151L53.282 84.224C53.2653 84.1643 53.2346 84.1113 53.1876 84.0647Z" fill="#FC7DA8"/>
<path d="M53.5839 91.2863C53.8262 91.2863 53.9529 91.0946 53.9529 90.9056C53.9529 90.7164 53.8262 90.5247 53.5839 90.5247C53.3416 90.5247 53.215 90.7164 53.215 90.9061C53.215 91.0952 53.3416 91.2863 53.5839 91.2863Z" fill="#FC7DA8"/>
<path d="M59.7306 88.9238C59.7306 88.7462 59.6116 88.5667 59.3842 88.5667C59.1567 88.5667 59.0376 88.7467 59.0376 88.9241C59.0376 89.0173 59.0684 89.1039 59.1241 89.169C59.1874 89.2429 59.2774 89.2818 59.3842 89.2818C59.6116 89.2813 59.7306 89.1017 59.7306 88.9238Z" fill="#FC7DA8"/>
<path d="M57.9686 81.6127C57.8837 81.7593 57.8403 81.9196 57.84 82.0942L57.8736 82.3416C57.9178 82.5003 57.9992 82.6399 58.1154 82.7572L58.1457 82.7958C58.2323 82.8888 58.3365 82.9556 58.4503 82.9924C58.5646 83.0521 58.691 83.0805 58.818 83.0754C58.828 83.0754 58.8379 83.0759 58.8478 83.0759C58.9683 83.0759 59.0825 83.0476 59.1834 82.9945C59.302 82.9561 59.4059 82.8888 59.4944 82.7937L59.6408 82.6041C59.7263 82.4559 59.77 82.2945 59.7703 82.1194L59.7365 81.8711C59.6917 81.7103 59.6093 81.5691 59.4891 81.4488L59.4548 81.4226C59.3686 81.3294 59.265 81.2631 59.1522 81.2268C59.0386 81.1671 58.9137 81.1408 58.7865 81.1444C58.6584 81.1412 58.5322 81.1671 58.4235 81.2247C58.3056 81.2631 58.2022 81.3294 58.1143 81.4245L57.9686 81.6127Z" fill="#FC7DA8"/>
<path d="M64.1518 80.7027C64.1888 80.6395 64.2075 80.5697 64.2075 80.4957C64.2075 80.4219 64.1888 80.3527 64.1518 80.2889C64.1155 80.2283 64.0664 80.1788 64.0047 80.1423C63.8777 80.069 63.7163 80.0704 63.5945 80.1407L63.587 80.1453L63.5086 80.2061C63.468 80.244 63.4386 80.2894 63.4229 80.338L63.4037 80.3835L63.4007 80.3957L63.3947 80.4411C63.3831 80.4943 63.3851 80.5479 63.4013 80.5965L63.4023 80.6046C63.4221 80.6739 63.4575 80.7345 63.5054 80.7826C63.5302 80.8134 63.5605 80.8367 63.5919 80.8493C63.6552 80.8863 63.7244 80.905 63.7984 80.9055C63.8722 80.905 63.9415 80.8863 64.0052 80.8493C64.0659 80.8134 64.1155 80.7639 64.1518 80.7027Z" fill="#FC7DA8"/>
<path d="M64.1284 85.5969C64.0446 85.5969 63.9737 85.6278 63.9232 85.6861C63.8791 85.7372 63.8553 85.8054 63.8553 85.8787C63.8553 86.0189 63.9489 86.1604 64.1284 86.1604C64.308 86.1604 64.4021 86.0189 64.4021 85.8781C64.4021 85.7386 64.308 85.5969 64.1284 85.5969Z" fill="#FC7DA8"/>
<path d="M62.5782 93.7078C62.3325 93.7078 62.2035 93.9026 62.2035 94.0949C62.2035 94.1949 62.2368 94.289 62.297 94.3588C62.3652 94.4388 62.4623 94.4807 62.5782 94.4807C62.824 94.4807 62.9525 94.2865 62.9525 94.0943C62.9525 93.9021 62.824 93.7078 62.5782 93.7078Z" fill="#FC7DA8"/>
<path d="M49.0472 95.4768C48.8012 95.4768 48.6726 95.6715 48.6726 95.8637C48.6726 95.9643 48.7059 96.0579 48.766 96.1282C48.8345 96.2082 48.9316 96.2501 49.0472 96.2501C49.2932 96.2501 49.4218 96.0554 49.4218 95.8632C49.4218 95.7626 49.3888 95.6685 49.3284 95.5986C49.2599 95.5187 49.1628 95.4768 49.0472 95.4768Z" fill="#FC7DA8"/>
<path d="M44.9424 88.5687C44.9424 88.6431 44.9671 88.7128 45.012 88.765C45.0629 88.8247 45.1353 88.8561 45.2213 88.8561C45.4045 88.8561 45.5004 88.7114 45.5004 88.5682C45.5004 88.4257 45.4045 88.281 45.2213 88.281C45.0382 88.281 44.9424 88.4257 44.9424 88.5687Z" fill="#FC7DA8"/>
<path d="M57.5734 110.35L57.5702 110.347L57.5233 110.312C57.4851 110.289 57.4432 110.278 57.3998 110.278C57.362 110.276 57.3313 110.284 57.3059 110.298C57.2744 110.308 57.2466 110.326 57.2249 110.349C57.2 110.373 57.1822 110.4 57.1741 110.427C57.1581 110.457 57.1504 110.491 57.1519 110.529L57.1607 110.59C57.1722 110.632 57.1935 110.669 57.2272 110.702L57.2742 110.738C57.3154 110.762 57.3637 110.772 57.4053 110.772C57.4379 110.772 57.4678 110.764 57.4913 110.751C57.5232 110.741 57.551 110.723 57.5723 110.7C57.5973 110.677 57.6153 110.649 57.6234 110.622C57.6396 110.592 57.647 110.559 57.6453 110.52L57.6366 110.459C57.6254 110.417 57.6039 110.381 57.5734 110.35Z" fill="#FC7DA8"/>
<path d="M53.4321 111.921L53.4289 111.919L53.2644 111.792C53.1356 111.717 52.995 111.679 52.8473 111.679C52.734 111.673 52.6243 111.698 52.5295 111.749C52.4259 111.782 52.335 111.841 52.2613 111.92C52.1797 111.996 52.1214 112.087 52.09 112.185C52.0377 112.285 52.0134 112.393 52.0182 112.511L52.0474 112.727C52.0867 112.867 52.1582 112.99 52.2636 113.095L52.4282 113.222C52.5568 113.297 52.6974 113.335 52.8448 113.335C52.8535 113.336 52.8621 113.336 52.8707 113.336C52.9763 113.336 53.0758 113.312 53.163 113.265C53.2663 113.232 53.3572 113.173 53.4312 113.093C53.5124 113.018 53.5709 112.927 53.6023 112.828C53.6548 112.729 53.6791 112.62 53.6744 112.503L53.6449 112.287C53.6062 112.147 53.5345 112.024 53.4321 111.921Z" fill="#FC7DA8"/>
<path d="M50.3198 110.924C50.3024 110.861 50.2707 110.806 50.2252 110.761L50.222 110.758L50.1503 110.703C50.0932 110.67 50.0305 110.652 49.9653 110.652C49.9105 110.651 49.8642 110.662 49.824 110.683C49.7775 110.698 49.7366 110.725 49.704 110.76C49.6676 110.794 49.641 110.835 49.6277 110.877C49.604 110.922 49.5929 110.971 49.5951 111.026L49.6082 111.12C49.6254 111.182 49.6575 111.237 49.706 111.285L49.778 111.34C49.8388 111.376 49.9051 111.391 49.9752 111.391C50.0224 111.391 50.067 111.38 50.1038 111.36C50.1505 111.345 50.1917 111.319 50.2241 111.283C50.2611 111.249 50.2876 111.208 50.3004 111.166C50.3242 111.121 50.3353 111.072 50.3332 111.02L50.3321 111.012L50.3198 110.924Z" fill="#FC7DA8"/>
<path d="M48.9001 112.81C48.6875 112.81 48.5763 112.978 48.5763 113.144C48.5763 113.231 48.6048 113.312 48.657 113.373C48.7164 113.442 48.8004 113.478 48.9001 113.478C49.1128 113.478 49.2241 113.31 49.2241 113.144C49.2241 113.057 49.1956 112.976 49.1435 112.915C49.0843 112.847 48.9999 112.81 48.9001 112.81Z" fill="#FC7DA8"/>
<path d="M34.2204 111.117L34.2173 111.114L34.1253 111.044C34.0529 111.001 33.9736 110.98 33.8904 110.98C33.8256 110.979 33.7634 110.991 33.7112 111.018C33.6522 111.038 33.6004 111.071 33.5592 111.116C33.5127 111.159 33.4797 111.211 33.4627 111.265C33.4328 111.321 33.4187 111.383 33.4215 111.452L33.438 111.572C33.4599 111.651 33.5005 111.721 33.5611 111.781L33.6531 111.852C33.7304 111.897 33.8157 111.915 33.9033 111.916C33.9632 111.916 34.0196 111.902 34.0673 111.876C34.1265 111.857 34.1783 111.824 34.2194 111.779C34.2657 111.737 34.299 111.685 34.3163 111.631C34.3461 111.573 34.3598 111.512 34.3572 111.443L34.3408 111.323C34.3184 111.244 34.2779 111.174 34.2204 111.117Z" fill="#FC7DA8"/>
<path d="M33.7197 108.684C33.7197 108.48 33.5832 108.274 33.3227 108.274C33.0619 108.274 32.9257 108.481 32.9257 108.685C32.9257 108.791 32.9607 108.891 33.0245 108.965C33.0972 109.049 33.2002 109.094 33.3227 109.094C33.4449 109.094 33.5481 109.049 33.6207 108.965C33.6845 108.891 33.7197 108.791 33.7197 108.684Z" fill="#FC7DA8"/>
<path d="M32.2301 109.922C32.1996 109.892 32.1628 109.87 32.1239 109.859L32.0268 109.837C31.9918 109.835 31.9632 109.843 31.9395 109.856C31.9099 109.866 31.8841 109.882 31.8609 109.908L31.8277 109.951C31.8072 109.986 31.7966 110.025 31.7969 110.071L31.8082 110.138L31.8176 110.162C31.8289 110.204 31.8503 110.24 31.8809 110.271C31.9114 110.302 31.9479 110.323 31.9898 110.335C32.0116 110.341 32.0335 110.344 32.0551 110.344C32.12 110.344 32.1833 110.318 32.2301 110.271C32.2927 110.208 32.3171 110.116 32.2934 110.031C32.2821 109.989 32.2607 109.953 32.2301 109.922Z" fill="#FC7DA8"/>
<path d="M30.7045 105.442C30.5362 105.442 30.448 105.575 30.448 105.707C30.448 105.838 30.5362 105.971 30.7045 105.971C30.8729 105.971 30.9611 105.838 30.9611 105.706C30.9611 105.575 30.8729 105.442 30.7045 105.442Z" fill="#FC7DA8"/>
<path d="M27.2341 86.6326C26.8415 86.6326 26.6626 86.9386 26.6626 87.2233C26.6626 87.5077 26.8415 87.8132 27.2341 87.8132C27.6266 87.8132 27.8053 87.5072 27.8053 87.2225C27.8053 86.9381 27.6267 86.6326 27.2341 86.6326Z" fill="#FC7DA8"/>
<path d="M27.929 91.9699C27.929 92.4333 28.2205 92.9319 28.8602 92.9319C29.5 92.9319 29.7915 92.4328 29.7915 91.9685C29.7915 91.5051 29.5 91.0063 28.8602 91.0063C28.2205 91.0063 27.929 91.5057 27.929 91.9699Z" fill="#FC7DA8"/>
<path d="M37.2485 84.9901C37.3049 85.0231 37.3669 85.0398 37.4321 85.0398C37.4975 85.0398 37.5591 85.0231 37.6159 84.9901C37.67 84.9577 37.7138 84.9138 37.7461 84.8597C37.7788 84.8025 37.7954 84.7413 37.7954 84.676C37.7954 84.6113 37.7788 84.5496 37.7477 84.4964L37.7256 84.4464C37.6959 84.3958 37.655 84.3549 37.6037 84.3245C37.498 84.2639 37.3662 84.2633 37.2605 84.3245C37.2094 84.3549 37.1685 84.3958 37.1366 84.4499L37.1185 84.4929C37.0857 84.5496 37.069 84.6113 37.069 84.6765C37.069 84.7413 37.0857 84.803 37.1187 84.8597C37.1505 84.9138 37.1941 84.9577 37.2485 84.9901Z" fill="#FC7DA8"/>
<path d="M32.3216 87.2166C32.345 87.2561 32.3768 87.288 32.4164 87.3112C32.4573 87.335 32.5022 87.3477 32.5498 87.3477C32.6434 87.3477 32.7309 87.2977 32.7782 87.2166C32.8253 87.1358 32.8253 87.0311 32.7782 86.9495C32.7309 86.8692 32.6434 86.8186 32.5498 86.8186C32.5022 86.8191 32.4573 86.8313 32.4162 86.8551C32.3767 86.8783 32.345 86.9102 32.3203 86.9522L32.3058 86.9819C32.2878 87.0133 32.2787 87.0473 32.2787 87.0831C32.2787 87.119 32.2878 87.1534 32.3048 87.1823L32.3166 87.2066L32.3216 87.2166Z" fill="#FC7DA8"/>
<path d="M30.7021 81.3506C30.6198 81.3506 30.5501 81.3809 30.501 81.438C30.4581 81.4882 30.4342 81.555 30.4342 81.6267C30.4342 81.7638 30.5264 81.9024 30.7021 81.9024C30.8779 81.9024 30.9697 81.7638 30.9697 81.6261C30.9697 81.4891 30.8779 81.3506 30.7021 81.3506Z" fill="#FC7DA8"/>
<path d="M25.7199 78.5689L25.7177 78.5604L25.6871 78.488L25.6829 78.4809L25.6356 78.4198L25.6299 78.4142L25.5688 78.3671L25.562 78.3631L25.4865 78.3312C25.4414 78.3171 25.3951 78.315 25.3562 78.3241C25.3237 78.3247 25.2926 78.3328 25.2702 78.3469C25.2276 78.3606 25.1903 78.3844 25.162 78.4152L25.1233 78.4491C25.0945 78.4758 25.0738 78.5083 25.0639 78.5401C25.0455 78.575 25.0368 78.6134 25.0385 78.6575L25.0487 78.7297C25.062 78.7784 25.0869 78.8208 25.1241 78.8583L25.2249 78.9397L25.2318 78.9438L25.307 78.9752C25.3338 78.9838 25.3612 78.9877 25.3871 78.9877C25.4045 78.9877 25.4215 78.9857 25.4373 78.9822C25.4686 78.9822 25.4984 78.9741 25.5258 78.959C25.5546 78.9503 25.5803 78.9352 25.5963 78.9179C25.6226 78.9022 25.6438 78.8816 25.6596 78.8557C25.6808 78.834 25.6955 78.8081 25.7012 78.7843C25.7227 78.744 25.7328 78.6994 25.7311 78.6519L25.7301 78.6443L25.7199 78.5689Z" fill="#FC7DA8"/>
<path d="M28.3654 83.07C28.2717 83.0164 28.1568 83.0164 28.0632 83.07C28.0186 83.0964 27.9826 83.1327 27.9558 83.1773C27.9289 83.2238 27.9152 83.2743 27.9152 83.3284C27.9152 83.382 27.9289 83.4331 27.9563 83.4801L27.9997 83.5428L28.0467 83.5894L28.0719 83.6087L28.0787 83.6128L28.1059 83.6244C28.1369 83.6405 28.1704 83.6486 28.2079 83.6486H28.2185L28.2833 83.6396L28.2915 83.6375L28.3496 83.6132L28.3565 83.6091L28.4068 83.5702L28.4127 83.5647L28.4546 83.509L28.473 83.4792C28.4996 83.4331 28.5134 83.382 28.5137 83.3279C28.5134 83.2743 28.4996 83.2238 28.4728 83.1773C28.4461 83.1327 28.4102 83.0964 28.3654 83.07Z" fill="#FC7DA8"/>
<path d="M40.1584 82.3378C40.1584 82.2712 40.1362 82.2085 40.0959 82.1618C40.0499 82.1082 39.9847 82.0798 39.9075 82.0798C39.8303 82.0798 39.7651 82.1082 39.719 82.1618C39.6788 82.2085 39.6566 82.2715 39.6566 82.3383C39.6566 82.4668 39.7429 82.5968 39.9075 82.5968C40.0721 82.5968 40.1584 82.4667 40.1584 82.3378Z" fill="#FC7DA8"/>
<path d="M41.2503 88.4767C41.2942 88.4256 41.3181 88.3575 41.3181 88.2842C41.3181 88.1439 41.2244 88.0024 41.0449 88.0024C40.961 88.0024 40.8898 88.0333 40.8396 88.0919C40.7957 88.143 40.7716 88.2112 40.7716 88.2847C40.7716 88.4248 40.8655 88.5664 41.0449 88.5664C41.1289 88.5664 41.1999 88.5354 41.2503 88.4767Z" fill="#FC7DA8"/>
<path d="M43.9505 89.489C43.8156 89.489 43.7448 89.5958 43.7448 89.701C43.7448 89.7556 43.7627 89.8072 43.7958 89.8456C43.8337 89.8897 43.8871 89.9129 43.9505 89.9129C44.0857 89.9129 44.1563 89.8062 44.1563 89.701C44.1563 89.6458 44.1384 89.5947 44.1054 89.5563C44.0674 89.5123 44.014 89.489 43.9505 89.489Z" fill="#FC7DA8"/>
<path d="M45.6692 80.5657C45.6692 80.4681 45.6369 80.377 45.5784 80.3091C45.5118 80.2318 45.4177 80.1909 45.3057 80.1909C45.0671 80.1909 44.9424 80.3796 44.9424 80.5662C44.9424 80.6638 44.9746 80.7549 45.0328 80.8226C45.0994 80.9001 45.1938 80.941 45.3057 80.941C45.5443 80.941 45.6692 80.7517 45.6692 80.5657Z" fill="#FC7DA8"/>
<path d="M44.3135 93.8395C44.2208 93.8695 44.1394 93.922 44.0733 93.9933C44.0011 94.0601 43.9493 94.141 43.919 94.2326C43.8726 94.3211 43.8512 94.4178 43.8554 94.523L43.8818 94.7156C43.9167 94.841 43.9808 94.9508 44.0754 95.0459L44.2226 95.1592C44.338 95.226 44.4639 95.2598 44.5957 95.2603C44.6037 95.2603 44.6112 95.2603 44.6192 95.2603C44.7133 95.2603 44.8022 95.2392 44.8806 95.1976C44.9733 95.1673 45.0545 95.1152 45.1206 95.044C45.1934 94.9767 45.2455 94.8947 45.2739 94.8066C45.3208 94.7177 45.3426 94.6201 45.3386 94.5143L45.3121 94.3211C45.2772 94.1961 45.2131 94.0859 45.1185 93.9912L44.9714 93.8779C44.8561 93.8112 44.7303 93.7773 44.5982 93.7768C44.4969 93.7743 44.3979 93.7946 44.3135 93.8395Z" fill="#FC7DA8"/>
<path d="M49.3334 88.3581C49.3334 88.5038 49.4312 88.6515 49.6181 88.6515C49.8049 88.6515 49.9026 88.5038 49.9026 88.3576C49.9026 88.2813 49.8775 88.2104 49.832 88.1572C49.7797 88.0961 49.7058 88.0642 49.6181 88.0642C49.5304 88.0642 49.4565 88.0966 49.4044 88.1572C49.3586 88.2104 49.3334 88.2818 49.3334 88.3581Z" fill="#FC7DA8"/>
<path d="M46.8465 85.2986C46.8759 85.2643 46.8921 85.2186 46.8921 85.1697C46.8921 85.0761 46.8292 84.981 46.7087 84.981C46.5885 84.981 46.5253 85.0761 46.5253 85.1702C46.5253 85.2186 46.5417 85.2643 46.5709 85.2986C46.6047 85.3376 46.6523 85.3589 46.7087 85.3589C46.7652 85.3584 46.8126 85.3376 46.8465 85.2986Z" fill="#FC7DA8"/>
<path d="M35.4898 80.706C35.4898 80.5746 35.4015 80.4419 35.2332 80.4419C35.0648 80.4419 34.9767 80.5751 34.9767 80.7065C34.9767 80.8374 35.0648 80.9705 35.2332 80.9705C35.4015 80.9705 35.4898 80.8374 35.4898 80.706Z" fill="#FC7DA8"/>
<path d="M34.7559 87.7405C34.7116 87.7921 34.6875 87.8603 34.6875 87.9336C34.6875 88.0733 34.7814 88.2154 34.9611 88.2154C35.1405 88.2154 35.2344 88.0733 35.2344 87.9331C35.2344 87.8598 35.2101 87.7916 35.1664 87.7405C35.1163 87.6824 35.0453 87.6514 34.9609 87.6514C34.8767 87.6514 34.8057 87.6824 34.7559 87.7405Z" fill="#FC7DA8"/>
<path d="M30.9011 85.0527L30.902 85.0573C30.9203 85.1214 30.9531 85.1781 31.0028 85.2276L31.0773 85.2849C31.1401 85.3212 31.2101 85.3369 31.2804 85.3369C31.3291 85.3369 31.3752 85.3258 31.4134 85.305C31.4618 85.2893 31.5041 85.262 31.5377 85.2262C31.5756 85.1908 31.6027 85.1487 31.6163 85.1052C31.6409 85.0581 31.6523 85.0076 31.6498 84.9515L31.6365 84.8545C31.6185 84.7901 31.5855 84.7339 31.5357 84.6839L31.4612 84.6268C31.4026 84.5928 31.338 84.5752 31.2705 84.5752C31.2185 84.5731 31.1665 84.5844 31.1251 84.6066C31.0768 84.6222 31.0344 84.6495 31.0009 84.686C30.9629 84.7209 30.9358 84.7634 30.9223 84.8064C30.8976 84.8534 30.8863 84.904 30.8888 84.9596L30.9011 85.0527Z" fill="#FC7DA8"/>
<path d="M59.437 92.108C59.4008 92.0407 59.351 91.9861 59.2891 91.9455C59.2335 91.8955 59.1674 91.8606 59.093 91.8428L59.0481 91.8322C58.945 91.8049 58.8409 91.8049 58.7373 91.8322C58.6393 91.8601 58.5525 91.9107 58.4765 91.9855C58.4484 92.0229 58.4195 92.0604 58.3881 92.1013C58.3356 92.1913 58.3088 92.2905 58.3083 92.3952C58.3055 92.4766 58.3226 92.5536 58.3576 92.6188C58.3812 92.6921 58.4226 92.7564 58.4795 92.8094C58.5525 92.8818 58.6393 92.9319 58.7378 92.9597C58.7893 92.9733 58.8414 92.9805 58.8932 92.9805C58.9449 92.9805 58.9965 92.9733 59.0474 92.9597L59.098 92.9475L59.2301 92.8913C59.2976 92.855 59.3527 92.8045 59.3892 92.7462C59.4264 92.7093 59.4526 92.6642 59.4644 92.6193C59.5009 92.5501 59.5178 92.4746 59.5145 92.3917L59.4953 92.2481L59.493 92.2394L59.437 92.108Z" fill="#FC7DA8"/>
<path d="M62.4601 83.6836C62.4601 83.5262 62.3544 83.3669 62.153 83.3669C61.9514 83.3669 61.8457 83.5262 61.8457 83.6841C61.8457 83.766 61.873 83.8428 61.9223 83.9006C61.9785 83.9658 62.0584 84.0002 62.153 84.0002C62.3544 84.0002 62.4601 83.8409 62.4601 83.6836Z" fill="#FC7DA8"/>
<path d="M66.5459 79.3684C66.4635 79.3684 66.3937 79.3987 66.3447 79.4558C66.3023 79.506 66.278 79.5731 66.278 79.6445C66.278 79.7816 66.3705 79.9208 66.5459 79.9208C66.7216 79.9208 66.8136 79.7816 66.8136 79.6445C66.8136 79.5728 66.7898 79.506 66.7473 79.4558C66.6983 79.3987 66.6284 79.3684 66.5459 79.3684Z" fill="#FC7DA8"/>
<path d="M58.3832 79.6635L58.3867 79.6656L58.4289 79.6833C58.4859 79.7167 58.5487 79.7333 58.6154 79.7338C58.6817 79.7333 58.7442 79.7167 58.8017 79.6833C58.8568 79.6505 58.9012 79.6059 58.934 79.5508C58.9669 79.4937 58.984 79.431 58.9842 79.3647C58.984 79.2979 58.9669 79.2357 58.9336 79.1779C58.9012 79.1228 58.8566 79.0784 58.8013 79.0455C58.6864 78.9797 58.5404 78.9813 58.432 79.044L58.3832 79.0657C58.3312 79.0965 58.2897 79.138 58.259 79.1896C58.228 79.2433 58.212 79.302 58.2118 79.3647C58.212 79.4269 58.2278 79.4861 58.2592 79.5397C58.2895 79.5913 58.3314 79.6332 58.3832 79.6635Z" fill="#FC7DA8"/>
<path d="M55.1118 80.5165C55.181 80.4362 55.2192 80.3278 55.2192 80.212C55.2192 79.9909 55.0711 79.7673 54.7883 79.7673C54.5055 79.7673 54.3577 79.9909 54.3577 80.2126C54.3577 80.433 54.5055 80.6571 54.7883 80.6571C54.9213 80.6571 55.0328 80.6085 55.1118 80.5165Z" fill="#FC7DA8"/>
<path d="M31.6797 89.8054C31.304 89.8054 31.3034 90.3972 31.6797 90.3972C32.0555 90.3972 32.056 89.8054 31.6797 89.8054Z" fill="#E6AEDB"/>
<path d="M32.1575 93.085C31.5853 93.085 31.5844 93.9858 32.1575 93.9858C32.7295 93.9858 32.7306 93.085 32.1575 93.085Z" fill="#E6AEDB"/>
<path d="M36.3 91.1003C36.3693 91.0351 36.4182 90.9578 36.447 90.8686C36.4914 90.7827 36.5118 90.6902 36.5081 90.591C36.4996 90.5274 36.4912 90.4636 36.4826 90.3998C36.4489 90.2779 36.3881 90.1722 36.3 90.0821C36.2519 90.0448 36.204 90.0074 36.1563 89.9694C36.0454 89.9047 35.9258 89.8718 35.7977 89.8712C35.6997 89.8677 35.6085 89.8885 35.5239 89.9334C35.4358 89.9623 35.3597 90.0118 35.2952 90.0821C35.226 90.1475 35.177 90.2243 35.1483 90.3138C35.1039 90.3998 35.0833 90.492 35.0871 90.591C35.0956 90.6548 35.104 90.7191 35.1125 90.7827C35.1463 90.9046 35.2071 91.0103 35.2952 91.1003C35.3431 91.1379 35.3911 91.1752 35.439 91.2128C35.5498 91.2779 35.6694 91.3107 35.7975 91.3112C35.8953 91.3148 35.9866 91.2941 36.0713 91.249C36.1594 91.2203 36.2355 91.1706 36.3 91.1003Z" fill="#E6AEDB"/>
<path d="M34.6711 86.8254C33.6293 86.8254 33.6277 88.4658 34.6711 88.4658C35.7129 88.4658 35.7145 86.8254 34.6711 86.8254Z" fill="#E6AEDB"/>
<path d="M28.2889 92.2729C27.8278 92.2729 27.827 92.9992 28.2889 92.9992C28.75 92.9992 28.7507 92.2729 28.2889 92.2729Z" fill="#E6AEDB"/>
<path d="M29.7409 96.0663L29.6697 96.0106C29.6149 95.9784 29.5556 95.9622 29.4922 95.9622C29.4438 95.9601 29.3986 95.9703 29.3568 95.9925C29.3131 96.0071 29.2753 96.0314 29.2435 96.0663C29.2093 96.0987 29.1849 96.1366 29.1708 96.1812C29.1488 96.2236 29.1387 96.2691 29.1405 96.3183C29.1447 96.3502 29.1489 96.3815 29.153 96.4129C29.1697 96.4735 29.2 96.5256 29.2435 96.5702L29.3147 96.6257C29.3695 96.6581 29.4287 96.6744 29.4922 96.6744C29.5406 96.6763 29.5858 96.6662 29.6277 96.644C29.6713 96.6292 29.709 96.6051 29.7409 96.5702C29.7752 96.5378 29.7994 96.4997 29.8136 96.4553C29.8356 96.4134 29.8456 96.3672 29.8438 96.3183L29.8313 96.2237C29.8146 96.163 29.7845 96.1109 29.7409 96.0663Z" fill="#E6AEDB"/>
<path d="M38.4643 96.2957C37.8156 96.2957 37.8143 97.3179 38.4643 97.3179C39.1134 97.3174 39.1146 96.2957 38.4643 96.2957Z" fill="#E6AEDB"/>
<path d="M36.7756 101.788C35.8277 101.788 35.8261 103.28 36.7756 103.28C37.7233 103.28 37.7251 101.788 36.7756 101.788Z" fill="#E6AEDB"/>
<path d="M41.2076 98.9075C40.7551 98.9075 40.7543 99.6202 41.2076 99.6202C41.6602 99.6202 41.6609 98.9075 41.2076 98.9075Z" fill="#E6AEDB"/>
<path d="M38.3362 100.282L38.394 100.327C38.4386 100.354 38.4865 100.367 38.5381 100.367C38.5773 100.368 38.6139 100.36 38.6479 100.342C38.6833 100.331 38.7138 100.311 38.7397 100.282C38.7677 100.256 38.7873 100.225 38.7987 100.189C38.8165 100.155 38.8248 100.118 38.8234 100.078L38.813 100.001C38.7994 99.9521 38.7751 99.9096 38.7397 99.8737L38.6821 99.8282C38.6375 99.8019 38.5896 99.7887 38.5381 99.7887C38.4987 99.7873 38.462 99.7958 38.428 99.8136C38.3928 99.8252 38.3621 99.8455 38.3362 99.8733C38.3086 99.8995 38.2887 99.9304 38.2774 99.9663C38.2594 100.001 38.2513 100.038 38.2527 100.078L38.2629 100.155C38.2765 100.203 38.301 100.246 38.3362 100.282Z" fill="#E6AEDB"/>
<path d="M41.3673 104.241C40.9405 104.241 40.9396 104.914 41.3673 104.914C41.7943 104.914 41.7952 104.241 41.3673 104.241Z" fill="#E6AEDB"/>
<path d="M44.9168 103.933C44.8869 103.91 44.8569 103.887 44.827 103.863C44.7577 103.822 44.6828 103.802 44.6027 103.801C44.5413 103.799 44.4843 103.812 44.4312 103.84C44.3763 103.858 44.3285 103.89 44.2883 103.933C44.245 103.974 44.2142 104.022 44.1962 104.078C44.1685 104.132 44.1557 104.19 44.1581 104.252C44.1632 104.292 44.1685 104.332 44.1738 104.372C44.1951 104.448 44.2332 104.514 44.2883 104.57C44.3181 104.594 44.3482 104.617 44.3782 104.641C44.4474 104.681 44.5223 104.702 44.6027 104.702C44.6638 104.705 44.7209 104.692 44.7737 104.664C44.8289 104.645 44.8766 104.614 44.9168 104.57C44.9602 104.53 44.991 104.481 45.0088 104.425C45.0368 104.372 45.0493 104.314 45.0472 104.252C45.0419 104.212 45.0366 104.172 45.0313 104.132C45.0102 104.056 44.972 103.989 44.9168 103.933Z" fill="#E6AEDB"/>
<path d="M43.9411 108.375C43.2578 108.375 43.2567 109.45 43.9411 109.45C44.6242 109.45 44.6254 108.375 43.9411 108.375Z" fill="#E6AEDB"/>
<path d="M38.792 106.151C38.0917 106.151 38.0906 107.254 38.792 107.254C39.4922 107.254 39.4934 106.151 38.792 106.151Z" fill="#E6AEDB"/>
<path d="M53.5163 94.9935C53.1949 94.8026 52.786 94.8026 52.4648 94.9935C52.3082 95.087 52.1836 95.2133 52.0909 95.3723C51.9968 95.5366 51.9493 95.7141 51.9487 95.9049L51.9519 95.9569L51.9533 95.9812C51.9538 96.1628 51.9989 96.3318 52.0888 96.4886C52.1235 96.5573 52.17 96.6155 52.2227 96.6671C52.2838 96.7414 52.3524 96.8087 52.4371 96.8598C52.5215 96.9088 52.6117 96.9367 52.7046 96.9539C52.7814 96.9786 52.861 96.9923 52.9454 96.9862C53.1248 96.9856 53.2917 96.9402 53.4463 96.8491L53.4687 96.8385L53.5163 96.8163C53.6728 96.7222 53.7973 96.5963 53.89 96.4375C53.9841 96.2731 54.0317 96.095 54.0322 95.9049C54.0322 95.5326 53.8331 95.1811 53.5163 94.9935Z" fill="#E6AEDB"/>
<path d="M49.6857 99.0383C49.0879 99.0383 49.0868 99.9797 49.6857 99.9797C50.2833 99.9797 50.2844 99.0383 49.6857 99.0383Z" fill="#E6AEDB"/>
<path d="M53.3954 102.672L53.3943 102.67L53.3927 102.667L53.3894 102.661L53.3876 102.658C53.3585 102.62 53.3286 102.58 53.2997 102.542C53.262 102.512 53.2245 102.483 53.1868 102.454C53.1425 102.435 53.0981 102.416 53.0537 102.397C52.9796 102.373 52.9056 102.37 52.8316 102.387C52.7812 102.387 52.7343 102.4 52.6908 102.425C52.6436 102.439 52.6027 102.463 52.5678 102.498C52.5261 102.523 52.4926 102.556 52.4679 102.599C52.4332 102.634 52.4094 102.676 52.3962 102.724C52.3611 102.791 52.3453 102.864 52.3481 102.941L52.368 103.092C52.3869 103.136 52.4055 103.181 52.4244 103.226C52.4533 103.264 52.4824 103.302 52.5114 103.341C52.5491 103.37 52.5867 103.4 52.6242 103.429C52.6686 103.448 52.713 103.467 52.7574 103.486L52.9054 103.506C52.9822 103.509 53.0537 103.493 53.1202 103.457C53.1674 103.444 53.2084 103.42 53.2433 103.385C53.3039 103.345 53.3517 103.292 53.3869 103.226L53.3936 103.214L53.3954 103.21L53.4488 103.083C53.4549 103.036 53.4613 102.988 53.4674 102.941C53.4613 102.894 53.4549 102.847 53.4488 102.8L53.3954 102.672Z" fill="#E6AEDB"/>
<path d="M56.8676 98.6082C56.4578 98.6082 56.4569 99.2535 56.8676 99.2535C57.2775 99.2535 57.2782 98.6082 56.8676 98.6082Z" fill="#E6AEDB"/>
<path d="M53.4757 98.9385C52.9635 98.9385 52.9626 99.7453 53.4757 99.7453C53.9882 99.7453 53.9891 98.9385 53.4757 98.9385Z" fill="#E6AEDB"/>
<path d="M56.6528 93.6011L56.7029 93.5992C57.3003 93.5724 57.3012 92.6846 56.7029 92.6578L56.6528 92.6553C56.0522 92.6285 56.0513 93.6279 56.6528 93.6011Z" fill="#E6AEDB"/>
<path d="M60.0884 97.1216C59.5503 97.1216 59.5496 97.9689 60.0884 97.9689C60.6263 97.9689 60.6272 97.1216 60.0884 97.1216Z" fill="#E6AEDB"/>
<path d="M56.5404 104.169C55.8145 104.169 55.8135 105.312 56.5404 105.312C57.2662 105.312 57.2672 104.169 56.5404 104.169Z" fill="#E6AEDB"/>
<path d="M61.542 99.2654C61.0298 99.2654 61.0288 100.072 61.542 100.072C62.0544 100.072 62.0552 99.2654 61.542 99.2654Z" fill="#E6AEDB"/>
<path d="M32.5352 77.907L32.464 77.8514C32.4092 77.8189 32.3499 77.8027 32.2865 77.8027C32.2381 77.8008 32.1929 77.8108 32.1511 77.8332C32.1075 77.8478 32.0696 77.8721 32.0378 77.907C32.0036 77.9394 31.9792 77.9773 31.9651 78.0217C31.9431 78.0644 31.9329 78.1098 31.9348 78.1588C31.939 78.1907 31.9432 78.2221 31.9473 78.2534C31.9641 78.3142 31.9943 78.3662 32.0378 78.4108L32.109 78.4664C32.1638 78.4989 32.223 78.5149 32.2865 78.5149C32.3349 78.517 32.3802 78.507 32.422 78.4846C32.4656 78.47 32.5033 78.4456 32.5352 78.4108C32.5695 78.3783 32.5937 78.3405 32.6079 78.2959C32.6299 78.254 32.6399 78.208 32.6381 78.1588L32.6256 78.0644C32.6089 78.0036 32.5788 77.9514 32.5352 77.907Z" fill="#E6AEDB"/>
<path d="M41.245 78.1365C40.596 78.1365 40.5948 79.1586 41.245 79.1586C41.8939 79.158 41.8951 78.1365 41.245 78.1365Z" fill="#E6AEDB"/>
<path d="M39.5423 83.6284C38.5944 83.6284 38.5928 85.1211 39.5423 85.1211C40.4901 85.1211 40.4918 83.6284 39.5423 83.6284Z" fill="#E6AEDB"/>
<path d="M43.9882 80.7483C43.5356 80.7483 43.5347 81.461 43.9882 81.461C44.4407 81.461 44.4416 80.7483 43.9882 80.7483Z" fill="#E6AEDB"/>
<path d="M41.1169 82.123L41.1745 82.1679C41.2191 82.1942 41.267 82.2074 41.3187 82.2074C41.3578 82.209 41.3944 82.2009 41.4286 82.1826C41.4638 82.1709 41.4945 82.1512 41.5202 82.123C41.5482 82.0966 41.5678 82.0658 41.5792 82.0298C41.597 81.9955 41.6053 81.9586 41.6039 81.9186L41.5937 81.8416C41.5801 81.7927 41.5556 81.7502 41.5202 81.7143L41.4626 81.6688C41.4182 81.6424 41.3701 81.6293 41.3187 81.6293C41.2794 81.6277 41.2427 81.6364 41.2085 81.654C41.1733 81.6656 41.1428 81.6859 41.1169 81.7137C41.0891 81.74 41.0692 81.771 41.0579 81.8068C41.0399 81.8416 41.0318 81.8786 41.0334 81.9186L41.0434 81.9955C41.057 82.0441 41.0815 82.0871 41.1169 82.123Z" fill="#E6AEDB"/>
<path d="M44.1477 86.082C43.721 86.082 43.7203 86.7542 44.1477 86.7542C44.5748 86.7542 44.5757 86.082 44.1477 86.082Z" fill="#E6AEDB"/>
<path d="M47.6837 85.7739C47.6538 85.7507 47.6236 85.7274 47.5937 85.7036C47.5244 85.6631 47.4496 85.6423 47.3694 85.6418C47.3082 85.6399 47.251 85.6525 47.1981 85.6807C47.143 85.6991 47.0952 85.7304 47.0551 85.7739C47.0117 85.8148 46.9809 85.8629 46.9629 85.9191C46.9353 85.9727 46.9224 86.0303 46.9249 86.0925C46.9301 86.1325 46.9353 86.1725 46.9407 86.2125C46.9619 86.2888 46.9999 86.355 47.0551 86.4112C47.085 86.4345 47.115 86.4577 47.1449 86.4815C47.2142 86.522 47.289 86.5427 47.3694 86.5427C47.4307 86.5453 47.4876 86.5326 47.5405 86.5042C47.5956 86.4861 47.6434 86.4547 47.6837 86.4112C47.7269 86.3702 47.7577 86.3217 47.7755 86.266C47.8035 86.2125 47.816 86.1542 47.8139 86.0925C47.8086 86.0525 47.8033 86.0127 47.7981 85.9727C47.7769 85.8962 47.7387 85.83 47.6837 85.7739Z" fill="#E6AEDB"/>
<path d="M46.7353 90.2151C46.0522 90.2151 46.051 91.2909 46.7353 91.2909C47.4184 91.2909 47.4196 90.2151 46.7353 90.2151Z" fill="#E6AEDB"/>
<path d="M41.5725 87.9919C40.8723 87.9919 40.8711 89.0945 41.5725 89.0945C42.2727 89.0945 42.2739 87.9919 41.5725 87.9919Z" fill="#E6AEDB"/>
<path d="M52.4661 80.8789C51.8683 80.8789 51.8675 81.8201 52.4661 81.8201C53.0638 81.8201 53.0648 80.8789 52.4661 80.8789Z" fill="#E6AEDB"/>
<path d="M56.1897 84.5127L56.1888 84.5108L56.187 84.5076L56.1837 84.5016L56.1819 84.4986C56.1528 84.4607 56.1231 84.4212 56.094 84.3827C56.0563 84.3534 56.0188 84.324 55.9812 84.2947C55.9368 84.2755 55.8924 84.2569 55.848 84.2377C55.774 84.2142 55.6999 84.2107 55.6259 84.2274C55.5755 84.2274 55.5286 84.2407 55.4851 84.2658C55.4379 84.2796 55.397 84.3039 55.3621 84.3388C55.3203 84.364 55.287 84.3975 55.2622 84.4399C55.2277 84.4753 55.2037 84.5167 55.1905 84.5648C55.1556 84.6321 55.1396 84.7044 55.1426 84.7823L55.1625 84.9325C55.1811 84.9771 55.2 85.0221 55.2187 85.0672C55.2478 85.105 55.2766 85.1435 55.3057 85.1813C55.3434 85.2108 55.3809 85.2405 55.4185 85.27C55.4631 85.2886 55.5073 85.3078 55.5517 85.3265L55.6999 85.3468C55.7767 85.3498 55.8482 85.3336 55.9146 85.2981C55.9619 85.2851 56.0029 85.2608 56.0376 85.2254C56.0982 85.1859 56.146 85.1329 56.1812 85.0672L56.1879 85.055L56.1898 85.0515L56.2431 84.9239C56.2492 84.8763 56.2556 84.8293 56.2617 84.7823C56.2556 84.7347 56.2492 84.6876 56.2431 84.6406L56.1897 84.5127Z" fill="#E6AEDB"/>
<path d="M59.6481 80.4524C59.2383 80.4524 59.2376 81.0978 59.6481 81.0978C60.0581 81.0978 60.0586 80.4524 59.6481 80.4524Z" fill="#E6AEDB"/>
<path d="M56.27 80.7827C55.7578 80.7827 55.7569 81.5895 56.27 81.5895C56.7823 81.5895 56.7832 80.7827 56.27 80.7827Z" fill="#E6AEDB"/>
<path d="M62.8825 78.9622C62.3444 78.9622 62.3439 79.8095 62.8825 79.8095C63.4203 79.8095 63.4213 78.9622 62.8825 78.9622Z" fill="#E6AEDB"/>
<path d="M59.3209 86.0134C58.595 86.0134 58.594 87.156 59.3209 87.156C60.0467 87.156 60.0479 86.0134 59.3209 86.0134Z" fill="#E6AEDB"/>
<path d="M64.3363 81.1062C63.824 81.1062 63.8229 81.913 64.3363 81.913C64.8487 81.913 64.8492 81.1062 64.3363 81.1062Z" fill="#E6AEDB"/>
<path d="M69.2684 74.6543C69.2527 74.6515 69.236 74.6612 69.2316 74.6772C68.9988 75.5804 66.4511 76.428 62.0583 77.0639C57.642 77.7031 51.8293 78.0551 45.6915 78.0551C39.571 78.0551 33.7699 77.7047 29.3577 77.0688C24.9701 76.4361 22.4119 75.5918 22.1546 74.6915C22.1499 74.6754 22.1334 74.6652 22.1176 74.6693C22.1014 74.6728 22.0905 74.6883 22.093 74.7049C23.235 82.2012 24.8447 90.7845 26.5097 98.2543C28.0292 105.071 29.3696 109.942 30.0076 110.965C31.762 113.777 40.3994 115.087 45.6846 115.087C51.3326 115.087 60.0283 113.808 61.6758 110.964C63.1535 108.414 66.9589 91.1741 69.2938 74.6895C69.2957 74.673 69.2852 74.6575 69.2684 74.6543Z" fill="#F77ADE"/>
<path d="M17 44.881C27.5714 54.5714 72.5001 51.0476 74.262 44" stroke="white" stroke-width="1.2" stroke-linecap="round"/>
<path d="M17 43.881C27.5714 53.5714 72.5001 50.0476 74.262 43" stroke="white" stroke-width="1.2" stroke-linecap="round"/>
<path d="M35.0355 86.0366C35.0355 85.9051 34.9473 85.7725 34.779 85.7725C34.6106 85.7725 34.5225 85.9055 34.5225 86.0371C34.5225 86.168 34.6106 86.301 34.779 86.301C34.9473 86.301 35.0355 86.168 35.0355 86.0366Z" fill="#FC7DA8"/>
<path d="M34.3015 93.0672C34.2574 93.1189 34.2333 93.1871 34.2333 93.2605C34.2333 93.4001 34.3272 93.5423 34.5067 93.5423C34.6863 93.5423 34.7802 93.4001 34.7802 93.26C34.7802 93.1867 34.7559 93.1183 34.712 93.0672C34.6619 93.0091 34.5911 92.9783 34.5067 92.9783C34.4225 92.9783 34.3515 93.0091 34.3015 93.0672Z" fill="#FC7DA8"/>
<path d="M30.4468 90.383L30.4478 90.3876C30.466 90.4517 30.4988 90.5085 30.5486 90.558L30.623 90.615C30.6859 90.6515 30.7559 90.6672 30.8261 90.6672C30.8749 90.6672 30.921 90.6561 30.9592 90.6353C31.0075 90.6196 31.0499 90.5923 31.0834 90.5564C31.1214 90.521 31.1485 90.479 31.162 90.4355C31.1867 90.3885 31.198 90.3379 31.1956 90.2819L31.1823 90.1846C31.1643 90.1205 31.1312 90.0643 31.0815 90.0142L31.007 89.9572C30.9484 89.9231 30.8838 89.9055 30.8163 89.9055C30.7643 89.9034 30.7123 89.9145 30.6708 89.9369C30.6226 89.9526 30.5802 89.9799 30.5466 90.0162C30.5087 90.0512 30.4816 90.0937 30.468 90.1367C30.4434 90.1837 30.4321 90.2343 30.4345 90.29L30.4468 90.383Z" fill="#FC7DA8"/>
<path d="M58.9827 97.4349C58.9464 97.3676 58.8968 97.313 58.8349 97.2724C58.7792 97.2224 58.7132 97.1875 58.6386 97.1699L58.5939 97.1592C58.4908 97.1318 58.3867 97.1318 58.2831 97.1592C58.1851 97.187 58.0983 97.2376 58.0223 97.3124C57.9941 97.35 57.9652 97.3873 57.9339 97.4284C57.8814 97.5184 57.8546 97.6174 57.8541 97.7223C57.8512 97.8037 57.8683 97.8805 57.9034 97.9457C57.927 98.0191 57.9684 98.0833 58.0253 98.1365C58.0983 98.2087 58.1851 98.2588 58.2836 98.2866C58.3351 98.3003 58.3872 98.3074 58.4388 98.3074C58.4906 98.3074 58.5421 98.3003 58.5932 98.2866L58.6437 98.2744L58.7757 98.2184C58.8434 98.1819 58.8985 98.1314 58.935 98.0732C58.9722 98.0362 58.9984 97.9913 59.0102 97.9462C59.0467 97.8769 59.0636 97.8015 59.0603 97.7186L59.0411 97.575L59.0388 97.5663L58.9827 97.4349Z" fill="#FC7DA8"/>
<path d="M62.0059 89.0141C62.0059 88.8568 61.9001 88.6975 61.6988 88.6975C61.4972 88.6975 61.3915 88.8568 61.3915 89.0147C61.3915 89.0966 61.4188 89.1734 61.4681 89.2312C61.5243 89.2964 61.6041 89.3307 61.6988 89.3307C61.9001 89.3307 62.0059 89.1715 62.0059 89.0141Z" fill="#FC7DA8"/>
<path d="M66.0917 84.6987C66.0093 84.6987 65.9395 84.729 65.8905 84.7861C65.848 84.8363 65.8237 84.9035 65.8237 84.9748C65.8237 85.1119 65.9162 85.2511 66.0917 85.2511C66.2672 85.2511 66.3594 85.1119 66.3594 84.9748C66.3594 84.9029 66.3356 84.8363 66.2931 84.7861C66.2439 84.729 66.1742 84.6987 66.0917 84.6987Z" fill="#FC7DA8"/>
<path d="M57.9289 84.9942L57.9325 84.9963L57.9746 85.0139C58.0317 85.0474 58.0944 85.064 58.1612 85.0645C58.2274 85.064 58.2899 85.0474 58.3474 85.0139C58.4025 84.981 58.4469 84.9366 58.4797 84.8814C58.5127 84.8243 58.5297 84.7616 58.5299 84.6952C58.5297 84.6286 58.5127 84.5662 58.4794 84.5086C58.4469 84.4535 58.4024 84.4091 58.347 84.3761C58.2322 84.3104 58.0861 84.3118 57.9777 84.3745L57.9289 84.3964C57.877 84.4272 57.8354 84.4686 57.8047 84.5202C57.7737 84.5738 57.7577 84.6325 57.7573 84.6952C57.7577 84.7576 57.7735 84.8166 57.8049 84.8703C57.8352 84.9219 57.8771 84.9639 57.9289 84.9942Z" fill="#FC7DA8"/>
<path d="M54.6575 85.8471C54.7268 85.7665 54.7648 85.6584 54.7648 85.5426C54.7648 85.3215 54.6168 85.0979 54.3341 85.0979C54.0513 85.0979 53.9034 85.3215 53.9034 85.5431C53.9034 85.7635 54.0513 85.9877 54.3341 85.9877C54.4669 85.9877 54.5786 85.939 54.6575 85.8471Z" fill="#FC7DA8"/>
<path d="M31.2255 95.136C30.8498 95.136 30.8492 95.7278 31.2255 95.7278C31.6013 95.7278 31.6018 95.136 31.2255 95.136Z" fill="#E6AEDB"/>
<path d="M31.7032 98.4155C31.1311 98.4155 31.1302 99.3164 31.7032 99.3164C32.2753 99.3164 32.2764 98.4155 31.7032 98.4155Z" fill="#E6AEDB"/>
<path d="M35.8458 96.4309C35.915 96.3657 35.964 96.2884 35.9927 96.1992C36.0371 96.1132 36.0576 96.0207 36.0539 95.9215C36.0454 95.8579 36.037 95.7942 36.0283 95.7304C35.9947 95.6084 35.9339 95.5027 35.8458 95.4127C35.7977 95.3753 35.7498 95.3378 35.702 95.2999C35.5912 95.2353 35.4716 95.2023 35.3433 95.2018C35.2455 95.1983 35.1543 95.2191 35.0697 95.264C34.9816 95.2929 34.9055 95.3424 34.841 95.4127C34.7717 95.4781 34.7228 95.5549 34.694 95.6444C34.6496 95.7304 34.629 95.8225 34.6329 95.9215C34.6414 95.9853 34.6496 96.0496 34.6583 96.1132C34.6919 96.2352 34.7529 96.3409 34.841 96.4309C34.8889 96.4684 34.9368 96.5058 34.9848 96.5431C35.0956 96.6085 35.215 96.6413 35.3433 96.6418C35.4411 96.6453 35.5322 96.6247 35.6171 96.5796C35.7052 96.5509 35.7813 96.5012 35.8458 96.4309Z" fill="#E6AEDB"/>
<path d="M34.2169 92.156C33.1751 92.156 33.1734 93.7963 34.2169 93.7963C35.2588 93.7963 35.2603 92.156 34.2169 92.156Z" fill="#E6AEDB"/>
<path d="M27.8346 97.6033C27.3736 97.6033 27.3727 98.3295 27.8346 98.3295C28.2958 98.3295 28.2965 97.6033 27.8346 97.6033Z" fill="#E6AEDB"/>
<path d="M29.2866 101.393L29.2154 101.338C29.1606 101.305 29.1014 101.289 29.0379 101.289C28.9895 101.287 28.9444 101.297 28.9025 101.319C28.8589 101.334 28.8211 101.358 28.7893 101.393C28.755 101.426 28.7307 101.464 28.7165 101.508C28.6946 101.551 28.6844 101.596 28.6862 101.645C28.6905 101.677 28.6946 101.708 28.6988 101.74C28.7155 101.801 28.7458 101.853 28.7893 101.897L28.8604 101.953C28.9153 101.985 28.9745 102.001 29.0379 102.001C29.0864 102.003 29.1316 101.993 29.1734 101.971C29.217 101.956 29.2547 101.932 29.2866 101.897C29.3209 101.865 29.3452 101.827 29.3594 101.782C29.3814 101.74 29.3914 101.694 29.3896 101.645L29.3771 101.551C29.3603 101.49 29.3302 101.438 29.2866 101.393Z" fill="#E6AEDB"/>
<path d="M38.0101 101.626C37.3614 101.626 37.3601 102.648 38.0101 102.648C38.6592 102.648 38.6602 101.626 38.0101 101.626Z" fill="#E6AEDB"/>
<path d="M36.3214 107.118C35.3735 107.118 35.3719 108.611 36.3214 108.611C37.2691 108.611 37.2709 107.118 36.3214 107.118Z" fill="#E6AEDB"/>
<path d="M40.7534 104.235C40.3009 104.235 40.3 104.947 40.7534 104.947C41.206 104.947 41.2067 104.235 40.7534 104.235Z" fill="#E6AEDB"/>
<path d="M37.882 105.613L37.9398 105.658C37.9842 105.684 38.0323 105.697 38.0837 105.697C38.123 105.699 38.1597 105.691 38.1937 105.672C38.2291 105.661 38.2596 105.641 38.2855 105.613C38.3135 105.587 38.3331 105.556 38.3445 105.52C38.3623 105.485 38.3706 105.448 38.3692 105.408L38.3588 105.332C38.3452 105.282 38.3209 105.24 38.2855 105.204L38.2277 105.159C38.1833 105.132 38.1352 105.119 38.0837 105.119C38.0445 105.117 38.0078 105.126 37.9738 105.144C37.9386 105.156 37.9079 105.176 37.882 105.203C37.8543 105.23 37.8344 105.261 37.8232 105.297C37.8052 105.332 37.7971 105.368 37.7985 105.408L37.8087 105.485C37.8223 105.534 37.8468 105.577 37.882 105.613Z" fill="#E6AEDB"/>
<path d="M40.913 109.572C40.4863 109.572 40.4854 110.244 40.913 110.244C41.3401 110.244 41.341 109.572 40.913 109.572Z" fill="#E6AEDB"/>
<path d="M44.4626 109.26C44.4327 109.237 44.4027 109.214 44.3727 109.19C44.3035 109.149 44.2286 109.129 44.1485 109.128C44.0871 109.126 44.0301 109.139 43.977 109.167C43.9221 109.185 43.8743 109.217 43.8341 109.26C43.7908 109.301 43.76 109.349 43.742 109.405C43.7143 109.459 43.7015 109.517 43.7038 109.579C43.709 109.619 43.7143 109.659 43.7196 109.699C43.7409 109.775 43.7788 109.841 43.8341 109.898C43.8639 109.921 43.894 109.944 43.924 109.968C43.9932 110.008 44.0681 110.029 44.1485 110.029C44.2096 110.031 44.2667 110.019 44.3195 109.991C44.3747 109.972 44.4224 109.941 44.4626 109.898C44.5059 109.856 44.5368 109.808 44.5546 109.752C44.5824 109.699 44.5951 109.64 44.593 109.579C44.5877 109.539 44.5824 109.499 44.5771 109.459C44.556 109.383 44.5178 109.316 44.4626 109.26Z" fill="#E6AEDB"/>
<path d="M43.4868 113.705C42.8036 113.705 42.8025 114.781 43.4868 114.781C44.1699 114.781 44.1712 113.705 43.4868 113.705Z" fill="#E6AEDB"/>
<path d="M38.3378 111.482C37.6374 111.482 37.6364 112.584 38.3378 112.584C39.038 112.584 39.0392 111.482 38.3378 111.482Z" fill="#E6AEDB"/>
<path d="M53.0621 100.324C52.7407 100.133 52.3318 100.133 52.0104 100.324C51.8539 100.417 51.7294 100.544 51.6367 100.703C51.5426 100.867 51.495 101.044 51.4945 101.235L51.4977 101.287L51.4991 101.312C51.4996 101.493 51.5447 101.662 51.6346 101.819C51.6693 101.888 51.7158 101.946 51.7683 101.997C51.8296 102.072 51.8982 102.139 51.9829 102.19C52.0673 102.239 52.1573 102.267 52.2504 102.284C52.3272 102.309 52.4068 102.323 52.4912 102.317C52.6706 102.316 52.8374 102.271 52.9921 102.179L53.0145 102.169L53.0621 102.147C53.2185 102.053 53.3431 101.927 53.4358 101.768C53.5299 101.603 53.5774 101.425 53.578 101.235C53.578 100.863 53.3789 100.511 53.0621 100.324Z" fill="#E6AEDB"/>
<path d="M49.2315 104.365C48.6337 104.365 48.6326 105.307 49.2315 105.307C49.8291 105.307 49.8302 104.365 49.2315 104.365Z" fill="#E6AEDB"/>
<path d="M52.9412 108.002L52.9401 108L52.9383 107.997L52.9352 107.991L52.9334 107.988C52.9043 107.95 52.8744 107.911 52.8455 107.872C52.8078 107.843 52.7702 107.814 52.7325 107.784C52.6883 107.765 52.6437 107.746 52.5995 107.727C52.5253 107.704 52.4513 107.7 52.3773 107.717C52.3269 107.717 52.2801 107.73 52.2366 107.756C52.1893 107.769 52.1485 107.794 52.1136 107.828C52.0718 107.854 52.0383 107.887 52.0137 107.93C51.979 107.965 51.9552 108.006 51.942 108.054C51.9069 108.122 51.8911 108.194 51.8939 108.272L51.9138 108.422C51.9326 108.467 51.9513 108.512 51.9702 108.557C51.9991 108.595 52.0281 108.633 52.0572 108.671C52.0947 108.7 52.1324 108.73 52.17 108.76C52.2144 108.778 52.2588 108.797 52.3032 108.816L52.4512 108.836C52.528 108.84 52.5995 108.823 52.6659 108.788C52.7132 108.775 52.7542 108.75 52.7891 108.715C52.8497 108.676 52.8975 108.622 52.9325 108.557L52.9394 108.545L52.9412 108.541L52.9945 108.414C53.0007 108.366 53.007 108.319 53.0132 108.272C53.007 108.224 53.0007 108.177 52.9945 108.13L52.9412 108.002Z" fill="#E6AEDB"/>
<path d="M56.4134 103.939C56.0036 103.939 56.0027 104.584 56.4134 104.584C56.8232 104.584 56.8239 103.939 56.4134 103.939Z" fill="#E6AEDB"/>
<path d="M53.0214 104.269C52.5092 104.269 52.5084 105.076 53.0214 105.076C53.5338 105.076 53.5349 104.269 53.0214 104.269Z" fill="#E6AEDB"/>
<path d="M56.1986 98.9317L56.2486 98.9297C56.8461 98.9029 56.847 98.0151 56.2486 97.9883L56.1986 97.9859C55.598 97.9591 55.5971 98.9584 56.1986 98.9317Z" fill="#E6AEDB"/>
<path d="M59.6339 102.452C59.096 102.452 59.0953 103.299 59.6339 103.299C60.172 103.299 60.1729 102.452 59.6339 102.452Z" fill="#E6AEDB"/>
<path d="M56.0862 109.5C55.3603 109.5 55.3592 110.642 56.0862 110.642C56.8119 110.642 56.813 109.5 56.0862 109.5Z" fill="#E6AEDB"/>
<path d="M61.0877 104.596C60.5754 104.596 60.5745 105.403 61.0877 105.403C61.6001 105.403 61.6008 104.596 61.0877 104.596Z" fill="#E6AEDB"/>
<path d="M34.4976 80.2561C33.9255 80.2561 33.9244 81.157 34.4976 81.157C35.0697 81.157 35.0707 80.2561 34.4976 80.2561Z" fill="#E6AEDB"/>
<path d="M30.6152 79.4438C30.1541 79.4438 30.1533 80.1699 30.6152 80.1699C31.0763 80.1699 31.077 79.4438 30.6152 79.4438Z" fill="#E6AEDB"/>
<path d="M32.081 83.234L32.0097 83.1784C31.955 83.1461 31.8957 83.1299 31.8323 83.1299C31.7838 83.1278 31.7387 83.138 31.6968 83.1602C31.6532 83.1748 31.6154 83.1991 31.5836 83.234C31.5493 83.2665 31.525 83.3043 31.5108 83.3489C31.4889 83.3914 31.4787 83.4368 31.4806 83.486C31.4848 83.5179 31.4889 83.5492 31.4931 83.5806C31.5098 83.6412 31.5401 83.6934 31.5836 83.7378L31.6548 83.7934C31.7096 83.8259 31.7688 83.8421 31.8323 83.8421C31.8807 83.844 31.9259 83.834 31.9678 83.8118C32.0113 83.797 32.049 83.7728 32.081 83.7378C32.1152 83.7055 32.1395 83.6675 32.1537 83.6231C32.1757 83.5811 32.1857 83.535 32.1839 83.486L32.1714 83.3914C32.1546 83.3308 32.1246 83.2786 32.081 83.234Z" fill="#E6AEDB"/>
<path d="M40.7907 83.4668C40.1418 83.4668 40.1406 84.4891 40.7907 84.4891C41.4396 84.4885 41.4409 83.4668 40.7907 83.4668Z" fill="#E6AEDB"/>
<path d="M39.0881 88.959C38.1402 88.959 38.1386 90.4517 39.0881 90.4517C40.0358 90.4517 40.0376 88.959 39.0881 88.959Z" fill="#E6AEDB"/>
<path d="M43.534 86.0752C43.0814 86.0752 43.0805 86.7879 43.534 86.7879C43.9865 86.7879 43.9872 86.0752 43.534 86.0752Z" fill="#E6AEDB"/>
<path d="M40.6625 87.4536L40.7203 87.4985C40.7649 87.5248 40.8128 87.538 40.8644 87.538C40.9035 87.5396 40.9402 87.5315 40.9744 87.5131C41.0096 87.5015 41.0403 87.4818 41.066 87.4536C41.094 87.4272 41.1136 87.3963 41.125 87.3604C41.1428 87.326 41.1511 87.2892 41.1497 87.2492L41.1395 87.1722C41.1259 87.1232 41.1014 87.0808 41.066 87.0448L41.0084 86.9994C40.9638 86.9729 40.9159 86.9599 40.8644 86.9599C40.8251 86.9583 40.7883 86.9669 40.7543 86.9846C40.7191 86.9962 40.6884 87.0165 40.6625 87.0443C40.6349 87.0706 40.6149 87.1014 40.6037 87.1373C40.5857 87.1722 40.5776 87.2092 40.5792 87.2492L40.5892 87.326C40.6028 87.3747 40.6273 87.4176 40.6625 87.4536Z" fill="#E6AEDB"/>
<path d="M43.6935 91.4126C43.2667 91.4126 43.266 92.0848 43.6935 92.0848C44.1206 92.0848 44.1214 91.4126 43.6935 91.4126Z" fill="#E6AEDB"/>
<path d="M47.2293 91.1009C47.1994 91.0777 47.1694 91.0544 47.1395 91.0306C47.0702 90.9901 46.9953 90.9695 46.9152 90.969C46.8538 90.9669 46.7968 90.9795 46.7437 91.0079C46.6888 91.0261 46.641 91.0574 46.6008 91.1009C46.5575 91.142 46.5267 91.1899 46.5087 91.2461C46.481 91.2997 46.4682 91.3575 46.4706 91.4197C46.4757 91.4595 46.481 91.4995 46.4863 91.5395C46.5076 91.6158 46.5457 91.6822 46.6008 91.7382C46.6306 91.7615 46.6607 91.7847 46.6907 91.8085C46.7599 91.849 46.8348 91.8698 46.9152 91.8698C46.9763 91.8723 47.0334 91.8596 47.0862 91.8313C47.1414 91.8131 47.1891 91.7817 47.2293 91.7382C47.2727 91.6973 47.3035 91.6487 47.3213 91.593C47.3493 91.5395 47.3618 91.4813 47.3597 91.4197C47.3544 91.3797 47.3491 91.3397 47.3438 91.2997C47.3227 91.2234 47.2845 91.1571 47.2293 91.1009Z" fill="#E6AEDB"/>
<path d="M46.2811 95.5454C45.598 95.5454 45.5968 96.6212 46.2811 96.6212C46.9642 96.6212 46.9654 95.5454 46.2811 95.5454Z" fill="#E6AEDB"/>
<path d="M41.1183 93.3225C40.418 93.3225 40.4169 94.4251 41.1183 94.4251C41.8185 94.4251 41.8197 93.3225 41.1183 93.3225Z" fill="#E6AEDB"/>
<path d="M55.8426 82.1643C55.5212 81.9739 55.1125 81.9739 54.7911 82.1643C54.6345 82.2582 54.5099 82.3844 54.4172 82.543C54.3231 82.7077 54.2756 82.8853 54.275 83.0759L54.2782 83.1279L54.2796 83.1522C54.2801 83.3339 54.3254 83.5027 54.4151 83.6595C54.4498 83.7284 54.4963 83.7865 54.549 83.8381C54.6101 83.9125 54.6787 83.9798 54.7634 84.0307C54.8478 84.0799 54.938 84.1077 55.0309 84.1248C55.1077 84.1496 55.1873 84.1634 55.2717 84.1572C55.4511 84.1567 55.6179 84.1112 55.7726 84.0201L55.795 84.0096L55.8426 83.9874C55.999 83.8933 56.1236 83.7673 56.2163 83.6084C56.3104 83.444 56.3579 83.266 56.3585 83.0759C56.3585 82.7036 56.1594 82.3523 55.8426 82.1643Z" fill="#E6AEDB"/>
<path d="M52.012 86.2061C51.4142 86.2061 51.4131 87.1474 52.012 87.1474C52.6096 87.1474 52.6107 86.2061 52.012 86.2061Z" fill="#E6AEDB"/>
<path d="M55.7354 89.843L55.7346 89.8411L55.7328 89.8379L55.7294 89.8319L55.7277 89.8289C55.6986 89.791 55.6688 89.7514 55.6398 89.713C55.6021 89.6837 55.5645 89.6543 55.527 89.6251C55.4826 89.6059 55.4382 89.5872 55.3938 89.5678C55.3198 89.5446 55.2456 89.541 55.1716 89.5578C55.1212 89.5578 55.0744 89.571 55.0309 89.5962C54.9836 89.6099 54.9428 89.6341 54.9079 89.6691C54.8661 89.6943 54.8326 89.7278 54.808 89.7703C54.7733 89.8057 54.7495 89.8471 54.7363 89.8952C54.7014 89.9625 54.6853 90.0347 54.6883 90.1126L54.7083 90.2629C54.7269 90.3073 54.7458 90.3524 54.7645 90.3973C54.7935 90.4354 54.8224 90.4738 54.8515 90.5117C54.8892 90.5411 54.9267 90.5709 54.9643 90.6003C55.0088 90.619 55.0531 90.6382 55.0975 90.6568L55.2456 90.6771C55.3223 90.6801 55.394 90.6639 55.4604 90.6285C55.5076 90.6154 55.5487 90.5911 55.5834 90.5557C55.644 90.5162 55.6917 90.4632 55.727 90.3973L55.7337 90.3853L55.7356 90.3816L55.7888 90.2542C55.795 90.2067 55.8013 90.1596 55.8075 90.1126C55.8013 90.065 55.795 90.018 55.7888 89.9709L55.7354 89.843Z" fill="#E6AEDB"/>
<path d="M59.1938 85.7827C58.784 85.7827 58.7831 86.4281 59.1938 86.4281C59.6038 86.4281 59.6043 85.7827 59.1938 85.7827Z" fill="#E6AEDB"/>
<path d="M55.8158 86.1096C55.3034 86.1096 55.3025 86.9164 55.8158 86.9164C56.3281 86.9164 56.329 86.1096 55.8158 86.1096Z" fill="#E6AEDB"/>
<path d="M58.9929 80.7723L59.0429 80.77C59.6404 80.7432 59.6414 79.8557 59.0429 79.8288L58.9929 79.8265C58.3924 79.7995 58.3913 80.7992 58.9929 80.7723Z" fill="#E6AEDB"/>
<path d="M62.4284 84.2927C61.8903 84.2927 61.8898 85.1398 62.4284 85.1398C62.9662 85.1398 62.9672 84.2927 62.4284 84.2927Z" fill="#E6AEDB"/>
<path d="M58.8667 91.3438C58.1408 91.3438 58.1398 92.4863 58.8667 92.4863C59.5925 92.4863 59.5937 91.3438 58.8667 91.3438Z" fill="#E6AEDB"/>
<path d="M63.8821 86.4365C63.3697 86.4365 63.3687 87.2433 63.8821 87.2433C64.3945 87.2433 64.395 86.4365 63.8821 86.4365Z" fill="#E6AEDB"/>
</g>
<path d="M33.8992 46.4551C33.7759 47.6306 33.5117 48.7933 33.1094 49.9117L31.9982 49.5449L30.5932 49.0849L19.6488 45.4899L18.9945 45.275L17.7774 44.8748L17.6773 44.8444L17.4261 44.7601L17.427 44.8491L17.2823 44.8522L17.2762 44.8519L17.2914 45.2755L17.4494 49.2014L17.7051 55.5398L17.8552 59.285L17.9027 60.4771C17.3291 60.4745 16.3614 60.3819 15.7935 60.3236C6.75757 59.3936 0.0574071 51.6021 0.952846 43.0646C1.84828 34.5271 10.0226 28.2642 19.0585 29.1939C28.0945 30.1237 34.7947 37.9178 33.8992 46.4551Z" fill="#FEEE78"/>
<path d="M32.7213 46.335C32.6065 47.4284 32.3611 48.5084 31.9882 49.5449L30.5834 49.0852L19.6389 45.49L18.9846 45.275L17.7675 44.8751L17.6674 44.8445L17.4163 44.7601L17.4171 44.8492L17.2724 44.8525L17.2662 44.8521L17.2815 45.2758L17.4395 49.2017L17.4845 57.9026L17.4919 59.3075C16.9618 59.3053 16.4283 59.2747 15.8994 59.2205C7.50268 58.3564 1.27902 51.119 2.11122 43.185C2.94353 35.2493 10.5363 29.4335 18.9332 30.2976C27.3301 31.1614 33.5535 38.3993 32.7213 46.335Z" fill="#FEFBEE"/>
<path d="M31.2592 46.1842C31.1556 47.1718 30.9339 48.1449 30.5978 49.0865C25.2858 47.9146 18.3801 46.4548 17.4307 44.7614L17.4316 44.8505L17.2868 44.8538L17.2807 44.8534L17.296 45.2771L17.454 49.203L17.499 57.9039C17.3916 57.905 17.2843 57.9041 17.1773 57.901C16.8047 57.8909 16.4295 57.8686 16.0599 57.8303C12.8825 57.5034 10.0506 56.1653 7.88573 54.1949C7.88456 54.1935 7.88332 54.1926 7.88195 54.1925C7.72553 54.0509 7.57544 53.9065 7.42603 53.7574L7.42411 53.7551C5.14596 51.4861 3.70531 48.4748 3.54599 45.2316C3.53434 45.0285 3.53069 44.8259 3.53177 44.62C3.53034 44.515 3.53337 44.4081 3.53636 44.3013C3.53644 44.3 3.53653 44.2985 3.5366 44.2972C3.54328 43.9786 3.56437 43.6596 3.59795 43.3378C3.8623 40.8171 4.88185 38.5356 6.42351 36.6677L6.42373 36.6637C6.5234 36.5425 6.62457 36.4237 6.72734 36.3091C6.79068 36.2368 6.85372 36.1665 6.91878 36.0962C7.06034 35.9472 7.20598 35.7985 7.35334 35.652C8.65626 34.3677 10.2299 33.3376 11.975 32.64C12.1881 32.5551 12.4051 32.4741 12.6233 32.4017C13.5314 32.0871 14.4816 31.8636 15.4607 31.7399C15.6744 31.7094 15.8873 31.6868 16.1038 31.6687C16.3163 31.6502 16.5324 31.636 16.7479 31.628C17.4254 31.6027 18.1107 31.6229 18.801 31.6939C20.3142 31.8494 21.7497 32.2335 23.0721 32.81C23.226 32.8766 23.378 32.9447 23.5293 33.0168C24.5024 33.4807 25.413 34.049 26.2399 34.704C26.4039 34.834 26.5692 34.9702 26.7299 35.11C29.8851 37.8512 31.708 41.9046 31.2592 46.1842Z" fill="#FEEE78"/>
<path d="M17.8534 59.2834L17.7994 59.286L17.5001 59.3058L17.1715 57.912L17.171 57.898L16.9828 53.3164L16.9559 52.6285L16.8606 50.3092L16.8373 49.7633L16.7565 47.7991L16.7438 47.4485L16.6553 45.2994L16.6485 45.1492L16.6385 44.8694L16.6307 44.6889L16.6215 44.4615L16.62 44.4372L16.6137 44.2606L16.5948 43.8304L16.0977 31.6661L16.079 31.2157L16.7246 31.1993L16.7418 31.6254L17.2317 43.819L17.2493 44.2413L17.2566 44.4096L17.2672 44.6814L17.2744 44.85L17.2897 45.2739L17.4477 49.1998L17.7034 55.5381L17.8534 59.2834Z" fill="#FEFBEE"/>
<path d="M7.60598 54.4813L26.7858 35.058L26.3126 34.6394L7.13269 54.0624L7.60598 54.4813Z" fill="#FEFBEE"/>
<path d="M31.3234 44.4652L27.9778 44.56L27.6175 44.5713L22.5253 44.71L22.0719 44.7241L17.7394 44.842L17.6771 44.8456L17.4268 44.8503L17.2821 44.8534L17.2759 44.8528L17.0977 44.8588L17.0232 44.8613L16.8305 44.8677L16.6401 44.8724L16.1848 44.8839L16.0027 44.8894L14.8247 44.9219L14.0505 44.9434L9.81316 45.0589L9.52335 45.0674L3.541 45.2316L2.85379 45.2498L2.83094 44.6414L3.52676 44.6202L3.71702 44.6154L4.18286 44.6029L9.38054 44.4607L9.89816 44.4453L16.1599 44.2752L16.6152 44.2636L16.8016 44.2585L17.0708 44.2499L17.2508 44.2441L17.2593 44.243L17.7143 44.2332L18.0601 44.2241L18.7785 44.2032L31.297 43.8544L31.3234 44.4652Z" fill="#FEFBEE"/>
<path d="M17.7819 44.8798L17.6821 44.849L17.4318 44.8537L17.287 44.857L17.2809 44.8564L17.2962 45.2803L16.9865 45.0058L16.9713 44.9923L16.8355 44.8711L16.6372 44.6951L16.4992 44.5738L16.4236 44.5075L16.1648 44.2788L13.3524 41.791L12.8028 41.3041L6.91916 36.1001L6.37494 35.6196L6.81173 35.1758L7.35372 35.6559L13.2808 40.8988L13.3543 40.9648L15.5398 42.8971L16.0915 43.3843L16.5996 43.8345L16.6013 43.8368L16.936 44.1299L17.0758 44.2535L17.2631 44.416L17.2724 44.4251L17.4098 44.5503L17.7444 44.8454L17.7819 44.8798Z" fill="#FEFBEE"/>
<path d="M15.1516 32.1628C15.1967 32.457 15.6179 32.8085 15.6179 32.8085C15.6179 32.8085 15.917 32.3646 15.8718 32.0704C15.8268 31.7759 15.6533 31.7171 15.4544 31.7427C15.2556 31.7682 15.1065 31.8683 15.1516 32.1628Z" fill="#FEFBEE" fill-opacity="0.67"/>
<path d="M28.8876 41.3659C28.5864 41.4473 28.2825 41.8881 28.2825 41.8881C28.2825 41.8881 28.7924 42.1092 29.0934 42.028C29.3946 41.9468 29.4299 41.7765 29.3731 41.5937C29.3162 41.4107 29.1888 41.2847 28.8876 41.3659Z" fill="#FEFBEE" fill-opacity="0.67"/>
<path d="M22.3638 44.9686C22.0624 44.9309 21.6156 45.2338 21.6156 45.2338C21.6156 45.2338 21.9832 45.6382 22.2848 45.676C22.5863 45.7137 22.6853 45.5653 22.7071 45.37C22.7289 45.1749 22.6651 45.0064 22.3638 44.9686Z" fill="#FEFBEE" fill-opacity="0.67"/>
<path d="M11.7057 38.0298C11.8935 38.2696 12.4389 38.3901 12.4389 38.3901C12.4389 38.3901 12.4766 37.863 12.2888 37.6235C12.1009 37.3839 11.9195 37.41 11.7585 37.5223C11.5974 37.6346 11.5176 37.7902 11.7057 38.0298Z" fill="#FEFBEE" fill-opacity="0.67"/>
<path d="M17.614 33.299C17.5996 33.5955 17.9435 34.0153 17.9435 34.0153C17.9435 34.0153 18.3265 33.634 18.3412 33.3375C18.3556 33.041 18.1968 32.9521 17.9961 32.9415C17.7954 32.9309 17.6285 33.0025 17.614 33.299Z" fill="#FEFBEE" fill-opacity="0.67"/>
<path d="M13.5109 33.5971C13.6024 33.8822 14.0741 34.17 14.0741 34.17C14.0741 34.17 14.2986 33.6881 14.2071 33.403C14.1156 33.1179 13.9349 33.0844 13.7427 33.138C13.5505 33.1919 13.4194 33.3124 13.5109 33.5971Z" fill="#FEFBEE" fill-opacity="0.67"/>
<path d="M27.719 45.2737C27.4479 45.1385 26.9227 45.2754 26.9227 45.2754C26.9227 45.2754 27.1294 45.7774 27.4002 45.9128C27.6712 46.048 27.8159 45.9416 27.904 45.7649C27.9918 45.5886 27.99 45.409 27.719 45.2737Z" fill="#FEFBEE" fill-opacity="0.67"/>
<path d="M10.5444 35.9664C10.7248 36.2112 11.2662 36.347 11.2662 36.347C11.2662 36.347 11.3205 35.8213 11.1402 35.5765C10.9598 35.3317 10.7776 35.3529 10.6132 35.4605C10.4487 35.568 10.3641 35.7218 10.5444 35.9664Z" fill="#FEFBEE" fill-opacity="0.67"/>
<path d="M11.2168 51.9103C11.4251 51.6899 11.4343 51.1614 11.4343 51.1614C11.4343 51.1614 10.8807 51.2284 10.6721 51.4486C10.4638 51.6691 10.5294 51.8318 10.6798 51.9593C10.8303 52.0868 11.0085 52.1306 11.2168 51.9103Z" fill="#FEFBEE" fill-opacity="0.67"/>
<path d="M13.5081 37.5598C13.6417 37.8296 14.1518 38.0509 14.1518 38.0509C14.1518 38.0509 14.3003 37.5426 14.1666 37.2725C14.033 37.0027 13.8494 36.9939 13.6674 37.0732C13.4854 37.1525 13.3744 37.2897 13.5081 37.5598Z" fill="#FEFBEE" fill-opacity="0.67"/>
<path d="M7.63159 51.5743C7.88856 51.4059 8.02652 50.8948 8.02652 50.8948C8.02652 50.8948 7.47018 50.8391 7.21322 51.0072C6.95625 51.1756 6.98054 51.3482 7.09601 51.5047C7.21149 51.6612 7.37462 51.7427 7.63159 51.5743Z" fill="#FEFBEE" fill-opacity="0.67"/>
<path d="M27.2057 36.293C26.9694 36.4866 26.8897 37.0091 26.8897 37.0091C26.8897 37.0091 27.4485 37.0089 27.6848 36.8156C27.9214 36.6225 27.878 36.4531 27.7456 36.3088C27.6133 36.1645 27.4423 36.1 27.2057 36.293Z" fill="#FEFBEE" fill-opacity="0.67"/>
<path d="M8.04227 39.3895C8.30556 39.5536 8.85971 39.4888 8.85971 39.4888C8.85971 39.4888 8.70204 38.98 8.43877 38.8157C8.17548 38.6517 8.01544 38.7357 7.90603 38.8942C7.79665 39.0527 7.779 39.2253 8.04227 39.3895Z" fill="#FEFBEE" fill-opacity="0.67"/>
<path d="M10.4162 47.1912C10.7144 47.1007 11.0026 46.6505 11.0026 46.6505C11.0026 46.6505 10.4855 46.4452 10.1873 46.5357C9.88932 46.6265 9.85981 46.7976 9.9231 46.9785C9.98617 47.1595 10.118 47.2818 10.4162 47.1912Z" fill="#FEFBEE" fill-opacity="0.67"/>
<path d="M15.4385 56.7514C15.496 56.4599 15.2161 55.9998 15.2161 55.9998C15.2161 55.9998 14.7806 56.3273 14.7231 56.6187C14.6655 56.9101 14.8101 57.0185 15.0076 57.0553C15.2052 57.0919 15.381 57.0426 15.4385 56.7514Z" fill="#FEFBEE" fill-opacity="0.67"/>
<path d="M17.3545 35.101C17.3452 35.3978 17.6966 35.8123 17.6966 35.8123C17.6966 35.8123 18.0728 35.4247 18.0821 35.1279C18.0915 34.8311 17.9311 34.745 17.7302 34.7376C17.5293 34.7301 17.3637 34.8042 17.3545 35.101Z" fill="#FEFBEE" fill-opacity="0.67"/>
<path d="M14.6389 51.9595C14.7798 51.685 14.655 51.1615 14.655 51.1615C14.655 51.1615 14.1493 51.3792 14.0084 51.6536C13.8676 51.9279 13.9704 52.0708 14.1445 52.1551C14.3186 52.2396 14.4978 52.2339 14.6389 51.9595Z" fill="#FEFBEE" fill-opacity="0.67"/>
<path d="M18.5271 36.5664C18.4744 36.8585 18.7618 37.3145 18.7618 37.3145C18.7618 37.3145 19.1916 36.9806 19.2445 36.6885C19.2972 36.3961 19.1509 36.2896 18.9527 36.256C18.7546 36.2224 18.5797 36.274 18.5271 36.5664Z" fill="#FEFBEE" fill-opacity="0.67"/>
<path d="M28.0335 38.3622C27.7657 38.5146 27.5933 39.0159 27.5933 39.0159C27.5933 39.0159 28.1451 39.1055 28.4129 38.9532C28.681 38.8007 28.6684 38.6272 28.5636 38.4642C28.4588 38.3009 28.3013 38.2099 28.0335 38.3622Z" fill="#FEFBEE" fill-opacity="0.67"/>
<path d="M27.4941 46.7517C27.2461 46.5794 26.7057 46.64 26.7057 46.64C26.7057 46.64 26.8359 47.1659 27.084 47.3383C27.332 47.5104 27.4909 47.4256 27.6041 47.2639C27.7174 47.1019 27.7421 46.9238 27.4941 46.7517Z" fill="#FEFBEE" fill-opacity="0.67"/>
<path d="M16.6873 53.0088C16.686 52.7014 16.3328 52.289 16.3328 52.289C16.3328 52.289 15.983 52.7075 15.9844 53.015C15.9855 53.3224 16.1433 53.4041 16.3375 53.4025C16.5317 53.4009 16.6887 53.3163 16.6873 53.0088Z" fill="#FEFBEE" fill-opacity="0.67"/>
<path d="M14.4221 45.339C14.1081 45.3385 13.6865 45.6818 13.6865 45.6818C13.6865 45.6818 14.1134 46.0268 14.4276 46.0273C14.7416 46.028 14.8252 45.8742 14.8237 45.6841C14.8222 45.494 14.736 45.3396 14.4221 45.339Z" fill="#FEFBEE" fill-opacity="0.67"/>
<path d="M13.3585 47.4618C13.5593 47.2259 13.5587 46.6884 13.5587 46.6884C13.5587 46.6884 13.0155 46.7882 12.8147 47.0242C12.614 47.2601 12.6814 47.4217 12.8314 47.5426C12.9816 47.6635 13.1577 47.6978 13.3585 47.4618Z" fill="#FEFBEE" fill-opacity="0.67"/>
<path d="M14.5912 54.2969C14.7389 54.0259 14.6271 53.4992 14.6271 53.4992C14.6271 53.4992 14.1161 53.705 13.9684 53.976C13.8207 54.2471 13.9202 54.3921 14.0921 54.4807C14.2641 54.5693 14.4435 54.5677 14.5912 54.2969Z" fill="#FEFBEE" fill-opacity="0.67"/>
<path d="M17.4692 37.9694C17.4513 38.2658 17.7903 38.6891 17.7903 38.6891C17.7903 38.6891 18.1778 38.3118 18.196 38.0155C18.2139 37.7192 18.0562 37.6288 17.8554 37.6161C17.6549 37.6033 17.4872 37.6731 17.4692 37.9694Z" fill="#FEFBEE" fill-opacity="0.67"/>
<path d="M30.4429 44.8965C30.1289 44.8849 29.6944 45.2133 29.6944 45.2133C29.6944 45.2133 30.1079 45.5726 30.4219 45.5844C30.7359 45.5958 30.8254 45.4449 30.8313 45.255C30.8372 45.0652 30.7566 44.9079 30.4429 44.8965Z" fill="#FEFBEE" fill-opacity="0.67"/>
<path d="M11.4741 43.3651C11.7738 43.4145 12.2326 43.1294 12.2326 43.1294C12.2326 43.1294 11.8814 42.711 11.5818 42.6616C11.2821 42.6122 11.177 42.7563 11.1472 42.9507C11.1176 43.1449 11.1745 43.3157 11.4741 43.3651Z" fill="#FEFBEE" fill-opacity="0.67"/>
<path d="M4.97991 49.3428C5.27417 49.2418 5.5445 48.7816 5.5445 48.7816C5.5445 48.7816 5.01994 48.5946 4.72568 48.6956C4.43141 48.7968 4.40883 48.969 4.47904 49.1475C4.54924 49.3263 4.68565 49.4438 4.97991 49.3428Z" fill="#FEFBEE" fill-opacity="0.67"/>
<path d="M5.01592 42.1148C5.32071 42.1891 5.81993 41.9558 5.81993 41.9558C5.81993 41.9558 5.49552 41.5224 5.19068 41.4482C4.88587 41.3741 4.76437 41.5033 4.71602 41.6875C4.66768 41.8715 4.71107 42.0409 5.01592 42.1148Z" fill="#FEFBEE" fill-opacity="0.67"/>
<path d="M4.98422 46.6415C5.29508 46.6025 5.66364 46.2084 5.66364 46.2084C5.66364 46.2084 5.19215 45.9202 4.88125 45.9594C4.57039 45.9984 4.50946 46.1618 4.53777 46.3501C4.56609 46.5387 4.67335 46.6805 4.98422 46.6415Z" fill="#FEFBEE" fill-opacity="0.67"/>
<path d="M3.92 44.6513C4.23384 44.6614 4.66682 44.331 4.66682 44.331C4.66682 44.331 4.25151 43.9735 3.93747 43.9634C3.62364 43.9534 3.5348 44.1047 3.52993 44.2947C3.52504 44.4846 3.60597 44.6413 3.92 44.6513Z" fill="#FEFBEE" fill-opacity="0.67"/>
<path d="M18.2737 41.0639C18.1631 41.3405 18.3542 41.8397 18.3542 41.8397C18.3542 41.8397 18.8442 41.5908 18.9548 41.314C19.0654 41.0371 18.9429 40.9064 18.7548 40.8372C18.5667 40.768 18.3843 40.7869 18.2737 41.0639Z" fill="#FEFBEE" fill-opacity="0.67"/>
<path d="M25.1567 42.2099C24.9191 42.3947 24.8288 42.9196 24.8288 42.9196C24.8288 42.9196 25.3806 42.9455 25.6182 42.7607C25.8556 42.576 25.8166 42.4027 25.6892 42.2506C25.5617 42.0985 25.3943 42.0252 25.1567 42.2099Z" fill="#FEFBEE" fill-opacity="0.67"/>
<path d="M14.1524 49.7813C14.2999 49.5103 14.1876 48.9836 14.1876 48.9836C14.1876 48.9836 13.6768 49.1896 13.5293 49.4608C13.3818 49.7321 13.4815 49.8767 13.6535 49.9653C13.8255 50.0539 14.0049 50.0526 14.1524 49.7813Z" fill="#FEFBEE" fill-opacity="0.67"/>
<path d="M25.9501 40.1229C25.6742 40.2618 25.4747 40.7539 25.4747 40.7539C25.4747 40.7539 26.0214 40.8702 26.2971 40.731C26.5731 40.5919 26.5701 40.4183 26.4743 40.2501C26.3783 40.0823 26.2261 39.9837 25.9501 40.1229Z" fill="#FEFBEE" fill-opacity="0.67"/>
<path d="M29.7358 46.8664C29.4754 46.7126 28.9414 46.8121 28.9414 46.8121C28.9414 46.8121 29.1108 47.3272 29.3712 47.4811C29.6316 47.6349 29.7837 47.5389 29.8843 47.369C29.9849 47.1993 29.9962 47.0202 29.7358 46.8664Z" fill="#FEFBEE" fill-opacity="0.67"/>
<path d="M24.4994 38.3611C24.2857 38.5764 24.2634 39.1044 24.2634 39.1044C24.2634 39.1044 24.8189 39.0499 25.0326 38.8346C25.2463 38.6188 25.1848 38.4547 25.0377 38.324C24.8905 38.1932 24.7134 38.1453 24.4994 38.3611Z" fill="#FEFBEE" fill-opacity="0.67"/>
<path d="M20.0229 35.2458C19.9331 35.5295 20.1604 36.0146 20.1604 36.0146C20.1604 36.0146 20.6305 35.733 20.7203 35.449C20.8101 35.1653 20.6783 35.0431 20.4858 34.9869C20.2932 34.931 20.1127 34.9621 20.0229 35.2458Z" fill="#FEFBEE" fill-opacity="0.67"/>
<path d="M24.387 45.7206C24.0912 45.6518 23.6139 45.906 23.6139 45.906C23.6139 45.906 23.9357 46.3465 24.2312 46.4155C24.527 46.4845 24.6418 46.3478 24.6848 46.1558C24.7278 45.9641 24.6826 45.7894 24.387 45.7206Z" fill="#FEFBEE" fill-opacity="0.67"/>
<path d="M14.9126 35.6546C14.9824 35.9448 15.4314 36.2637 15.4314 36.2637C15.4314 36.2637 15.692 35.7984 15.6222 35.5082C15.5523 35.218 15.3746 35.1723 15.1786 35.2128C14.9826 35.2531 14.8428 35.3647 14.9126 35.6546Z" fill="#FEFBEE" fill-opacity="0.67"/>
<path d="M21.6256 41.6157C21.3252 41.6585 20.978 42.0678 20.978 42.0678C20.978 42.0678 21.4428 42.3611 21.7432 42.3183C22.0436 42.2754 22.0985 42.1064 22.0659 41.9126C22.0334 41.7186 21.9262 41.5726 21.6256 41.6157Z" fill="#FEFBEE" fill-opacity="0.67"/>
<path d="M7.536 49.162C7.82283 49.0435 8.06198 48.5679 8.06198 48.5679C8.06198 48.5679 7.52617 48.4121 7.23953 48.5305C6.95272 48.649 6.9416 48.8224 7.02355 48.9966C7.10552 49.171 7.24919 49.2804 7.536 49.162Z" fill="#FEFBEE" fill-opacity="0.67"/>
<path d="M20.1863 37.9639C20.0584 38.2339 20.218 38.7421 20.218 38.7421C20.218 38.7421 20.7231 38.5205 20.851 38.2505C20.9789 37.9804 20.8648 37.8432 20.6812 37.764C20.4975 37.685 20.3142 37.6937 20.1863 37.9639Z" fill="#FEFBEE" fill-opacity="0.67"/>
<path d="M13.3372 56.3131C13.4457 56.0355 13.251 55.5381 13.251 55.5381C13.251 55.5381 12.7628 55.7912 12.6542 56.0688C12.5457 56.3465 12.6692 56.4763 12.8577 56.5436C13.0463 56.6111 13.2286 56.5907 13.3372 56.3131Z" fill="#FEFBEE" fill-opacity="0.67"/>
<path d="M19.5023 39.6949C19.4279 39.9832 19.6812 40.4549 19.6812 40.4549C19.6812 40.4549 20.1353 40.1481 20.2097 39.8598C20.2842 39.5715 20.146 39.4568 19.9505 39.4114C19.7551 39.3657 19.5768 39.4066 19.5023 39.6949Z" fill="#FEFBEE" fill-opacity="0.67"/>
<path d="M6.60162 36.9506C6.84667 37.1387 7.40524 37.1263 7.40524 37.1263C7.40524 37.1263 7.3017 36.6058 7.05664 36.4179C6.81157 36.2298 6.64357 36.2984 6.51777 36.4454C6.39215 36.5927 6.35653 36.7628 6.60162 36.9506Z" fill="#FEFBEE" fill-opacity="0.67"/>
<path d="M20.0947 33.2951C20.018 33.5824 20.2673 34.0578 20.2673 34.0578C20.2673 34.0578 20.7238 33.7571 20.8005 33.4696C20.8772 33.1823 20.7399 33.0656 20.545 33.0174C20.3502 32.9692 20.1713 33.0078 20.0947 33.2951Z" fill="#FEFBEE" fill-opacity="0.67"/>
<path d="M9.64895 34.5279C9.82671 34.7745 10.3669 34.9155 10.3669 34.9155C10.3669 34.9155 10.4266 34.3904 10.2489 34.1439C10.0711 33.8975 9.88883 33.9168 9.723 34.023C9.55739 34.1289 9.47116 34.2815 9.64895 34.5279Z" fill="#FEFBEE" fill-opacity="0.67"/>
<path d="M9.9618 49.5707C10.2264 49.4133 10.3882 48.9087 10.3882 48.9087C10.3882 48.9087 9.83486 48.8296 9.57007 48.9871C9.3055 49.1445 9.32152 49.3178 9.42974 49.4788C9.53794 49.6401 9.69721 49.7282 9.9618 49.5707Z" fill="#FEFBEE" fill-opacity="0.67"/>
<path d="M19.2549 43.2451C19.0029 43.4105 18.87 43.9267 18.87 43.9267C18.87 43.9267 19.4179 43.9959 19.67 43.8303C19.9221 43.665 19.8971 43.4892 19.7826 43.3274C19.668 43.1659 19.507 43.0798 19.2549 43.2451Z" fill="#FEFBEE" fill-opacity="0.67"/>
<path d="M11.9155 54.1533C12.0773 53.9003 11.9842 53.3782 11.9842 53.3782C11.9842 53.3782 11.4537 53.5397 11.2918 53.7929C11.1299 54.0459 11.2259 54.1949 11.3981 54.2946C11.5703 54.3941 11.7536 54.4065 11.9155 54.1533Z" fill="#FEFBEE" fill-opacity="0.67"/>
<path d="M10.2495 55.1452C10.4289 54.9028 10.3725 54.3765 10.3725 54.3765C10.3725 54.3765 9.83144 54.5042 9.65211 54.7461C9.47275 54.9883 9.55789 55.143 9.72289 55.2532C9.8879 55.3632 10.0699 55.3874 10.2495 55.1452Z" fill="#FEFBEE" fill-opacity="0.67"/>
<path d="M22.9119 42.5829C22.6523 42.7367 22.4951 43.2463 22.4951 43.2463C22.4951 43.2463 23.0393 43.3402 23.2989 43.1861C23.5586 43.0323 23.5422 42.8556 23.4354 42.6891C23.3283 42.5224 23.1715 42.4293 22.9119 42.5829Z" fill="#FEFBEE" fill-opacity="0.67"/>
<path d="M16.5148 47.8545C16.593 47.5571 16.3578 47.0707 16.3578 47.0707C16.3578 47.0707 15.9111 47.3888 15.8327 47.6862C15.7544 47.9837 15.886 48.102 16.0742 48.1483C16.2626 48.1946 16.4363 48.1522 16.5148 47.8545Z" fill="#FEFBEE" fill-opacity="0.67"/>
<path d="M6.86587 46.1025C7.17788 46.0724 7.55916 45.6892 7.55916 45.6892C7.55916 45.6892 7.09708 45.3876 6.78506 45.418C6.47306 45.4479 6.40666 45.6095 6.42898 45.7986C6.4513 45.9877 6.55387 46.1325 6.86587 46.1025Z" fill="#FEFBEE" fill-opacity="0.67"/>
<path d="M7.09956 43.0946C7.40762 43.1552 7.89432 42.8998 7.89432 42.8998C7.89432 42.8998 7.54869 42.4813 7.24063 42.4207C6.93255 42.3602 6.81774 42.4948 6.77874 42.681C6.73974 42.8673 6.79148 43.0345 7.09956 43.0946Z" fill="#FEFBEE" fill-opacity="0.67"/>
<path d="M16.6909 50.2524C16.7588 49.9524 16.5069 49.4742 16.5069 49.4742C16.5069 49.4742 16.0713 49.8067 16.0034 50.1067C15.9355 50.4069 16.0709 50.5204 16.2608 50.5607C16.4506 50.601 16.623 50.5524 16.6909 50.2524Z" fill="#FEFBEE" fill-opacity="0.67"/>
<path d="M22.5962 35.2282C22.4427 35.486 22.5531 36.0052 22.5531 36.0052C22.5531 36.0052 23.0779 35.8281 23.2314 35.5705C23.3849 35.3127 23.284 35.1665 23.1087 35.072C22.9333 34.9776 22.7495 34.9704 22.5962 35.2282Z" fill="#FEFBEE" fill-opacity="0.67"/>
<path d="M9.13936 42.0021C9.43133 42.1141 9.95971 41.9462 9.95971 41.9462C9.95971 41.9462 9.69886 41.4763 9.40687 41.3645C9.11488 41.2527 8.97603 41.3654 8.90225 41.5414C8.82846 41.7174 8.84737 41.8904 9.13936 42.0021Z" fill="#FEFBEE" fill-opacity="0.67"/>
<path d="M22.8401 33.034C22.7062 33.3014 22.8547 33.8125 22.8547 33.8125C22.8547 33.8125 23.3648 33.6008 23.4985 33.3335C23.6325 33.0659 23.5211 32.9267 23.3394 32.8441C23.1576 32.7615 22.9741 32.7665 22.8401 33.034Z" fill="#FEFBEE" fill-opacity="0.67"/>
<path d="M23.0901 39.8428C22.8295 39.995 22.6689 40.5033 22.6689 40.5033C22.6689 40.5033 23.2126 40.6006 23.4731 40.4484C23.7338 40.2962 23.7185 40.1195 23.6126 39.9522C23.507 39.785 23.3509 39.6905 23.0901 39.8428Z" fill="#FEFBEE" fill-opacity="0.67"/>
<path d="M8.13314 47.7691C8.43236 47.6819 8.72661 47.2351 8.72661 47.2351C8.72661 47.2351 8.21206 47.0238 7.91284 47.111C7.61362 47.1982 7.58207 47.3692 7.64285 47.5509C7.7036 47.7326 7.83392 47.8563 8.13314 47.7691Z" fill="#FEFBEE" fill-opacity="0.67"/>
<path d="M12.6769 34.8805C12.7996 35.1552 13.3004 35.3945 13.3004 35.3945C13.3004 35.3945 13.4695 34.8921 13.3468 34.6177C13.2241 34.343 13.0409 34.3278 12.856 34.4003C12.6711 34.4729 12.5542 34.606 12.6769 34.8805Z" fill="#FEFBEE" fill-opacity="0.67"/>
<path d="M9.86905 37.4889C10.0823 37.709 10.6376 37.7747 10.6376 37.7747C10.6376 37.7747 10.6166 37.2462 10.4031 37.0264C10.1897 36.8063 10.0126 36.8505 9.86508 36.9782C9.71757 37.1059 9.6556 37.269 9.86905 37.4889Z" fill="#FEFBEE" fill-opacity="0.67"/>
<path d="M14.8003 40.6837C15.0208 40.8889 15.5646 40.9044 15.5646 40.9044C15.5646 40.9044 15.5125 40.3657 15.292 40.1605C15.0716 39.9553 14.9019 40.0171 14.7662 40.1615C14.6305 40.306 14.5799 40.4785 14.8003 40.6837Z" fill="#FEFBEE" fill-opacity="0.67"/>
<defs>
<clipPath id="clip0_879_77">
<rect width="95.1428" height="125.095" fill="white" transform="translate(15.8572)"/>
</clipPath>
</defs>
</svg>
