<svg width="34" height="51" viewBox="0 0 34 51" fill="none" xmlns="http://www.w3.org/2000/svg">
<path d="M33.7244 4.19693C33.7238 4.18733 33.7143 4.17804 33.706 4.17994C33.6962 4.18024 33.6885 4.18813 33.6885 4.19783C33.6885 4.65593 33.387 5.10724 32.7922 5.53924C32.7873 5.54254 32.7847 5.54804 32.7847 5.55384C32.8209 10.5026 31.9381 18.5484 30.3623 27.6279C29.0584 35.1406 27.5423 41.7485 26.8355 42.9982C25.8163 44.8001 20.4148 45.6108 16.9049 45.6108C13.6205 45.6108 8.25501 44.7803 7.16951 42.9979C6.53031 41.9481 4.88751 34.9741 3.50742 27.4519C1.77484 18.0074 0.855479 10.0145 0.985269 5.52264C0.985409 5.51684 0.982739 5.51134 0.978119 5.50784C0.411349 5.08534 0.123919 4.64463 0.123919 4.19783C0.123919 4.18823 0.116369 4.18044 0.106869 4.17994C0.098629 4.18014 0.089099 4.18664 0.088269 4.19614C-0.464511 9.98824 1.72153 23.2847 2.68719 28.7325C4.31471 37.9155 6.28211 46.5924 6.98331 47.6795C7.63021 48.6823 9.50981 49.2825 10.9727 49.6092C12.735 50.0031 14.8977 50.2287 16.9063 50.2287C20.9499 50.2287 25.7801 49.431 26.8295 47.6789C27.6063 46.3822 29.4629 38.1808 31.0565 29.0079C31.9694 23.7521 34.0571 10.8131 33.7244 4.19693Z" fill="#DFDAD0"/>
<path d="M32.8129 5.55312C32.8129 5.54642 32.8092 5.54031 32.8032 5.53731C32.7968 5.53411 32.7899 5.53492 32.7845 5.53882C30.4605 7.22622 24.0765 8.35991 16.8986 8.35991C9.66002 8.35991 3.25901 7.21362 0.970464 5.50742C0.965154 5.50342 0.958004 5.50282 0.951864 5.50572C0.945834 5.50862 0.941934 5.51462 0.941784 5.52132C0.811994 10.0154 1.73149 18.0111 3.46448 27.4578C4.84511 34.9838 6.49011 41.9632 7.13131 43.0159C7.74161 44.0181 9.62441 44.6407 11.0964 44.9864C12.8556 45.3995 15.0242 45.6461 16.8972 45.6461C20.4158 45.6461 25.8327 44.8299 26.8588 43.0156C27.5676 41.7625 29.0854 35.1497 30.3899 27.6335C31.966 18.552 32.8491 10.504 32.8129 5.55312Z" fill="#EAE7E0"/>
<path d="M30.2832 21.6838C30.2743 21.6823 30.2649 21.6877 30.2623 21.6969C30.1302 22.2095 28.6842 22.6906 26.1911 23.0515C23.6844 23.4143 20.3853 23.6141 16.9017 23.6141C13.4279 23.6141 10.1355 23.4152 7.63121 23.0543C5.14101 22.6952 3.68901 22.216 3.54298 21.705C3.54031 21.6959 3.53095 21.6901 3.52199 21.6924C3.51275 21.6944 3.5066 21.7032 3.50801 21.7126C4.15621 25.9673 5.06981 30.8389 6.01481 35.0785C6.87721 38.9477 7.63801 41.7122 8.00011 42.2927C8.99581 43.8888 13.8981 44.6323 16.8978 44.6323C20.1035 44.6323 25.0388 43.9063 25.974 42.2921C26.8127 40.8446 28.9724 31.06 30.2976 21.7039C30.2988 21.6945 30.2927 21.6856 30.2832 21.6838Z" fill="#F77ADE"/>
<path d="M32.8027 6.20567C32.7921 6.20407 32.7809 6.20977 32.7777 6.21957C32.6195 6.76267 30.8904 7.27237 27.9088 7.65477C24.911 8.03917 20.9655 8.25097 16.7993 8.25097C12.6449 8.25097 8.70741 8.04027 5.71251 7.65767C2.73438 7.27727 0.997922 6.76957 0.823292 6.22807C0.820102 6.21837 0.808911 6.21237 0.798201 6.21467C0.787151 6.21687 0.779802 6.22617 0.781492 6.23617C1.55662 10.7443 2.36407 16.7277 3.49418 21.2194C4.52561 25.3192 5.72061 27.4266 6.15361 28.0416C7.34451 29.7327 13.2073 30.5207 16.7947 30.5207C20.6284 30.5207 27.5674 29.2312 28.6859 27.5208C29.6887 25.987 31.4944 15.591 33.0794 5.67787C33.0809 5.66787 32.8139 6.20757 32.8027 6.20567Z" fill="#F77ADE"/>
<path d="M28.788 1.2249C25.6135 0.435001 21.3931 0 16.9041 0C12.4152 0 8.19482 0.435001 5.02032 1.2249C1.83824 2.0167 0.0859375 3.0727 0.0859375 4.1983C0.0859375 4.657 0.378137 5.1073 0.954537 5.537C3.24869 7.2474 9.65842 8.3966 16.9041 8.3966C24.0889 8.3966 30.4816 7.2601 32.811 5.5686C33.4156 5.1295 33.7222 4.6685 33.7222 4.1983C33.7222 3.0727 31.9701 2.0167 28.788 1.2249Z" fill="#F8FBF6"/>
<path d="M5.65511 6.24523C8.65881 6.85473 12.6522 7.19043 16.8998 7.19043C21.1474 7.19043 25.1408 6.85473 28.1444 6.24523C31.1565 5.63413 32.8153 4.81783 32.8153 3.94673C32.8153 3.07573 31.1565 2.25943 28.1444 1.64823C25.1408 1.03883 21.1474 0.703125 16.8998 0.703125C12.6522 0.703125 8.65881 1.03883 5.65511 1.64823C2.64309 2.25943 0.984375 3.07563 0.984375 3.94673C0.984375 4.81783 2.64309 5.63413 5.65511 6.24523Z" fill="#DFDAD0"/>
<path d="M28.1712 1.89923C25.1674 1.25143 21.174 0.894531 16.9267 0.894531C12.6792 0.894531 8.68591 1.25143 5.68231 1.89923C2.66788 2.54923 1.00781 3.42103 1.00781 4.35393C1.00781 4.40293 1.01332 4.45443 1.0246 4.51153C1.39279 6.36293 8.37781 7.81303 16.9267 7.81303C25.5114 7.81303 32.4976 6.35623 32.8315 4.49633C32.8409 4.44373 32.8455 4.39703 32.8455 4.35383C32.8455 3.42103 31.1853 2.54923 28.1712 1.89923Z" fill="#F77ADE"/>
<path d="M21.1562 27.0249L21.117 26.9944C21.0855 26.9763 21.0513 26.9671 21.0156 26.9669C20.9861 26.966 20.9599 26.972 20.9381 26.9838C20.9124 26.9921 20.89 27.0068 20.8724 27.0257C20.8524 27.0444 20.8377 27.067 20.8304 27.09C20.8174 27.1147 20.8115 27.1417 20.8127 27.1718L20.8199 27.2232C20.8293 27.2571 20.8466 27.287 20.8717 27.3122L20.8735 27.3139L20.9129 27.3441C20.9462 27.3633 20.9835 27.3716 21.0204 27.3719C21.0466 27.3719 21.0712 27.3659 21.0916 27.355C21.1172 27.3467 21.1397 27.332 21.1574 27.3128C21.1776 27.2941 21.1919 27.2714 21.1991 27.2488C21.2121 27.2241 21.2182 27.1971 21.217 27.167L21.21 27.1153C21.2004 27.0814 21.1829 27.0513 21.1562 27.0249Z" fill="#FC7DA8"/>
<path d="M21.3813 31.1237C21.5187 31.1237 21.5907 31.0149 21.5907 30.9076C21.5907 30.8002 21.5187 30.6914 21.3813 30.6914C21.2438 30.6914 21.1719 30.8002 21.1719 30.9078C21.1719 31.0152 21.2438 31.1237 21.3813 31.1237Z" fill="#FC7DA8"/>
<path d="M24.87 29.7827C24.87 29.682 24.8024 29.5801 24.6733 29.5801C24.5442 29.5801 24.4766 29.6823 24.4766 29.783C24.4766 29.8358 24.4941 29.8849 24.5257 29.922C24.5617 29.9639 24.6127 29.986 24.6733 29.986C24.8024 29.9857 24.87 29.8838 24.87 29.7827Z" fill="#FC7DA8"/>
<path d="M23.8699 25.6332C23.8216 25.7164 23.797 25.8074 23.7969 25.9065L23.8159 26.0469C23.8411 26.137 23.8872 26.2162 23.9531 26.2828L23.9703 26.3046C24.0196 26.3575 24.0786 26.3954 24.1432 26.4163C24.2081 26.4502 24.2799 26.4663 24.3519 26.4634C24.3577 26.4634 24.3633 26.4637 24.3688 26.4637C24.4372 26.4637 24.502 26.4476 24.5594 26.4175C24.6267 26.3957 24.6856 26.3575 24.7359 26.3035L24.819 26.1958C24.8675 26.1117 24.8923 26.0202 24.8924 25.9208L24.8733 25.7799C24.8478 25.6886 24.8011 25.6085 24.7328 25.5402L24.7134 25.5252C24.6644 25.4724 24.6057 25.4348 24.5416 25.4141C24.4771 25.3803 24.4062 25.3653 24.3341 25.3674C24.2613 25.3656 24.1897 25.3803 24.128 25.413C24.0612 25.4348 24.0024 25.4724 23.9525 25.5264L23.8699 25.6332Z" fill="#FC7DA8"/>
<path d="M27.3793 25.1166C27.4002 25.0808 27.4108 25.0411 27.4108 24.9992C27.4108 24.9573 27.4002 24.918 27.3793 24.8818C27.3586 24.8474 27.3307 24.8192 27.2957 24.7986C27.2237 24.7569 27.1321 24.7578 27.0629 24.7977L27.0586 24.8003L27.0141 24.8347C26.9911 24.8563 26.9745 24.8821 26.9656 24.9097L26.9547 24.9355L26.9529 24.9424L26.9495 24.9682C26.9429 24.9984 26.944 25.0288 26.9532 25.0564L26.9538 25.061C26.965 25.1003 26.9851 25.1347 27.0124 25.162C27.0264 25.1795 27.0437 25.1927 27.0615 25.1999C27.0973 25.2209 27.1367 25.2315 27.1786 25.2318C27.2205 25.2315 27.2598 25.2209 27.296 25.1999C27.3305 25.1795 27.3586 25.1514 27.3793 25.1166Z" fill="#FC7DA8"/>
<path d="M27.366 27.8945C27.3183 27.8945 27.2781 27.912 27.2494 27.945C27.2244 27.974 27.2109 28.0128 27.2109 28.0544C27.2109 28.1339 27.264 28.2143 27.366 28.2143C27.4679 28.2143 27.5213 28.1339 27.5213 28.0541C27.5213 27.9749 27.4679 27.8945 27.366 27.8945Z" fill="#FC7DA8"/>
<path d="M26.4861 32.4961C26.3466 32.4961 26.2734 32.6066 26.2734 32.7157C26.2734 32.7725 26.2923 32.8259 26.3265 32.8655C26.3653 32.9109 26.4204 32.9347 26.4861 32.9347C26.6256 32.9347 26.6986 32.8245 26.6986 32.7154C26.6986 32.6063 26.6256 32.4961 26.4861 32.4961Z" fill="#FC7DA8"/>
<path d="M23.6455 41.9435L23.6437 41.942L23.6171 41.9217C23.5954 41.909 23.5717 41.9027 23.547 41.9024C23.5255 41.9016 23.5082 41.9062 23.4938 41.9139C23.4758 41.9197 23.4601 41.93 23.4477 41.9432C23.4336 41.9564 23.4235 41.9722 23.4189 41.9874C23.4098 42.0043 23.4055 42.0233 23.4063 42.0451L23.4114 42.0798C23.4178 42.1037 23.43 42.1243 23.449 42.1433L23.4757 42.1637C23.4991 42.1772 23.5265 42.1829 23.5501 42.1829C23.5686 42.1829 23.5857 42.1786 23.599 42.1714C23.617 42.1657 23.6328 42.1553 23.645 42.1424C23.6591 42.1292 23.6693 42.1134 23.6739 42.0982C23.6832 42.0807 23.6873 42.062 23.6864 42.0402L23.6815 42.0055C23.675 41.9817 23.6629 41.961 23.6455 41.9435Z" fill="#FC7DA8"/>
<path d="M21.295 42.8352L21.2932 42.8338L21.1998 42.7617C21.1268 42.7195 21.0469 42.698 20.9631 42.6977C20.8988 42.6945 20.8366 42.7089 20.7827 42.7373C20.724 42.7565 20.6724 42.7895 20.6305 42.8349C20.5843 42.878 20.5511 42.9293 20.5333 42.985C20.5037 43.0416 20.4898 43.1033 20.4925 43.1702L20.5092 43.2928C20.5314 43.372 20.5721 43.4418 20.6318 43.5018L20.7253 43.5738C20.7983 43.616 20.878 43.6376 20.9618 43.6379C20.9667 43.6381 20.9716 43.6381 20.9765 43.6381C21.0363 43.6381 21.0928 43.6244 21.1423 43.5979C21.201 43.579 21.2526 43.5457 21.2945 43.5006C21.3407 43.4576 21.3738 43.4062 21.3916 43.3502C21.4214 43.2939 21.4352 43.2322 21.4326 43.1653L21.4158 43.0427C21.3938 42.9635 21.3531 42.8938 21.295 42.8352Z" fill="#FC7DA8"/>
<path d="M24.7032 31.588C24.6827 31.5498 24.6544 31.5188 24.6193 31.4958C24.5877 31.4674 24.5502 31.4476 24.508 31.4376L24.4825 31.4315C24.4241 31.416 24.3649 31.416 24.3062 31.4315C24.2505 31.4473 24.2013 31.476 24.1582 31.5185C24.1421 31.5398 24.1257 31.561 24.108 31.5843C24.0782 31.6354 24.0629 31.6916 24.0627 31.751C24.061 31.7973 24.0708 31.8409 24.0906 31.8779C24.104 31.9196 24.1276 31.956 24.1599 31.9862C24.2013 32.0272 24.2505 32.0556 24.3065 32.0714C24.3357 32.0792 24.3652 32.0832 24.3946 32.0832C24.424 32.0832 24.4532 32.0792 24.4822 32.0714L24.5108 32.0645L24.5858 32.0327C24.6241 32.012 24.6554 31.9833 24.6762 31.9503C24.6973 31.9293 24.7121 31.9038 24.7188 31.8782C24.7395 31.8389 24.7492 31.7961 24.7472 31.749L24.7363 31.6675L24.7351 31.6626L24.7032 31.588Z" fill="#FC7DA8"/>
<path d="M26.419 26.8086C26.419 26.7193 26.359 26.6289 26.2447 26.6289C26.1303 26.6289 26.0703 26.7193 26.0703 26.8089C26.0703 26.8554 26.0858 26.899 26.1138 26.9318C26.1457 26.9688 26.191 26.9883 26.2447 26.9883C26.359 26.9883 26.419 26.8979 26.419 26.8086Z" fill="#FC7DA8"/>
<path d="M28.7381 24.3594C28.6913 24.3594 28.6517 24.3766 28.6238 24.409C28.5997 24.4374 28.5859 24.4756 28.5859 24.5161C28.5859 24.5939 28.6385 24.6728 28.7381 24.6728C28.8377 24.6728 28.8899 24.5939 28.8899 24.5161C28.8899 24.4753 28.8765 24.4374 28.8523 24.409C28.8245 24.3766 28.7849 24.3594 28.7381 24.3594Z" fill="#FC7DA8"/>
<path d="M24.1052 24.527L24.1071 24.5282L24.131 24.5382C24.1635 24.5571 24.199 24.5666 24.2369 24.5669C24.2746 24.5666 24.31 24.5571 24.3426 24.5382C24.3739 24.5195 24.3991 24.4943 24.4177 24.463C24.4365 24.4305 24.4461 24.3949 24.4463 24.3573C24.4461 24.3194 24.4365 24.2841 24.4176 24.2514C24.3991 24.2201 24.3738 24.1949 24.3425 24.1762C24.2773 24.1389 24.1944 24.1397 24.1329 24.1753L24.1052 24.1877C24.0757 24.2052 24.052 24.2287 24.0346 24.258C24.017 24.2884 24.0079 24.3217 24.0078 24.3573C24.0079 24.3926 24.017 24.4262 24.0348 24.4567C24.052 24.486 24.0758 24.5098 24.1052 24.527Z" fill="#FC7DA8"/>
<path d="M22.2483 25.0111C22.2876 24.9654 22.3093 24.904 22.3093 24.8383C22.3093 24.7128 22.2252 24.5859 22.0648 24.5859C21.9042 24.5859 21.8203 24.7128 21.8203 24.8385C21.8203 24.9637 21.9042 25.0909 22.0648 25.0909C22.1402 25.0909 22.2036 25.0633 22.2483 25.0111Z" fill="#FC7DA8"/>
<path d="M21.3428 33.2276C21.1604 33.1194 20.9284 33.1194 20.746 33.2276C20.6571 33.2807 20.5865 33.3525 20.5339 33.4427C20.4804 33.536 20.4535 33.6367 20.4531 33.7449L20.4549 33.7745L20.4557 33.7883C20.4561 33.8914 20.4817 33.9872 20.5326 34.0762C20.5524 34.1153 20.5787 34.1483 20.6086 34.1776C20.6433 34.2198 20.6822 34.258 20.7303 34.2869C20.7782 34.3148 20.8294 34.3306 20.8822 34.3403C20.9257 34.3544 20.9709 34.3622 21.0189 34.3587C21.1206 34.3584 21.2153 34.3326 21.3032 34.2809L21.3158 34.2749L21.3428 34.2623C21.4316 34.2089 21.5023 34.1374 21.5549 34.0472C21.6084 33.9539 21.6353 33.8529 21.6357 33.7449C21.6357 33.5337 21.5226 33.3341 21.3428 33.2276Z" fill="#E6AEDB"/>
<path d="M21.2742 37.5857L21.2737 37.5846L21.2727 37.5829L21.2708 37.5794L21.2698 37.5777C21.2533 37.5562 21.2364 37.5338 21.2199 37.512C21.1985 37.4953 21.1772 37.4787 21.1559 37.462C21.1307 37.4511 21.1055 37.4405 21.0803 37.4296C21.0383 37.4164 20.9962 37.4144 20.9542 37.4238C20.9256 37.4238 20.899 37.4313 20.8743 37.4457C20.8475 37.4534 20.8243 37.4672 20.8045 37.487C20.7808 37.5013 20.7619 37.5203 20.7478 37.5444C20.7282 37.5645 20.7146 37.588 20.7071 37.6153C20.6873 37.6535 20.6782 37.6945 20.6799 37.7388L20.6912 37.824C20.7018 37.8493 20.7125 37.8748 20.7231 37.9004C20.7396 37.9219 20.756 37.9437 20.7725 37.9653C20.7939 37.9819 20.8152 37.9988 20.8365 38.0155C20.8618 38.0261 20.8869 38.037 20.9121 38.0476L20.9962 38.0591C21.0398 38.0609 21.0804 38.0517 21.1181 38.0316C21.1449 38.0241 21.1682 38.0103 21.1879 37.9902C21.2223 37.9678 21.2494 37.9377 21.2694 37.9004L21.2732 37.8935L21.2743 37.8915L21.3045 37.8191C21.308 37.7922 21.3116 37.7655 21.3151 37.7388C21.3116 37.7118 21.308 37.6851 21.3045 37.6584L21.2742 37.5857Z" fill="#E6AEDB"/>
<path d="M23.2449 35.2793C23.0123 35.2793 23.0119 35.6456 23.2449 35.6456C23.4776 35.6456 23.478 35.2793 23.2449 35.2793Z" fill="#E6AEDB"/>
<path d="M21.3198 35.4668C21.0291 35.4668 21.0286 35.9247 21.3198 35.9247C21.6106 35.9247 21.6111 35.4668 21.3198 35.4668Z" fill="#E6AEDB"/>
<path d="M23.123 32.4375L23.1514 32.4364C23.4905 32.4211 23.4911 31.9173 23.1514 31.9021L23.123 31.9007C22.7822 31.8855 22.7816 32.4527 23.123 32.4375Z" fill="#E6AEDB"/>
<path d="M25.0729 34.4355C24.7676 34.4355 24.7671 34.9164 25.0729 34.9164C25.3783 34.9164 25.3788 34.4355 25.0729 34.4355Z" fill="#E6AEDB"/>
<path d="M23.0592 38.4355C22.6472 38.4355 22.6466 39.084 23.0592 39.084C23.4711 39.084 23.4718 38.4355 23.0592 38.4355Z" fill="#E6AEDB"/>
<path d="M25.8979 35.6523C25.6072 35.6523 25.6066 36.1102 25.8979 36.1102C26.1888 36.1102 26.1892 35.6523 25.8979 35.6523Z" fill="#E6AEDB"/>
<path d="M22.9209 22.9209C22.7385 22.8128 22.5066 22.8128 22.3242 22.9209C22.2353 22.9742 22.1647 23.0458 22.1121 23.1358C22.0586 23.2293 22.0316 23.3301 22.0312 23.4382L22.0331 23.4678L22.034 23.4816C22.0343 23.5847 22.0599 23.6805 22.1108 23.7695C22.1306 23.8086 22.1569 23.8416 22.1868 23.8709C22.2216 23.9131 22.2604 23.9512 22.3085 23.9802C22.3564 24.0081 22.4076 24.0239 22.4604 24.0336C22.504 24.0477 22.5491 24.0555 22.597 24.052C22.6987 24.0517 22.7935 24.0259 22.8814 23.9742L22.894 23.9682L22.9209 23.9556C23.0098 23.9022 23.0806 23.8307 23.1332 23.7405C23.1866 23.6472 23.2136 23.5462 23.2139 23.4382C23.2139 23.227 23.1007 23.0276 22.9209 22.9209Z" fill="#E6AEDB"/>
<path d="M20.7468 25.2148C20.4076 25.2148 20.407 25.7491 20.7468 25.7491C21.086 25.7491 21.0866 25.2148 20.7468 25.2148Z" fill="#E6AEDB"/>
<path d="M22.8602 27.2791L22.8596 27.278L22.8586 27.2762L22.8568 27.2728L22.8558 27.2711L22.8553 27.2702C22.8388 27.2487 22.8223 27.2271 22.8058 27.2053C22.7845 27.1887 22.7632 27.172 22.7418 27.1554C22.7166 27.1445 22.6914 27.1338 22.6663 27.1229C22.6242 27.1097 22.5821 27.1077 22.5401 27.1172C22.5116 27.1172 22.485 27.1247 22.4602 27.139C22.4335 27.1468 22.4102 27.1605 22.3905 27.1804C22.3667 27.1947 22.3478 27.2137 22.3338 27.2378C22.3141 27.2579 22.3005 27.2814 22.293 27.3087C22.2732 27.3469 22.2641 27.3879 22.2658 27.4321L22.2771 27.5174C22.2877 27.5426 22.2984 27.5682 22.309 27.5937C22.3255 27.6153 22.342 27.6371 22.3584 27.6586C22.3798 27.6753 22.4012 27.6922 22.4225 27.7089C22.4477 27.7195 22.4729 27.7304 22.4981 27.741L22.5821 27.7525C22.6257 27.7542 22.6663 27.745 22.704 27.7249C22.7308 27.7175 22.7541 27.7037 22.7739 27.6836C22.8083 27.6612 22.8354 27.6311 22.8553 27.5937L22.8592 27.5868L22.8602 27.5848L22.8904 27.5125C22.894 27.4855 22.8976 27.4588 22.9011 27.4321C22.8976 27.4051 22.894 27.3784 22.8904 27.3517L22.8602 27.2791Z" fill="#E6AEDB"/>
<path d="M24.8231 24.9746C24.5904 24.9746 24.59 25.3409 24.8231 25.3409C25.0557 25.3409 25.0561 24.9746 24.8231 24.9746Z" fill="#E6AEDB"/>
<path d="M22.9057 25.1602C22.615 25.1602 22.6145 25.6181 22.9057 25.6181C23.1965 25.6181 23.1971 25.1602 22.9057 25.1602Z" fill="#E6AEDB"/>
<path d="M24.709 22.1309L24.7374 22.1296C25.0765 22.1144 25.077 21.6106 24.7374 21.5954L24.709 21.5941C24.3681 21.5788 24.3676 22.1462 24.709 22.1309Z" fill="#E6AEDB"/>
<path d="M26.6589 24.1289C26.3534 24.1289 26.3531 24.6097 26.6589 24.6097C26.964 24.6097 26.9646 24.1289 26.6589 24.1289Z" fill="#E6AEDB"/>
<path d="M24.6374 28.1309C24.2254 28.1309 24.2248 28.7794 24.6374 28.7794C25.0494 28.7794 25.05 28.1309 24.6374 28.1309Z" fill="#E6AEDB"/>
<path d="M27.484 25.3457C27.1932 25.3457 27.1926 25.8036 27.484 25.8036C27.7749 25.8036 27.7751 25.3457 27.484 25.3457Z" fill="#E6AEDB"/>
</svg>
