<svg width="473" height="326" viewBox="0 0 473 326" fill="none" xmlns="http://www.w3.org/2000/svg">
<rect x="7.5" y="7.5" width="458" height="253" rx="45.5" fill="#F7B67F" stroke="#F88A25" stroke-width="15"/>
<rect x="11" y="10" width="450" height="248" rx="53" fill="#FEF3DD"/>
<path d="M232.202 305.695L231.481 304.519L231.905 303.207L236.723 288.305L236.797 288.077L236.906 287.862L245.254 271.536L245.522 271.011L245.969 270.627L256.368 261.683L206.853 261.051L215.404 290.833L215.444 290.968L215.469 291.106L217.113 299.829L222.632 306.031L238.613 316.174L232.202 305.695Z" fill="#FEF3DD" stroke="#F88A25" stroke-width="6"/>
<path d="M227.838 273.982L234.068 292.24L238.248 280.931L245.475 268.554L259.649 257.898L206.654 257L214.922 282.648L216.454 289.913L221.914 295.371L227.838 273.982Z" fill="#FEF3DD"/>
</svg>
