<svg width="60" height="89" viewBox="0 0 60 89" fill="none" xmlns="http://www.w3.org/2000/svg">
<path d="M59.419 7.39468C59.4181 7.37778 59.4014 7.36138 59.3868 7.36468C59.3695 7.36518 59.3559 7.37919 59.3559 7.39629C59.3559 8.20339 58.8247 8.99849 57.7767 9.75969C57.7681 9.76549 57.7635 9.77518 57.7635 9.78538C57.8273 18.5049 56.2719 32.6806 53.4955 48.6779C51.1981 61.9147 48.5269 73.5568 47.2816 75.7588C45.4859 78.9338 35.9689 80.3618 29.7848 80.3618C23.9979 80.3618 14.5445 78.8988 12.6319 75.7588C11.5057 73.9088 8.61134 61.6213 6.17974 48.3678C3.12704 31.7275 1.50724 17.6447 1.73594 9.73038C1.73614 9.72018 1.73144 9.71048 1.72334 9.70428C0.724736 8.95988 0.218337 8.18349 0.218337 7.39629C0.218337 7.37949 0.205037 7.36558 0.188237 7.36468C0.173737 7.36508 0.156937 7.37669 0.155537 7.39339C-0.818463 17.5984 3.03314 41.0256 4.73454 50.6242C7.60214 66.8038 11.0685 82.0918 12.3038 84.0068C13.4437 85.7738 16.7553 86.8318 19.3327 87.4068C22.4379 88.1008 26.2483 88.4988 29.7871 88.4988C36.9117 88.4988 45.4219 87.0928 47.2709 84.0058C48.6397 81.7208 51.9108 67.2708 54.7186 51.1093C56.327 41.8491 60.0054 19.0518 59.419 7.39468Z" fill="#DFDAD0"/>
<path d="M57.8159 9.78442C57.8159 9.77262 57.8092 9.76192 57.7986 9.75662C57.7875 9.75102 57.7753 9.75252 57.7658 9.75922C53.6712 12.7323 42.423 14.7297 29.7764 14.7297C17.0227 14.7297 5.74474 12.7101 1.71244 9.70392C1.70314 9.69692 1.69054 9.69582 1.67974 9.70092C1.66904 9.70602 1.66224 9.71662 1.66194 9.72842C1.43324 17.6466 3.05334 31.7342 6.10674 48.3786C8.53924 61.6385 11.4376 73.936 12.5673 75.79C13.6425 77.556 16.9598 78.653 19.5533 79.262C22.653 79.99 26.4739 80.424 29.7739 80.424C35.9733 80.424 45.5172 78.986 47.3251 75.79C48.5741 73.582 51.2484 61.9308 53.5468 48.688C56.3237 32.6873 57.8796 18.5074 57.8159 9.78442Z" fill="#EAE7E0"/>
<path d="M50.7188 2.1582C45.1256 0.766399 37.6895 0 29.7803 0C21.8715 0 14.4354 0.766599 8.84224 2.1582C3.23584 3.5533 0.148438 5.4138 0.148438 7.3972C0.148438 8.2052 0.663237 8.9988 1.67884 9.7557C5.72084 12.7692 17.0141 14.794 29.7803 14.794C42.4394 14.794 53.7026 12.7916 57.8067 9.8114C58.872 9.0377 59.4122 8.2255 59.4122 7.3972C59.4122 5.4138 56.3253 3.5533 50.7188 2.1582Z" fill="#F8FBF6"/>
<path d="M50.7188 2.1582C45.1256 0.766399 37.6895 0 29.7803 0C21.8715 0 14.4354 0.766599 8.84224 2.1582C3.23584 3.5533 0.148438 5.4138 0.148438 7.3972C0.148438 8.2052 0.663237 8.9988 1.67884 9.7557C5.72084 12.7692 17.0141 14.794 29.7803 14.794C42.4394 14.794 53.7026 12.7916 57.8067 9.8114C58.872 9.0377 59.4122 8.2255 59.4122 7.3972C59.4122 5.4138 56.3253 3.5533 50.7188 2.1582Z" fill="#F8FBF6"/>
<path d="M50.7188 2.1582C45.1256 0.766399 37.6895 0 29.7803 0C21.8715 0 14.4354 0.766599 8.84224 2.1582C3.23584 3.5533 0.148438 5.4138 0.148438 7.3972C0.148438 8.2052 0.663237 8.9988 1.67884 9.7557C5.72084 12.7692 17.0141 14.794 29.7803 14.794C42.4394 14.794 53.7026 12.7916 57.8067 9.8114C58.872 9.0377 59.4122 8.2255 59.4122 7.3972C59.4122 5.4138 56.3253 3.5533 50.7188 2.1582Z" fill="#F8FBF6"/>
<path d="M50.7188 2.1582C45.1256 0.766399 37.6895 0 29.7803 0C21.8715 0 14.4354 0.766599 8.84224 2.1582C3.23584 3.5533 0.148438 5.4138 0.148438 7.3972C0.148438 8.2052 0.663237 8.9988 1.67884 9.7557C5.72084 12.7692 17.0141 14.794 29.7803 14.794C42.4394 14.794 53.7026 12.7916 57.8067 9.8114C58.872 9.0377 59.4122 8.2255 59.4122 7.3972C59.4122 5.4138 56.3253 3.5533 50.7188 2.1582Z" fill="#F8FBF6"/>
<path d="M9.96367 11.0036C15.256 12.0773 22.2921 12.6688 29.776 12.6688C37.2598 12.6688 44.2958 12.0773 49.5879 11.0036C54.8947 9.92667 57.8174 8.48867 57.8174 6.95387C57.8174 5.41907 54.8947 3.98077 49.5879 2.90407C44.2958 1.83027 37.2596 1.23877 29.776 1.23877C22.2921 1.23877 15.256 1.83027 9.96367 2.90407C4.65687 3.98077 1.73438 5.41907 1.73438 6.95387C1.73438 8.48867 4.65687 9.92667 9.96367 11.0036Z" fill="#DFDAD0"/>
<path d="M34.7444 45.2592L34.6079 45.154C34.5007 45.0918 34.3836 45.0604 34.2611 45.0599C34.1637 45.0569 34.0749 45.0766 33.9967 45.118C33.9105 45.1464 33.8347 45.1948 33.7734 45.2613C33.7056 45.3238 33.6568 45.3998 33.6309 45.4812C33.5874 45.5641 33.5669 45.6547 33.5708 45.7534L33.5953 45.9324C33.6277 46.0487 33.6874 46.1509 33.7724 46.2363L33.7757 46.2395L33.9121 46.3447C34.0257 46.4104 34.1505 46.4396 34.2805 46.4387C34.3681 46.4387 34.4509 46.4185 34.5233 46.3804C34.6093 46.3522 34.6852 46.3036 34.7465 46.2374C34.8144 46.1741 34.8632 46.0987 34.8891 46.0173C34.9328 45.9343 34.9532 45.8439 34.9491 45.7453L34.9245 45.5657C34.8924 45.4498 34.8329 45.3476 34.7444 45.2592Z" fill="#FC7DA8"/>
<path d="M34.4141 49.853C34.4141 50.0683 34.5582 50.2859 34.8337 50.2859C35.109 50.2859 35.2531 50.0679 35.2531 49.8524C35.2531 49.6375 35.109 49.4194 34.8337 49.4194C34.5582 49.4194 34.4141 49.6378 34.4141 49.853Z" fill="#FC7DA8"/>
<path d="M37.2775 47.6154L37.2082 47.5617C37.1527 47.53 37.0923 47.5138 37.0296 47.5133C36.9776 47.5117 36.9316 47.5222 36.8932 47.543C36.8479 47.5577 36.8083 47.5836 36.7771 47.6169C36.742 47.6498 36.7163 47.6898 36.7034 47.7301C36.6805 47.7737 36.67 47.8212 36.6721 47.8745L36.6848 47.9648C36.7011 48.0246 36.732 48.0772 36.776 48.1216L36.7792 48.1248L36.8484 48.1779C36.9071 48.2117 36.973 48.2265 37.038 48.2268C37.084 48.2268 37.1275 48.2163 37.1635 48.1971C37.2086 48.1824 37.2482 48.1565 37.2796 48.1227C37.315 48.0898 37.3404 48.0499 37.3529 48.0099C37.3758 47.9664 37.3867 47.9188 37.3844 47.8658L37.3719 47.7747C37.3552 47.715 37.3245 47.662 37.2775 47.6154Z" fill="#FC7DA8"/>
<path d="M37.6736 54.8373C37.9159 54.8373 38.0426 54.6456 38.0426 54.4566C38.0426 54.2674 37.9159 54.0757 37.6736 54.0757C37.4313 54.0757 37.3047 54.2674 37.3047 54.4571C37.3047 54.6462 37.4313 54.8373 37.6736 54.8373Z" fill="#FC7DA8"/>
<path d="M43.818 52.4748C43.818 52.2972 43.699 52.1177 43.4716 52.1177C43.2441 52.1177 43.125 52.2977 43.125 52.4751C43.125 52.5683 43.1558 52.6549 43.2115 52.72C43.2748 52.7939 43.3648 52.8328 43.4716 52.8328C43.699 52.8323 43.818 52.6527 43.818 52.4748Z" fill="#FC7DA8"/>
<path d="M42.0583 45.1634C41.9734 45.31 41.93 45.4703 41.9297 45.6449L41.9633 45.8923C42.0075 46.051 42.0889 46.1906 42.2051 46.3079L42.2354 46.3465C42.322 46.4395 42.4262 46.5063 42.54 46.5431C42.6543 46.6028 42.7807 46.6312 42.9077 46.6261C42.9177 46.6261 42.9276 46.6266 42.9375 46.6266C43.058 46.6266 43.1722 46.5983 43.2731 46.5452C43.3917 46.5068 43.4956 46.4395 43.5841 46.3444L43.7305 46.1549C43.816 46.0067 43.8597 45.8452 43.86 45.6701L43.8262 45.4218C43.7814 45.261 43.699 45.1198 43.5788 44.9995L43.5445 44.9733C43.4583 44.8801 43.3547 44.8138 43.2419 44.7775C43.1283 44.7178 43.0034 44.6915 42.8762 44.6951C42.7481 44.6919 42.6219 44.7178 42.5132 44.7754C42.3953 44.8138 42.2919 44.8801 42.204 44.9752L42.0583 45.1634Z" fill="#FC7DA8"/>
<path d="M48.241 44.2537C48.278 44.1905 48.2967 44.1207 48.2967 44.0467C48.2967 43.9729 48.278 43.9037 48.241 43.8399C48.2047 43.7793 48.1556 43.7298 48.0939 43.6933C47.9669 43.62 47.8055 43.6214 47.6837 43.6917L47.6762 43.6963L47.5978 43.7571C47.5572 43.795 47.5278 43.8404 47.5121 43.889L47.4929 43.9345L47.4899 43.9467L47.4839 43.9921C47.4723 44.0453 47.4743 44.0989 47.4905 44.1475L47.4915 44.1556C47.5113 44.2249 47.5467 44.2855 47.5946 44.3336C47.6194 44.3644 47.6497 44.3877 47.6811 44.4003C47.7444 44.4373 47.8136 44.456 47.8876 44.4565C47.9614 44.456 48.0307 44.4373 48.0944 44.4003C48.1551 44.3644 48.2047 44.3149 48.241 44.2537Z" fill="#FC7DA8"/>
<path d="M48.2184 49.1475C48.1346 49.1475 48.0637 49.1784 48.0132 49.2367C47.9691 49.2878 47.9453 49.356 47.9453 49.4293C47.9453 49.5695 48.0389 49.711 48.2184 49.711C48.398 49.711 48.4921 49.5695 48.4921 49.4287C48.4921 49.2892 48.398 49.1475 48.2184 49.1475Z" fill="#FC7DA8"/>
<path d="M46.6638 57.2588C46.4181 57.2588 46.2891 57.4536 46.2891 57.6459C46.2891 57.7459 46.3224 57.84 46.3826 57.9098C46.4508 57.9898 46.5479 58.0317 46.6638 58.0317C46.9096 58.0317 47.0381 57.8375 47.0381 57.6453C47.0381 57.4531 46.9096 57.2588 46.6638 57.2588Z" fill="#FC7DA8"/>
<path d="M33.1324 59.0278C32.8864 59.0278 32.7578 59.2225 32.7578 59.4147C32.7578 59.5153 32.7911 59.6089 32.8512 59.6792C32.9197 59.7592 33.0168 59.8011 33.1324 59.8011C33.3784 59.8011 33.507 59.6064 33.507 59.4142C33.507 59.3136 33.474 59.2195 33.4136 59.1496C33.3451 59.0697 33.248 59.0278 33.1324 59.0278Z" fill="#FC7DA8"/>
<path d="M29.0312 52.1197C29.0312 52.1941 29.0559 52.2638 29.1008 52.316C29.1517 52.3757 29.2241 52.4071 29.3101 52.4071C29.4933 52.4071 29.5892 52.2624 29.5892 52.1192C29.5892 51.9767 29.4933 51.832 29.3101 51.832C29.127 51.832 29.0312 51.9767 29.0312 52.1197Z" fill="#FC7DA8"/>
<path d="M41.6639 73.9009L41.6607 73.8979L41.6138 73.8629C41.5756 73.8399 41.5337 73.8289 41.4903 73.8289C41.4525 73.8269 41.4218 73.8349 41.3964 73.8489C41.3649 73.8589 41.3371 73.8769 41.3154 73.8999C41.2905 73.9239 41.2727 73.9509 41.2646 73.9779C41.2486 74.0079 41.2409 74.0419 41.2424 74.0799L41.2512 74.1409C41.2627 74.1829 41.284 74.2199 41.3177 74.2529L41.3647 74.2889C41.4059 74.3129 41.4542 74.3229 41.4958 74.3229C41.5284 74.3229 41.5583 74.3149 41.5818 74.3019C41.6137 74.2919 41.6415 74.2739 41.6628 74.2509C41.6878 74.2279 41.7058 74.1999 41.7139 74.1729C41.7301 74.1429 41.7375 74.1099 41.7358 74.0709L41.7271 74.0099C41.7159 73.9679 41.6944 73.9319 41.6639 73.9009Z" fill="#FC7DA8"/>
<path d="M37.5161 75.4719L37.5129 75.4699L37.3484 75.3429C37.2196 75.2679 37.079 75.2299 36.9313 75.2299C36.818 75.2239 36.7083 75.2489 36.6135 75.2999C36.5099 75.3329 36.419 75.3919 36.3453 75.4709C36.2637 75.5469 36.2054 75.6379 36.174 75.7359C36.1217 75.8359 36.0974 75.9439 36.1022 76.0619L36.1314 76.2779C36.1707 76.4179 36.2422 76.5409 36.3476 76.6459L36.5122 76.7729C36.6408 76.8479 36.7814 76.8859 36.9288 76.8859C36.9375 76.8869 36.9461 76.8869 36.9547 76.8869C37.0603 76.8869 37.1598 76.8629 37.247 76.8159C37.3503 76.7829 37.4412 76.7239 37.5152 76.6439C37.5964 76.5689 37.6549 76.4779 37.6863 76.3789C37.7388 76.2799 37.7631 76.1709 37.7584 76.0539L37.7289 75.8379C37.6902 75.6979 37.6185 75.5749 37.5161 75.4719Z" fill="#FC7DA8"/>
<path d="M34.4047 74.4747C34.3873 74.4117 34.3556 74.3567 34.3101 74.3117L34.3069 74.3087L34.2352 74.2537C34.1781 74.2207 34.1154 74.2027 34.0502 74.2027C33.9954 74.2017 33.9491 74.2127 33.9089 74.2337C33.8624 74.2487 33.8215 74.2757 33.7889 74.3107C33.7525 74.3447 33.7259 74.3857 33.7126 74.4277C33.6889 74.4727 33.6778 74.5217 33.68 74.5767L33.6931 74.6707C33.7103 74.7327 33.7424 74.7877 33.7909 74.8357L33.8629 74.8907C33.9237 74.9267 33.99 74.9417 34.0601 74.9417C34.1073 74.9417 34.1519 74.9307 34.1887 74.9107C34.2354 74.8957 34.2766 74.8697 34.309 74.8337C34.346 74.7997 34.3725 74.7587 34.3853 74.7167C34.4091 74.6717 34.4202 74.6227 34.4181 74.5707L34.417 74.5627L34.4047 74.4747Z" fill="#FC7DA8"/>
<path d="M32.9879 76.3608C32.7753 76.3608 32.6641 76.5288 32.6641 76.6948C32.6641 76.7818 32.6926 76.8628 32.7448 76.9238C32.8042 76.9928 32.8882 77.0288 32.9879 77.0288C33.2006 77.0288 33.3119 76.8608 33.3119 76.6948C33.3119 76.6078 33.2834 76.5268 33.2313 76.4658C33.1721 76.3978 33.0877 76.3608 32.9879 76.3608Z" fill="#FC7DA8"/>
<path d="M18.3071 74.6678L18.304 74.6648L18.212 74.5948C18.1396 74.5518 18.0603 74.5308 17.9771 74.5308C17.9123 74.5298 17.8501 74.5418 17.7979 74.5688C17.7389 74.5888 17.6871 74.6218 17.6459 74.6668C17.5994 74.7098 17.5664 74.7618 17.5494 74.8158C17.5195 74.8718 17.5054 74.9338 17.5082 75.0028L17.5247 75.1228C17.5466 75.2018 17.5872 75.2718 17.6478 75.3318L17.7398 75.4028C17.8171 75.4478 17.9024 75.4658 17.99 75.4668C18.0499 75.4668 18.1063 75.4528 18.154 75.4268C18.2132 75.4078 18.265 75.3748 18.3061 75.3298C18.3524 75.2878 18.3857 75.2358 18.403 75.1818C18.4328 75.1238 18.4465 75.0628 18.4439 74.9938L18.4275 74.8738C18.4051 74.7948 18.3646 74.7248 18.3071 74.6678Z" fill="#FC7DA8"/>
<path d="M17.8096 72.2347C17.8096 72.0307 17.6731 71.8247 17.4126 71.8247C17.1518 71.8247 17.0156 72.0317 17.0156 72.2357C17.0156 72.3417 17.0506 72.4417 17.1144 72.5157C17.1871 72.5997 17.2901 72.6447 17.4126 72.6447C17.5348 72.6447 17.638 72.5997 17.7106 72.5157C17.7744 72.4417 17.8096 72.3417 17.8096 72.2347Z" fill="#FC7DA8"/>
<path d="M16.316 73.473C16.2855 73.443 16.2487 73.421 16.2098 73.41L16.1127 73.388C16.0777 73.386 16.0491 73.394 16.0254 73.407C15.9958 73.417 15.97 73.433 15.9468 73.459L15.9136 73.502C15.8931 73.537 15.8825 73.576 15.8828 73.622L15.8941 73.689L15.9035 73.713C15.9148 73.755 15.9362 73.791 15.9668 73.822C15.9973 73.853 16.0338 73.874 16.0757 73.886C16.0975 73.892 16.1194 73.895 16.141 73.895C16.2059 73.895 16.2692 73.869 16.316 73.822C16.3786 73.759 16.403 73.667 16.3793 73.582C16.368 73.54 16.3466 73.504 16.316 73.473Z" fill="#FC7DA8"/>
<path d="M14.7956 68.9927C14.6273 68.9927 14.5391 69.1257 14.5391 69.2577C14.5391 69.3887 14.6273 69.5217 14.7956 69.5217C14.964 69.5217 15.0522 69.3887 15.0522 69.2567C15.0522 69.1257 14.964 68.9927 14.7956 68.9927Z" fill="#FC7DA8"/>
<path d="M11.3215 50.1836C10.9289 50.1836 10.75 50.4896 10.75 50.7743C10.75 51.0587 10.9289 51.3642 11.3215 51.3642C11.714 51.3642 11.8927 51.0582 11.8927 50.7735C11.8927 50.4891 11.7141 50.1836 11.3215 50.1836Z" fill="#FC7DA8"/>
<path d="M12.0156 55.5207C12.0156 55.9841 12.3071 56.4827 12.9468 56.4827C13.5866 56.4827 13.8781 55.9836 13.8781 55.5193C13.8781 55.0559 13.5866 54.5571 12.9468 54.5571C12.3071 54.5571 12.0156 55.0565 12.0156 55.5207Z" fill="#FC7DA8"/>
<path d="M21.3358 48.5409C21.3922 48.5739 21.4541 48.5906 21.5193 48.5906C21.5847 48.5906 21.6463 48.5739 21.7031 48.5409C21.7572 48.5085 21.8011 48.4646 21.8334 48.4105C21.8661 48.3533 21.8826 48.2921 21.8826 48.2268C21.8826 48.1621 21.866 48.1004 21.8349 48.0472L21.8129 47.9972C21.7832 47.9466 21.7422 47.9057 21.6909 47.8753C21.5852 47.8147 21.4535 47.8141 21.3478 47.8753C21.2967 47.9057 21.2558 47.9466 21.2239 48.0007L21.2057 48.0437C21.1729 48.1004 21.1562 48.1621 21.1562 48.2273C21.1562 48.2921 21.1729 48.3538 21.2059 48.4105C21.2377 48.4646 21.2814 48.5085 21.3358 48.5409Z" fill="#FC7DA8"/>
<path d="M16.4101 50.7676C16.4335 50.8071 16.4653 50.839 16.5049 50.8622C16.5458 50.886 16.5907 50.8987 16.6383 50.8987C16.7319 50.8987 16.8194 50.8487 16.8667 50.7676C16.9138 50.6868 16.9138 50.5821 16.8667 50.5005C16.8194 50.4202 16.7319 50.3696 16.6383 50.3696C16.5907 50.3701 16.5458 50.3823 16.5047 50.4061C16.4652 50.4293 16.4335 50.4612 16.4088 50.5032L16.3943 50.5329C16.3763 50.5643 16.3672 50.5983 16.3672 50.6341C16.3672 50.67 16.3763 50.7044 16.3933 50.7333L16.4051 50.7576L16.4101 50.7676Z" fill="#FC7DA8"/>
<path d="M14.7913 44.9014C14.709 44.9014 14.6393 44.9317 14.5902 44.9888C14.5473 45.039 14.5234 45.1058 14.5234 45.1775C14.5234 45.3146 14.6156 45.4532 14.7913 45.4532C14.9671 45.4532 15.0589 45.3146 15.0589 45.1769C15.0589 45.0399 14.9671 44.9014 14.7913 44.9014Z" fill="#FC7DA8"/>
<path d="M9.80661 42.1199L9.80441 42.1114L9.77381 42.039L9.76961 42.0319L9.72231 41.9708L9.71661 41.9652L9.65551 41.9181L9.64871 41.9141L9.57321 41.8822C9.52811 41.8681 9.48181 41.866 9.44291 41.8751C9.41041 41.8757 9.37931 41.8838 9.35691 41.8979C9.31431 41.9116 9.27701 41.9354 9.24871 41.9662L9.21001 42.0001C9.18121 42.0268 9.16051 42.0593 9.15061 42.0911C9.13221 42.126 9.12351 42.1644 9.12521 42.2085L9.13541 42.2807C9.14871 42.3294 9.17361 42.3718 9.21081 42.4093L9.31161 42.4907L9.31851 42.4948L9.39371 42.5262C9.42051 42.5348 9.44791 42.5387 9.47381 42.5387C9.49121 42.5387 9.50821 42.5367 9.52401 42.5332C9.55531 42.5332 9.58511 42.5251 9.61251 42.51C9.64131 42.5013 9.66701 42.4862 9.68301 42.4689C9.70931 42.4532 9.73051 42.4326 9.74631 42.4067C9.76751 42.385 9.78221 42.3591 9.78791 42.3353C9.80941 42.295 9.81951 42.2504 9.81781 42.2029L9.81681 42.1953L9.80661 42.1199Z" fill="#FC7DA8"/>
<path d="M12.4502 46.6208C12.3565 46.5672 12.2416 46.5672 12.148 46.6208C12.1034 46.6472 12.0674 46.6835 12.0406 46.7281C12.0137 46.7746 12 46.8251 12 46.8792C12 46.9328 12.0137 46.9839 12.0411 47.0309L12.0845 47.0936L12.1315 47.1402L12.1567 47.1595L12.1635 47.1636L12.1907 47.1752C12.2217 47.1913 12.2552 47.1994 12.2927 47.1994H12.3033L12.3681 47.1904L12.3763 47.1883L12.4344 47.164L12.4413 47.1599L12.4916 47.121L12.4975 47.1155L12.5394 47.0598L12.5578 47.03C12.5844 46.9839 12.5982 46.9328 12.5985 46.8787C12.5982 46.8251 12.5844 46.7746 12.5576 46.7281C12.5309 46.6835 12.495 46.6472 12.4502 46.6208Z" fill="#FC7DA8"/>
<path d="M24.244 45.8884C24.244 45.8218 24.2218 45.7591 24.1815 45.7124C24.1355 45.6588 24.0703 45.6304 23.9931 45.6304C23.9159 45.6304 23.8507 45.6588 23.8046 45.7124C23.7644 45.7591 23.7422 45.8221 23.7422 45.8889C23.7422 46.0174 23.8285 46.1474 23.9931 46.1474C24.1577 46.1474 24.244 46.0173 24.244 45.8884Z" fill="#FC7DA8"/>
<path d="M25.3381 52.0275C25.382 51.9764 25.4059 51.9083 25.4059 51.835C25.4059 51.6947 25.3122 51.5532 25.1327 51.5532C25.0488 51.5532 24.9776 51.5841 24.9274 51.6427C24.8835 51.6938 24.8594 51.762 24.8594 51.8355C24.8594 51.9756 24.9533 52.1172 25.1327 52.1172C25.2167 52.1172 25.2877 52.0862 25.3381 52.0275Z" fill="#FC7DA8"/>
<path d="M28.0416 53.04C27.9067 53.04 27.8359 53.1468 27.8359 53.252C27.8359 53.3066 27.8538 53.3582 27.8869 53.3966C27.9248 53.4407 27.9782 53.4639 28.0416 53.4639C28.1768 53.4639 28.2474 53.3572 28.2474 53.252C28.2474 53.1968 28.2295 53.1457 28.1965 53.1073C28.1585 53.0633 28.1051 53.04 28.0416 53.04Z" fill="#FC7DA8"/>
<path d="M29.758 44.1165C29.758 44.0189 29.7257 43.9278 29.6672 43.8599C29.6006 43.7826 29.5065 43.7417 29.3945 43.7417C29.1559 43.7417 29.0312 43.9304 29.0312 44.117C29.0312 44.2146 29.0634 44.3057 29.1216 44.3734C29.1882 44.4509 29.2826 44.4918 29.3945 44.4918C29.6331 44.4918 29.758 44.3025 29.758 44.1165Z" fill="#FC7DA8"/>
<path d="M28.4039 57.3905C28.3112 57.4205 28.2298 57.473 28.1637 57.5443C28.0915 57.6111 28.0397 57.692 28.0094 57.7836C27.963 57.8721 27.9416 57.9688 27.9458 58.074L27.9722 58.2666C28.0071 58.392 28.0712 58.5018 28.1658 58.5969L28.313 58.7102C28.4284 58.777 28.5543 58.8108 28.6861 58.8113C28.6941 58.8113 28.7016 58.8113 28.7096 58.8113C28.8037 58.8113 28.8926 58.7902 28.971 58.7486C29.0637 58.7183 29.1449 58.6662 29.211 58.595C29.2838 58.5277 29.3359 58.4457 29.3643 58.3576C29.4112 58.2687 29.433 58.1711 29.429 58.0653L29.4025 57.8721C29.3676 57.7471 29.3035 57.6369 29.2089 57.5422L29.0618 57.4289C28.9465 57.3622 28.8207 57.3283 28.6886 57.3278C28.5873 57.3253 28.4883 57.3456 28.4039 57.3905Z" fill="#FC7DA8"/>
<path d="M33.4219 51.9091C33.4219 52.0548 33.5197 52.2025 33.7066 52.2025C33.8934 52.2025 33.9911 52.0548 33.9911 51.9086C33.9911 51.8323 33.966 51.7614 33.9205 51.7082C33.8682 51.6471 33.7943 51.6152 33.7066 51.6152C33.6189 51.6152 33.545 51.6476 33.4929 51.7082C33.4471 51.7614 33.4219 51.8328 33.4219 51.9091Z" fill="#FC7DA8"/>
<path d="M30.9306 48.8493C30.96 48.815 30.9762 48.7693 30.9762 48.7204C30.9762 48.6268 30.9133 48.5317 30.7928 48.5317C30.6726 48.5317 30.6094 48.6268 30.6094 48.7209C30.6094 48.7693 30.6258 48.815 30.655 48.8493C30.6888 48.8883 30.7364 48.9096 30.7928 48.9096C30.8493 48.9091 30.8967 48.8883 30.9306 48.8493Z" fill="#FC7DA8"/>
<path d="M19.5756 44.2568C19.5756 44.1254 19.4873 43.9927 19.319 43.9927C19.1506 43.9927 19.0625 44.1259 19.0625 44.2573C19.0625 44.3882 19.1506 44.5213 19.319 44.5213C19.4873 44.5213 19.5756 44.3882 19.5756 44.2568Z" fill="#FC7DA8"/>
<path d="M18.8418 51.2913C18.7975 51.3429 18.7734 51.4111 18.7734 51.4844C18.7734 51.6241 18.8673 51.7662 19.047 51.7662C19.2264 51.7662 19.3203 51.624 19.3203 51.4838C19.3203 51.4105 19.296 51.3424 19.2523 51.2913C19.2022 51.2332 19.1312 51.2021 19.0468 51.2021C18.9626 51.2021 18.8916 51.2332 18.8418 51.2913Z" fill="#FC7DA8"/>
<path d="M14.9892 48.6037L14.9901 48.6083C15.0084 48.6724 15.0412 48.7291 15.0909 48.7786L15.1654 48.8359C15.2282 48.8722 15.2982 48.8879 15.3685 48.8879C15.4172 48.8879 15.4633 48.8768 15.5015 48.856C15.5499 48.8403 15.5922 48.813 15.6258 48.7772C15.6637 48.7418 15.6908 48.6997 15.7044 48.6562C15.729 48.6091 15.7404 48.5586 15.7379 48.5025L15.7246 48.4055C15.7066 48.3411 15.6736 48.2849 15.6238 48.2349L15.5493 48.1778C15.4907 48.1438 15.4261 48.1262 15.3586 48.1262C15.3066 48.1241 15.2546 48.1354 15.2132 48.1576C15.1649 48.1732 15.1225 48.2005 15.089 48.237C15.051 48.2719 15.0239 48.3144 15.0104 48.3574C14.9857 48.4044 14.9744 48.455 14.9769 48.5106L14.9892 48.6037Z" fill="#FC7DA8"/>
<path d="M43.5274 55.6586C43.4912 55.5913 43.4414 55.5367 43.3795 55.4961C43.3239 55.4461 43.2578 55.4112 43.1834 55.3934L43.1385 55.3828C43.0354 55.3555 42.9313 55.3555 42.8277 55.3828C42.7297 55.4107 42.6429 55.4613 42.5669 55.5361C42.5388 55.5735 42.5099 55.611 42.4785 55.6519C42.426 55.7419 42.3992 55.8411 42.3987 55.9458C42.3959 56.0272 42.413 56.1042 42.448 56.1694C42.4716 56.2427 42.513 56.307 42.5699 56.36C42.6429 56.4324 42.7297 56.4825 42.8282 56.5103C42.8797 56.5239 42.9318 56.5311 42.9836 56.5311C43.0353 56.5311 43.0869 56.5239 43.1378 56.5103L43.1884 56.4981L43.3205 56.4419C43.388 56.4056 43.4431 56.3551 43.4796 56.2968C43.5168 56.2599 43.543 56.2148 43.5548 56.1699C43.5913 56.1007 43.6082 56.0252 43.6049 55.9423L43.5857 55.7987L43.5834 55.79L43.5274 55.6586Z" fill="#FC7DA8"/>
<path d="M46.5441 47.2342C46.5441 47.0768 46.4384 46.9175 46.237 46.9175C46.0354 46.9175 45.9297 47.0768 45.9297 47.2347C45.9297 47.3166 45.957 47.3934 46.0063 47.4512C46.0625 47.5164 46.1424 47.5508 46.237 47.5508C46.4384 47.5508 46.5441 47.3915 46.5441 47.2342Z" fill="#FC7DA8"/>
<path d="M50.6351 42.9194C50.5527 42.9194 50.4829 42.9497 50.4339 43.0068C50.3915 43.057 50.3672 43.1241 50.3672 43.1955C50.3672 43.3326 50.4597 43.4718 50.6351 43.4718C50.8108 43.4718 50.9028 43.3326 50.9028 43.1955C50.9028 43.1238 50.879 43.057 50.8365 43.0068C50.7875 42.9497 50.7176 42.9194 50.6351 42.9194Z" fill="#FC7DA8"/>
<path d="M42.4683 43.2143L42.4718 43.2164L42.514 43.2341C42.571 43.2675 42.6338 43.2841 42.7005 43.2846C42.7668 43.2841 42.8293 43.2675 42.8868 43.2341C42.9419 43.2013 42.9863 43.1567 43.0191 43.1016C43.052 43.0445 43.0691 42.9818 43.0693 42.9155C43.0691 42.8487 43.052 42.7865 43.0187 42.7287C42.9863 42.6736 42.9417 42.6292 42.8864 42.5963C42.7715 42.5305 42.6255 42.5321 42.5171 42.5948L42.4683 42.6165C42.4163 42.6473 42.3748 42.6888 42.3441 42.7404C42.3131 42.7941 42.2971 42.8528 42.2969 42.9155C42.2971 42.9777 42.3129 43.0369 42.3443 43.0905C42.3746 43.1421 42.4165 43.184 42.4683 43.2143Z" fill="#FC7DA8"/>
<path d="M39.1994 44.0671C39.2686 43.9868 39.3068 43.8784 39.3068 43.7626C39.3068 43.5415 39.1587 43.3179 38.8759 43.3179C38.5931 43.3179 38.4453 43.5415 38.4453 43.7632C38.4453 43.9836 38.5931 44.2077 38.8759 44.2077C39.0089 44.2077 39.1204 44.1591 39.1994 44.0671Z" fill="#FC7DA8"/>
<path d="M15.7664 53.356C15.3907 53.356 15.3901 53.9478 15.7664 53.9478C16.1422 53.9478 16.1427 53.356 15.7664 53.356Z" fill="#E6AEDB"/>
<path d="M16.242 56.6357C15.6698 56.6357 15.6689 57.5365 16.242 57.5365C16.814 57.5365 16.8151 56.6357 16.242 56.6357Z" fill="#E6AEDB"/>
<path d="M20.3852 54.6509C20.4545 54.5857 20.5034 54.5084 20.5322 54.4192C20.5766 54.3333 20.597 54.2408 20.5933 54.1416C20.5848 54.078 20.5764 54.0142 20.5678 53.9504C20.5341 53.8285 20.4733 53.7228 20.3852 53.6327C20.3371 53.5954 20.2892 53.558 20.2415 53.52C20.1306 53.4553 20.011 53.4224 19.8829 53.4218C19.7849 53.4183 19.6937 53.4391 19.6091 53.484C19.521 53.5129 19.4449 53.5624 19.3804 53.6327C19.3112 53.6981 19.2622 53.7749 19.2335 53.8644C19.1891 53.9504 19.1685 54.0426 19.1723 54.1416C19.1808 54.2054 19.1892 54.2697 19.1977 54.3333C19.2315 54.4552 19.2923 54.5609 19.3804 54.6509C19.4283 54.6885 19.4763 54.7258 19.5242 54.7634C19.635 54.8285 19.7546 54.8613 19.8827 54.8618C19.9805 54.8654 20.0718 54.8447 20.1565 54.7996C20.2446 54.7709 20.3207 54.7212 20.3852 54.6509Z" fill="#E6AEDB"/>
<path d="M18.7585 50.376C17.7167 50.376 17.7151 52.0164 18.7585 52.0164C19.8003 52.0164 19.8019 50.376 18.7585 50.376Z" fill="#E6AEDB"/>
<path d="M12.3774 55.8237C11.9163 55.8237 11.9155 56.55 12.3774 56.55C12.8385 56.55 12.8392 55.8237 12.3774 55.8237Z" fill="#E6AEDB"/>
<path d="M13.8272 59.6171L13.756 59.5614C13.7012 59.5292 13.6419 59.513 13.5785 59.513C13.5301 59.5109 13.4849 59.5211 13.4431 59.5433C13.3994 59.5579 13.3616 59.5822 13.3298 59.6171C13.2956 59.6495 13.2712 59.6874 13.2571 59.732C13.2351 59.7744 13.225 59.8199 13.2268 59.8691C13.231 59.901 13.2352 59.9323 13.2393 59.9637C13.256 60.0243 13.2863 60.0764 13.3298 60.121L13.401 60.1765C13.4558 60.2089 13.515 60.2252 13.5785 60.2252C13.6269 60.2271 13.6721 60.217 13.714 60.1948C13.7576 60.18 13.7953 60.1559 13.8272 60.121C13.8615 60.0886 13.8857 60.0505 13.8999 60.0061C13.9219 59.9642 13.9319 59.918 13.9301 59.8691L13.9176 59.7745C13.9009 59.7138 13.8708 59.6617 13.8272 59.6171Z" fill="#E6AEDB"/>
<path d="M22.5495 59.8467C21.9008 59.8467 21.8995 60.8689 22.5495 60.8689C23.1986 60.8684 23.1998 59.8467 22.5495 59.8467Z" fill="#E6AEDB"/>
<path d="M20.86 65.3389C19.9121 65.3389 19.9105 66.8309 20.86 66.8309C21.8077 66.8309 21.8095 65.3389 20.86 65.3389Z" fill="#E6AEDB"/>
<path d="M25.2928 62.4585C24.8403 62.4585 24.8395 63.1712 25.2928 63.1712C25.7454 63.1712 25.7461 62.4585 25.2928 62.4585Z" fill="#E6AEDB"/>
<path d="M22.4274 63.8328L22.4852 63.8778C22.5298 63.9048 22.5777 63.9178 22.6293 63.9178C22.6685 63.9188 22.7051 63.9108 22.7391 63.8928C22.7745 63.8818 22.805 63.8618 22.8309 63.8328C22.8589 63.8068 22.8785 63.7758 22.8899 63.7398C22.9077 63.7058 22.916 63.6688 22.9146 63.6288L22.9042 63.5518C22.8906 63.5029 22.8663 63.4604 22.8309 63.4245L22.7733 63.379C22.7287 63.3527 22.6808 63.3395 22.6293 63.3395C22.5899 63.3381 22.5532 63.3466 22.5192 63.3644C22.484 63.376 22.4533 63.3963 22.4274 63.4241C22.3998 63.4503 22.3799 63.4812 22.3686 63.5171C22.3506 63.5518 22.3425 63.5888 22.3439 63.6288L22.3541 63.7058C22.3677 63.7538 22.3922 63.7968 22.4274 63.8328Z" fill="#E6AEDB"/>
<path d="M25.4533 67.792C25.0265 67.792 25.0256 68.465 25.4533 68.465C25.8803 68.465 25.8812 67.792 25.4533 67.792Z" fill="#E6AEDB"/>
<path d="M29.0012 67.4838C28.9713 67.4608 28.9413 67.4378 28.9114 67.4138C28.8421 67.3728 28.7672 67.3528 28.6871 67.3518C28.6257 67.3498 28.5687 67.3628 28.5156 67.3908C28.4607 67.4088 28.4129 67.4408 28.3727 67.4838C28.3294 67.5248 28.2986 67.5728 28.2806 67.6288C28.2529 67.6828 28.2401 67.7408 28.2425 67.8028C28.2476 67.8428 28.2529 67.8828 28.2582 67.9228C28.2795 67.9988 28.3176 68.0648 28.3727 68.1208C28.4025 68.1448 28.4326 68.1678 28.4626 68.1918C28.5318 68.2318 28.6067 68.2528 28.6871 68.2528C28.7482 68.2558 28.8053 68.2428 28.8581 68.2148C28.9133 68.1958 28.961 68.1648 29.0012 68.1208C29.0446 68.0808 29.0754 68.0318 29.0932 67.9758C29.1212 67.9228 29.1337 67.8648 29.1316 67.8028C29.1263 67.7628 29.121 67.7228 29.1157 67.6828C29.0946 67.6068 29.0564 67.5398 29.0012 67.4838Z" fill="#E6AEDB"/>
<path d="M28.0285 71.9258C27.3452 71.9258 27.3441 73.0008 28.0285 73.0008C28.7116 73.0008 28.7128 71.9258 28.0285 71.9258Z" fill="#E6AEDB"/>
<path d="M22.8772 69.7017C22.1769 69.7017 22.1758 70.8047 22.8772 70.8047C23.5774 70.8047 23.5786 69.7017 22.8772 69.7017Z" fill="#E6AEDB"/>
<path d="M37.6067 58.5445C37.2853 58.3536 36.8764 58.3536 36.5552 58.5445C36.3986 58.638 36.274 58.7643 36.1813 58.9233C36.0872 59.0876 36.0397 59.2651 36.0391 59.4559L36.0423 59.5079L36.0437 59.5322C36.0442 59.7138 36.0893 59.8828 36.1792 60.0396C36.2139 60.1083 36.2604 60.1665 36.3131 60.2181C36.3742 60.2924 36.4428 60.3597 36.5275 60.4108C36.6119 60.4598 36.7021 60.4877 36.795 60.5049C36.8718 60.5296 36.9514 60.5433 37.0358 60.5372C37.2152 60.5366 37.3821 60.4912 37.5367 60.4001L37.5591 60.3895L37.6067 60.3673C37.7632 60.2732 37.8877 60.1473 37.9804 59.9885C38.0745 59.8241 38.1221 59.646 38.1226 59.4559C38.1226 59.0836 37.9235 58.7321 37.6067 58.5445Z" fill="#E6AEDB"/>
<path d="M33.7769 62.5889C33.1791 62.5889 33.178 63.5303 33.7769 63.5303C34.3745 63.5303 34.3756 62.5889 33.7769 62.5889Z" fill="#E6AEDB"/>
<path d="M37.4851 66.223L37.484 66.221L37.4824 66.218L37.4791 66.212L37.4773 66.209C37.4482 66.171 37.4183 66.131 37.3894 66.093C37.3517 66.063 37.3142 66.034 37.2765 66.005C37.2322 65.986 37.1878 65.967 37.1434 65.948C37.0693 65.924 36.9953 65.921 36.9213 65.938C36.8709 65.938 36.824 65.951 36.7805 65.976C36.7333 65.99 36.6924 66.014 36.6575 66.049C36.6158 66.074 36.5823 66.107 36.5576 66.15C36.5229 66.185 36.4991 66.227 36.4859 66.275C36.4508 66.342 36.435 66.415 36.4378 66.492L36.4577 66.643C36.4766 66.687 36.4952 66.732 36.5141 66.777C36.543 66.815 36.5721 66.853 36.6011 66.892C36.6388 66.921 36.6764 66.951 36.7139 66.98C36.7583 66.999 36.8027 67.018 36.8471 67.037L36.9951 67.057C37.0719 67.06 37.1434 67.044 37.2099 67.008C37.2571 66.995 37.2981 66.971 37.333 66.936C37.3936 66.896 37.4414 66.843 37.4766 66.777L37.4833 66.765L37.4851 66.761L37.5385 66.634C37.5446 66.587 37.551 66.539 37.5571 66.492C37.551 66.445 37.5446 66.398 37.5385 66.351L37.4851 66.223Z" fill="#E6AEDB"/>
<path d="M40.9561 62.1592C40.5463 62.1592 40.5454 62.8045 40.9561 62.8045C41.366 62.8045 41.3667 62.1592 40.9561 62.1592Z" fill="#E6AEDB"/>
<path d="M37.5642 62.4893C37.052 62.4893 37.0511 63.2961 37.5642 63.2961C38.0767 63.2961 38.0776 62.4893 37.5642 62.4893Z" fill="#E6AEDB"/>
<path d="M40.7399 57.1519L40.7899 57.15C41.3873 57.1232 41.3882 56.2354 40.7899 56.2086L40.7399 56.2061C40.1393 56.1793 40.1384 57.1787 40.7399 57.1519Z" fill="#E6AEDB"/>
<path d="M44.1773 60.6724C43.6392 60.6724 43.6385 61.5197 44.1773 61.5197C44.7152 61.5197 44.7161 60.6724 44.1773 60.6724Z" fill="#E6AEDB"/>
<path d="M40.6307 67.7197C39.9048 67.7197 39.9038 68.8627 40.6307 68.8627C41.3565 68.8627 41.3575 67.7197 40.6307 67.7197Z" fill="#E6AEDB"/>
<path d="M45.6267 62.8164C45.1145 62.8164 45.1135 63.623 45.6267 63.623C46.1391 63.623 46.1399 62.8164 45.6267 62.8164Z" fill="#E6AEDB"/>
<path d="M16.6241 41.4576L16.5529 41.402C16.4981 41.3695 16.4388 41.3533 16.3754 41.3533C16.327 41.3514 16.2818 41.3614 16.24 41.3838C16.1964 41.3984 16.1585 41.4227 16.1267 41.4576C16.0925 41.49 16.0681 41.5279 16.054 41.5723C16.032 41.615 16.0218 41.6604 16.0237 41.7094C16.0279 41.7413 16.0321 41.7727 16.0362 41.804C16.053 41.8648 16.0832 41.9168 16.1267 41.9614L16.1979 42.017C16.2527 42.0495 16.3119 42.0655 16.3754 42.0655C16.4238 42.0676 16.4691 42.0576 16.5109 42.0352C16.5545 42.0206 16.5922 41.9962 16.6241 41.9614C16.6584 41.9289 16.6826 41.8911 16.6968 41.8465C16.7188 41.8046 16.7288 41.7586 16.727 41.7094L16.7145 41.615C16.6978 41.5542 16.6677 41.502 16.6241 41.4576Z" fill="#E6AEDB"/>
<path d="M25.331 41.6875C24.682 41.6875 24.6808 42.7096 25.331 42.7096C25.9799 42.709 25.9811 41.6875 25.331 41.6875Z" fill="#E6AEDB"/>
<path d="M23.6334 47.1792C22.6855 47.1792 22.6839 48.6719 23.6334 48.6719C24.5812 48.6719 24.5829 47.1792 23.6334 47.1792Z" fill="#E6AEDB"/>
<path d="M28.0742 44.2993C27.6216 44.2993 27.6207 45.012 28.0742 45.012C28.5267 45.012 28.5276 44.2993 28.0742 44.2993Z" fill="#E6AEDB"/>
<path d="M25.2009 45.6736L25.2585 45.7185C25.3031 45.7448 25.351 45.758 25.4027 45.758C25.4418 45.7596 25.4784 45.7515 25.5126 45.7332C25.5478 45.7215 25.5785 45.7018 25.6042 45.6736C25.6322 45.6472 25.6518 45.6164 25.6632 45.5804C25.681 45.5461 25.6893 45.5092 25.6879 45.4692L25.6777 45.3922C25.6641 45.3433 25.6396 45.3008 25.6042 45.2649L25.5466 45.2194C25.5022 45.193 25.4541 45.1799 25.4027 45.1799C25.3634 45.1783 25.3267 45.187 25.2925 45.2046C25.2573 45.2162 25.2268 45.2365 25.2009 45.2643C25.1731 45.2906 25.1532 45.3216 25.1419 45.3574C25.1239 45.3922 25.1158 45.4292 25.1174 45.4692L25.1274 45.5461C25.141 45.5947 25.1655 45.6377 25.2009 45.6736Z" fill="#E6AEDB"/>
<path d="M28.2344 49.6328C27.8077 49.6328 27.807 50.305 28.2344 50.305C28.6615 50.305 28.6624 49.6328 28.2344 49.6328Z" fill="#E6AEDB"/>
<path d="M31.7747 49.3247C31.7448 49.3015 31.7146 49.2782 31.6847 49.2544C31.6154 49.2139 31.5406 49.1931 31.4604 49.1926C31.3992 49.1907 31.342 49.2033 31.2891 49.2315C31.234 49.2499 31.1862 49.2812 31.1461 49.3247C31.1027 49.3656 31.0719 49.4137 31.0539 49.4699C31.0263 49.5235 31.0134 49.5811 31.0159 49.6433C31.0211 49.6833 31.0263 49.7233 31.0317 49.7633C31.0529 49.8396 31.0909 49.9058 31.1461 49.962C31.176 49.9853 31.206 50.0085 31.2359 50.0323C31.3052 50.0728 31.38 50.0935 31.4604 50.0935C31.5217 50.0961 31.5786 50.0834 31.6315 50.055C31.6866 50.0369 31.7344 50.0055 31.7747 49.962C31.8179 49.921 31.8487 49.8725 31.8665 49.8168C31.8945 49.7633 31.907 49.705 31.9049 49.6433C31.8996 49.6033 31.8943 49.5635 31.8891 49.5235C31.8679 49.447 31.8297 49.3808 31.7747 49.3247Z" fill="#E6AEDB"/>
<path d="M30.8253 53.7661C30.1422 53.7661 30.141 54.8419 30.8253 54.8419C31.5084 54.8419 31.5096 53.7661 30.8253 53.7661Z" fill="#E6AEDB"/>
<path d="M25.6584 51.5425C24.9582 51.5425 24.957 52.6451 25.6584 52.6451C26.3586 52.6451 26.3598 51.5425 25.6584 51.5425Z" fill="#E6AEDB"/>
<path d="M36.5502 44.4297C35.9524 44.4297 35.9516 45.3709 36.5502 45.3709C37.1479 45.3709 37.1489 44.4297 36.5502 44.4297Z" fill="#E6AEDB"/>
<path d="M40.274 48.0637L40.2731 48.0618L40.2713 48.0586L40.268 48.0526L40.2662 48.0496C40.2371 48.0117 40.2074 47.9722 40.1783 47.9337C40.1406 47.9044 40.1031 47.875 40.0655 47.8457C40.0211 47.8265 39.9767 47.8079 39.9323 47.7887C39.8583 47.7652 39.7842 47.7617 39.7102 47.7784C39.6598 47.7784 39.6129 47.7917 39.5694 47.8168C39.5222 47.8306 39.4813 47.8549 39.4464 47.8898C39.4046 47.915 39.3713 47.9485 39.3465 47.9909C39.312 48.0263 39.288 48.0677 39.2748 48.1158C39.2399 48.1831 39.2239 48.2554 39.2269 48.3333L39.2468 48.4835C39.2654 48.5281 39.2843 48.5731 39.303 48.6182C39.3321 48.656 39.3609 48.6945 39.39 48.7323C39.4277 48.7618 39.4652 48.7915 39.5028 48.821C39.5474 48.8396 39.5916 48.8588 39.636 48.8775L39.7842 48.8978C39.861 48.9008 39.9325 48.8846 39.9989 48.8491C40.0462 48.8361 40.0872 48.8118 40.1219 48.7764C40.1825 48.7369 40.2303 48.6839 40.2655 48.6182L40.2722 48.606L40.2741 48.6025L40.3274 48.4749C40.3335 48.4273 40.3399 48.3803 40.346 48.3333C40.3399 48.2857 40.3335 48.2386 40.3274 48.1916L40.274 48.0637Z" fill="#E6AEDB"/>
<path d="M43.7373 44.0034C43.3275 44.0034 43.3268 44.6488 43.7373 44.6488C44.1473 44.6488 44.1478 44.0034 43.7373 44.0034Z" fill="#E6AEDB"/>
<path d="M40.3611 44.3335C39.8489 44.3335 39.848 45.1403 40.3611 45.1403C40.8734 45.1403 40.8743 44.3335 40.3611 44.3335Z" fill="#E6AEDB"/>
<path d="M46.9741 42.5132C46.436 42.5132 46.4355 43.3605 46.9741 43.3605C47.5119 43.3605 47.5129 42.5132 46.9741 42.5132Z" fill="#E6AEDB"/>
<path d="M43.412 49.564C42.6861 49.564 42.6851 50.7066 43.412 50.7066C44.1378 50.7066 44.139 49.564 43.412 49.564Z" fill="#E6AEDB"/>
<path d="M48.4237 44.6572C47.9114 44.6572 47.9103 45.464 48.4237 45.464C48.9361 45.464 48.9366 44.6572 48.4237 44.6572Z" fill="#E6AEDB"/>
<path d="M53.3554 38.2051C53.3397 38.2023 53.323 38.212 53.3186 38.228C53.0858 39.1312 50.5381 39.9788 46.1453 40.6147C41.729 41.2539 35.9163 41.6059 29.7785 41.6059C23.658 41.6059 17.8569 41.2555 13.4447 40.6196C9.05714 39.9869 6.49894 39.1426 6.24164 38.2423C6.23694 38.2262 6.22044 38.216 6.20464 38.2201C6.18844 38.2236 6.17754 38.2391 6.18004 38.2557C7.32204 45.752 8.93174 54.3353 10.5967 61.8051C12.1162 68.6218 13.4566 73.4928 14.0946 74.5158C15.849 77.3278 24.4864 78.6378 29.7716 78.6378C35.4196 78.6378 44.1153 77.3588 45.7628 74.5148C47.2405 71.9648 51.0459 54.7249 53.3808 38.2403C53.3827 38.2238 53.3722 38.2083 53.3554 38.2051Z" fill="#F77ADE"/>
<path d="M1.08594 8.43178C11.6573 18.1222 56.586 14.5984 58.3479 7.55078" stroke="white" stroke-width="1.2" stroke-linecap="round"/>
<path d="M1.08594 7.43178C11.6573 17.1222 56.586 13.5984 58.3479 6.55078" stroke="white" stroke-width="1.2" stroke-linecap="round"/>
<path d="M19.1224 49.5873C19.1224 49.4558 19.0342 49.3232 18.8659 49.3232C18.6975 49.3232 18.6094 49.4562 18.6094 49.5878C18.6094 49.7187 18.6975 49.8517 18.8659 49.8517C19.0342 49.8517 19.1224 49.7187 19.1224 49.5873Z" fill="#FC7DA8"/>
<path d="M18.3885 56.6182C18.3444 56.6699 18.3203 56.7381 18.3203 56.8115C18.3203 56.9511 18.4142 57.0933 18.5937 57.0933C18.7733 57.0933 18.8672 56.9511 18.8672 56.811C18.8672 56.7377 18.8429 56.6693 18.799 56.6182C18.7489 56.5601 18.6781 56.5293 18.5937 56.5293C18.5095 56.5293 18.4385 56.5601 18.3885 56.6182Z" fill="#FC7DA8"/>
<path d="M14.5361 53.9338L14.5371 53.9384C14.5553 54.0025 14.5881 54.0593 14.6379 54.1088L14.7123 54.1658C14.7752 54.2023 14.8452 54.218 14.9154 54.218C14.9642 54.218 15.0103 54.2069 15.0485 54.1861C15.0968 54.1704 15.1392 54.1431 15.1727 54.1072C15.2107 54.0718 15.2378 54.0298 15.2513 53.9863C15.276 53.9393 15.2873 53.8887 15.2849 53.8327L15.2716 53.7354C15.2536 53.6713 15.2205 53.6151 15.1708 53.565L15.0963 53.508C15.0377 53.4739 14.9731 53.4563 14.9056 53.4563C14.8536 53.4542 14.8016 53.4653 14.7601 53.4877C14.7119 53.5034 14.6695 53.5307 14.6359 53.567C14.598 53.602 14.5709 53.6445 14.5573 53.6875C14.5327 53.7345 14.5214 53.7851 14.5238 53.8408L14.5361 53.9338Z" fill="#FC7DA8"/>
<path d="M43.0742 60.9857C43.0379 60.9184 42.9883 60.8638 42.9264 60.8232C42.8707 60.7732 42.8047 60.7383 42.7301 60.7207L42.6854 60.71C42.5823 60.6826 42.4782 60.6826 42.3746 60.71C42.2766 60.7378 42.1898 60.7884 42.1138 60.8632C42.0856 60.9008 42.0567 60.9381 42.0254 60.9792C41.9729 61.0692 41.9461 61.1682 41.9456 61.2731C41.9427 61.3545 41.9598 61.4313 41.9949 61.4965C42.0185 61.5699 42.0599 61.6341 42.1168 61.6873C42.1898 61.7595 42.2766 61.8096 42.3751 61.8374C42.4266 61.8511 42.4787 61.8582 42.5303 61.8582C42.5821 61.8582 42.6336 61.8511 42.6847 61.8374L42.7352 61.8252L42.8672 61.7692C42.9349 61.7327 42.99 61.6822 43.0265 61.624C43.0637 61.587 43.0899 61.5421 43.1017 61.497C43.1382 61.4277 43.1551 61.3523 43.1518 61.2694L43.1326 61.1258L43.1303 61.1171L43.0742 60.9857Z" fill="#FC7DA8"/>
<path d="M46.091 52.5651C46.091 52.4078 45.9852 52.2485 45.7839 52.2485C45.5823 52.2485 45.4766 52.4078 45.4766 52.5657C45.4766 52.6476 45.5039 52.7244 45.5532 52.7822C45.6094 52.8474 45.6892 52.8817 45.7839 52.8817C45.9852 52.8817 46.091 52.7225 46.091 52.5651Z" fill="#FC7DA8"/>
<path d="M50.1821 48.2495C50.0997 48.2495 50.0299 48.2798 49.9809 48.3369C49.9384 48.3871 49.9141 48.4543 49.9141 48.5256C49.9141 48.6627 50.0066 48.8019 50.1821 48.8019C50.3576 48.8019 50.4498 48.6627 50.4498 48.5256C50.4498 48.4537 50.426 48.3871 50.3835 48.3369C50.3343 48.2798 50.2646 48.2495 50.1821 48.2495Z" fill="#FC7DA8"/>
<path d="M42.0154 48.545L42.0189 48.5471L42.0611 48.5647C42.1182 48.5982 42.1809 48.6148 42.2477 48.6153C42.3139 48.6148 42.3763 48.5982 42.4338 48.5647C42.4889 48.5318 42.5333 48.4874 42.5661 48.4322C42.5991 48.3751 42.6161 48.3124 42.6163 48.246C42.6161 48.1794 42.5991 48.117 42.5658 48.0594C42.5333 48.0043 42.4888 47.9599 42.4334 47.9269C42.3186 47.8612 42.1725 47.8626 42.0641 47.9253L42.0154 47.9472C41.9635 47.978 41.9218 48.0194 41.8911 48.071C41.8601 48.1246 41.8441 48.1833 41.8438 48.246C41.8441 48.3084 41.8599 48.3674 41.8913 48.4211C41.9216 48.4727 41.9636 48.5147 42.0154 48.545Z" fill="#FC7DA8"/>
<path d="M38.7463 49.3981C38.8156 49.3175 38.8536 49.2094 38.8536 49.0936C38.8536 48.8725 38.7056 48.6489 38.4229 48.6489C38.1401 48.6489 37.9922 48.8725 37.9922 49.0941C37.9922 49.3145 38.1401 49.5387 38.4229 49.5387C38.5557 49.5387 38.6674 49.49 38.7463 49.3981Z" fill="#FC7DA8"/>
<path d="M15.3133 58.687C14.9376 58.687 14.937 59.2788 15.3133 59.2788C15.6891 59.2788 15.6896 58.687 15.3133 58.687Z" fill="#E6AEDB"/>
<path d="M15.7888 61.9663C15.2167 61.9663 15.2158 62.8672 15.7888 62.8672C16.3609 62.8672 16.362 61.9663 15.7888 61.9663Z" fill="#E6AEDB"/>
<path d="M19.9321 59.9819C20.0013 59.9167 20.0503 59.8394 20.079 59.7502C20.1234 59.6642 20.1439 59.5717 20.1402 59.4725C20.1317 59.4089 20.1233 59.3452 20.1146 59.2814C20.081 59.1594 20.0202 59.0537 19.9321 58.9637C19.884 58.9263 19.8361 58.8888 19.7883 58.8509C19.6775 58.7863 19.5579 58.7533 19.4296 58.7528C19.3318 58.7493 19.2406 58.7701 19.156 58.815C19.0679 58.8439 18.9918 58.8934 18.9273 58.9637C18.858 59.0291 18.8091 59.1059 18.7803 59.1954C18.7359 59.2814 18.7153 59.3735 18.7192 59.4725C18.7277 59.5363 18.7359 59.6006 18.7446 59.6642C18.7782 59.7862 18.8392 59.8919 18.9273 59.9819C18.9752 60.0194 19.0231 60.0568 19.0711 60.0941C19.1819 60.1595 19.3013 60.1923 19.4296 60.1928C19.5274 60.1963 19.6185 60.1757 19.7034 60.1306C19.7915 60.1019 19.8676 60.0522 19.9321 59.9819Z" fill="#E6AEDB"/>
<path d="M18.3054 55.707C17.2636 55.707 17.2619 57.3473 18.3054 57.3473C19.3473 57.3473 19.3488 55.707 18.3054 55.707Z" fill="#E6AEDB"/>
<path d="M11.9242 61.1543C11.4632 61.1543 11.4623 61.8805 11.9242 61.8805C12.3854 61.8805 12.3861 61.1543 11.9242 61.1543Z" fill="#E6AEDB"/>
<path d="M13.374 64.9436L13.3028 64.8886C13.248 64.8556 13.1888 64.8396 13.1253 64.8396C13.0769 64.8376 13.0318 64.8476 12.9899 64.8696C12.9463 64.8846 12.9085 64.9086 12.8767 64.9436C12.8424 64.9766 12.8181 65.0146 12.8039 65.0586C12.782 65.1016 12.7718 65.1466 12.7736 65.1956C12.7779 65.2276 12.782 65.2586 12.7862 65.2906C12.8029 65.3516 12.8332 65.4036 12.8767 65.4476L12.9478 65.5036C13.0027 65.5356 13.0619 65.5516 13.1253 65.5516C13.1738 65.5536 13.219 65.5436 13.2608 65.5216C13.3044 65.5066 13.3421 65.4826 13.374 65.4476C13.4083 65.4156 13.4326 65.3776 13.4468 65.3326C13.4688 65.2906 13.4788 65.2446 13.477 65.1956L13.4645 65.1016C13.4477 65.0406 13.4176 64.9886 13.374 64.9436Z" fill="#E6AEDB"/>
<path d="M22.0964 65.1768C21.4477 65.1768 21.4464 66.1988 22.0964 66.1988C22.7455 66.1988 22.7465 65.1768 22.0964 65.1768Z" fill="#E6AEDB"/>
<path d="M20.4068 70.6689C19.4589 70.6689 19.4573 72.1619 20.4068 72.1619C21.3545 72.1619 21.3563 70.6689 20.4068 70.6689Z" fill="#E6AEDB"/>
<path d="M24.8397 67.7856C24.3872 67.7856 24.3863 68.4976 24.8397 68.4976C25.2923 68.4976 25.293 67.7856 24.8397 67.7856Z" fill="#E6AEDB"/>
<path d="M21.9665 69.1637L22.0243 69.2087C22.0687 69.2347 22.1168 69.2477 22.1682 69.2477C22.2075 69.2497 22.2442 69.2417 22.2782 69.2227C22.3136 69.2117 22.3441 69.1917 22.37 69.1637C22.398 69.1377 22.4176 69.1067 22.429 69.0707C22.4468 69.0357 22.4551 68.9987 22.4537 68.9587L22.4433 68.8827C22.4297 68.8327 22.4054 68.7907 22.37 68.7547L22.3122 68.7097C22.2678 68.6827 22.2197 68.6697 22.1682 68.6697C22.129 68.6677 22.0923 68.6767 22.0583 68.6947C22.0231 68.7067 21.9924 68.7267 21.9665 68.7537C21.9388 68.7807 21.9189 68.8117 21.9077 68.8477C21.8897 68.8827 21.8816 68.9187 21.883 68.9587L21.8932 69.0357C21.9068 69.0847 21.9313 69.1277 21.9665 69.1637Z" fill="#E6AEDB"/>
<path d="M25.0001 73.123C24.5734 73.123 24.5725 73.7951 25.0001 73.7951C25.4272 73.7951 25.4281 73.123 25.0001 73.123Z" fill="#E6AEDB"/>
<path d="M28.5481 72.8109C28.5182 72.7879 28.4882 72.7649 28.4582 72.7409C28.389 72.6999 28.3141 72.6799 28.234 72.6789C28.1726 72.6769 28.1156 72.6899 28.0625 72.7179C28.0076 72.7359 27.9598 72.7679 27.9196 72.8109C27.8763 72.8519 27.8455 72.8999 27.8275 72.9559C27.7998 73.0099 27.787 73.0679 27.7893 73.1299C27.7945 73.1699 27.7998 73.2099 27.8051 73.2499C27.8264 73.3259 27.8643 73.3919 27.9196 73.4489C27.9494 73.4719 27.9795 73.4949 28.0095 73.5189C28.0787 73.5589 28.1536 73.5799 28.234 73.5799C28.2951 73.5819 28.3522 73.5699 28.405 73.5419C28.4602 73.5229 28.5079 73.4919 28.5481 73.4489C28.5914 73.4069 28.6223 73.3589 28.6401 73.3029C28.6679 73.2499 28.6806 73.1909 28.6785 73.1299C28.6732 73.0899 28.6679 73.0499 28.6626 73.0099C28.6415 72.9339 28.6033 72.8669 28.5481 72.8109Z" fill="#E6AEDB"/>
<path d="M27.5753 77.2559C26.8921 77.2559 26.891 78.3319 27.5753 78.3319C28.2584 78.3319 28.2597 77.2559 27.5753 77.2559Z" fill="#E6AEDB"/>
<path d="M22.4241 75.0327C21.7237 75.0327 21.7227 76.1347 22.4241 76.1347C23.1243 76.1347 23.1255 75.0327 22.4241 75.0327Z" fill="#E6AEDB"/>
<path d="M37.1535 63.8747C36.8321 63.6837 36.4232 63.6837 36.1018 63.8747C35.9453 63.9677 35.8208 64.0947 35.7281 64.2537C35.634 64.4177 35.5864 64.5947 35.5859 64.7857L35.5891 64.8377L35.5905 64.8627C35.591 65.0437 35.6361 65.2127 35.726 65.3697C35.7607 65.4387 35.8072 65.4967 35.8597 65.5477C35.921 65.6227 35.9896 65.6897 36.0743 65.7407C36.1587 65.7897 36.2487 65.8177 36.3418 65.8347C36.4186 65.8597 36.4982 65.8737 36.5826 65.8677C36.762 65.8667 36.9288 65.8217 37.0835 65.7297L37.1059 65.7197L37.1535 65.6977C37.3099 65.6037 37.4345 65.4777 37.5272 65.3187C37.6213 65.1537 37.6688 64.9757 37.6694 64.7857C37.6694 64.4137 37.4703 64.0617 37.1535 63.8747Z" fill="#E6AEDB"/>
<path d="M33.316 67.916C32.7182 67.916 32.7171 68.858 33.316 68.858C33.9136 68.858 33.9147 67.916 33.316 67.916Z" fill="#E6AEDB"/>
<path d="M37.032 71.5528L37.0309 71.5508L37.0291 71.5478L37.026 71.5418L37.0242 71.5388C36.9951 71.5008 36.9652 71.4618 36.9363 71.4228C36.8986 71.3938 36.861 71.3648 36.8233 71.3348C36.7791 71.3158 36.7345 71.2968 36.6903 71.2778C36.6161 71.2548 36.5421 71.2508 36.4681 71.2678C36.4177 71.2678 36.3709 71.2808 36.3274 71.3068C36.2801 71.3198 36.2393 71.3448 36.2044 71.3788C36.1626 71.4048 36.1291 71.4378 36.1045 71.4808C36.0698 71.5158 36.046 71.5568 36.0328 71.6048C35.9977 71.6728 35.9819 71.7448 35.9847 71.8228L36.0046 71.9728C36.0234 72.0178 36.0421 72.0628 36.061 72.1078C36.0899 72.1458 36.1189 72.1838 36.148 72.2218C36.1855 72.2508 36.2232 72.2808 36.2608 72.3108C36.3052 72.3288 36.3496 72.3478 36.394 72.3668L36.542 72.3868C36.6188 72.3908 36.6903 72.3738 36.7567 72.3388C36.804 72.3258 36.845 72.3008 36.8799 72.2658C36.9405 72.2268 36.9883 72.1728 37.0233 72.1078L37.0302 72.0958L37.032 72.0918L37.0853 71.9648C37.0915 71.9168 37.0978 71.8698 37.104 71.8228C37.0978 71.7748 37.0915 71.7278 37.0853 71.6808L37.032 71.5528Z" fill="#E6AEDB"/>
<path d="M40.503 67.4897C40.0932 67.4897 40.0923 68.1347 40.503 68.1347C40.9128 68.1347 40.9135 67.4897 40.503 67.4897Z" fill="#E6AEDB"/>
<path d="M37.111 67.8198C36.5988 67.8198 36.598 68.6268 37.111 68.6268C37.6234 68.6268 37.6245 67.8198 37.111 67.8198Z" fill="#E6AEDB"/>
<path d="M40.2867 62.4825L40.3367 62.4805C40.9342 62.4537 40.9351 61.5659 40.3367 61.5391L40.2867 61.5367C39.6861 61.5099 39.6852 62.5092 40.2867 62.4825Z" fill="#E6AEDB"/>
<path d="M43.724 66.0029C43.1861 66.0029 43.1854 66.8499 43.724 66.8499C44.2621 66.8499 44.263 66.0029 43.724 66.0029Z" fill="#E6AEDB"/>
<path d="M40.1777 73.0508C39.4518 73.0508 39.4507 74.1928 40.1777 74.1928C40.9034 74.1928 40.9045 73.0508 40.1777 73.0508Z" fill="#E6AEDB"/>
<path d="M45.1736 68.147C44.6613 68.147 44.6604 68.954 45.1736 68.954C45.686 68.954 45.6867 68.147 45.1736 68.147Z" fill="#E6AEDB"/>
<path d="M18.5857 43.8071C18.0136 43.8071 18.0125 44.708 18.5857 44.708C19.1578 44.708 19.1588 43.8071 18.5857 43.8071Z" fill="#E6AEDB"/>
<path d="M14.7055 42.9946C14.2444 42.9946 14.2436 43.7207 14.7055 43.7207C15.1666 43.7207 15.1673 42.9946 14.7055 42.9946Z" fill="#E6AEDB"/>
<path d="M16.1709 46.785L16.0996 46.7294C16.0449 46.6971 15.9856 46.6809 15.9222 46.6809C15.8737 46.6788 15.8286 46.689 15.7867 46.7112C15.7431 46.7258 15.7053 46.7501 15.6735 46.785C15.6392 46.8175 15.6149 46.8553 15.6007 46.8999C15.5788 46.9424 15.5686 46.9878 15.5705 47.037C15.5747 47.0689 15.5788 47.1002 15.583 47.1316C15.5997 47.1922 15.63 47.2444 15.6735 47.2888L15.7447 47.3444C15.7995 47.3769 15.8587 47.3931 15.9222 47.3931C15.9706 47.395 16.0158 47.385 16.0577 47.3628C16.1012 47.348 16.1389 47.3238 16.1709 47.2888C16.2051 47.2565 16.2294 47.2185 16.2436 47.1741C16.2656 47.1321 16.2756 47.086 16.2738 47.037L16.2613 46.9424C16.2445 46.8818 16.2145 46.8296 16.1709 46.785Z" fill="#E6AEDB"/>
<path d="M24.8778 47.0176C24.2289 47.0176 24.2277 48.0399 24.8778 48.0399C25.5267 48.0393 25.528 47.0176 24.8778 47.0176Z" fill="#E6AEDB"/>
<path d="M23.1725 52.5098C22.2246 52.5098 22.223 54.0025 23.1725 54.0025C24.1202 54.0025 24.122 52.5098 23.1725 52.5098Z" fill="#E6AEDB"/>
<path d="M27.621 49.626C27.1684 49.626 27.1675 50.3387 27.621 50.3387C28.0735 50.3387 28.0742 49.626 27.621 49.626Z" fill="#E6AEDB"/>
<path d="M24.7476 51.0046L24.8054 51.0495C24.85 51.0758 24.8979 51.089 24.9495 51.089C24.9886 51.0906 25.0253 51.0825 25.0595 51.0641C25.0947 51.0525 25.1254 51.0328 25.1511 51.0046C25.1791 50.9782 25.1987 50.9473 25.2101 50.9114C25.2279 50.877 25.2362 50.8402 25.2348 50.8002L25.2246 50.7232C25.211 50.6742 25.1865 50.6318 25.1511 50.5958L25.0935 50.5504C25.0489 50.5239 25.001 50.5109 24.9495 50.5109C24.9102 50.5093 24.8734 50.5179 24.8394 50.5356C24.8042 50.5472 24.7735 50.5675 24.7476 50.5953C24.72 50.6216 24.7 50.6524 24.6888 50.6883C24.6708 50.7232 24.6627 50.7602 24.6643 50.8002L24.6743 50.877C24.6879 50.9257 24.7124 50.9686 24.7476 51.0046Z" fill="#E6AEDB"/>
<path d="M27.7813 54.9634C27.3545 54.9634 27.3538 55.6356 27.7813 55.6356C28.2084 55.6356 28.2092 54.9634 27.7813 54.9634Z" fill="#E6AEDB"/>
<path d="M31.3137 54.6517C31.2838 54.6285 31.2538 54.6052 31.2239 54.5814C31.1546 54.5409 31.0797 54.5203 30.9996 54.5198C30.9382 54.5177 30.8812 54.5303 30.8281 54.5587C30.7732 54.5769 30.7254 54.6082 30.6852 54.6517C30.6419 54.6928 30.6111 54.7407 30.5931 54.7969C30.5654 54.8505 30.5526 54.9083 30.555 54.9705C30.5601 55.0103 30.5654 55.0503 30.5707 55.0903C30.592 55.1666 30.6301 55.233 30.6852 55.289C30.715 55.3123 30.7451 55.3355 30.7751 55.3593C30.8443 55.3998 30.9192 55.4206 30.9996 55.4206C31.0607 55.4231 31.1178 55.4104 31.1706 55.3821C31.2258 55.3639 31.2735 55.3325 31.3137 55.289C31.3571 55.2481 31.3879 55.1995 31.4057 55.1438C31.4337 55.0903 31.4462 55.0321 31.4441 54.9705C31.4388 54.9305 31.4335 54.8905 31.4282 54.8505C31.4071 54.7742 31.3689 54.7079 31.3137 54.6517Z" fill="#E6AEDB"/>
<path d="M30.3722 59.0962C29.6891 59.0962 29.6879 60.172 30.3722 60.172C31.0553 60.172 31.0565 59.0962 30.3722 59.0962Z" fill="#E6AEDB"/>
<path d="M25.2053 56.8735C24.505 56.8735 24.5039 57.9761 25.2053 57.9761C25.9055 57.9761 25.9067 56.8735 25.2053 56.8735Z" fill="#E6AEDB"/>
<path d="M39.927 45.7151C39.6056 45.5247 39.1969 45.5247 38.8755 45.7151C38.7189 45.809 38.5943 45.9352 38.5016 46.0938C38.4075 46.2585 38.36 46.4361 38.3594 46.6267L38.3626 46.6787L38.364 46.703C38.3645 46.8847 38.4098 47.0535 38.4995 47.2103C38.5342 47.2792 38.5807 47.3373 38.6334 47.3889C38.6945 47.4633 38.7631 47.5306 38.8478 47.5815C38.9322 47.6307 39.0224 47.6585 39.1153 47.6756C39.1921 47.7004 39.2717 47.7142 39.3561 47.708C39.5355 47.7075 39.7023 47.662 39.857 47.5709L39.8794 47.5604L39.927 47.5382C40.0834 47.4441 40.208 47.3181 40.3007 47.1592C40.3948 46.9948 40.4423 46.8168 40.4429 46.6267C40.4429 46.2544 40.2438 45.9031 39.927 45.7151Z" fill="#E6AEDB"/>
<path d="M36.0972 49.7568C35.4994 49.7568 35.4983 50.6981 36.0972 50.6981C36.6948 50.6981 36.6959 49.7568 36.0972 49.7568Z" fill="#E6AEDB"/>
<path d="M39.8209 53.3938L39.8201 53.3919L39.8183 53.3887L39.8149 53.3827L39.8132 53.3797C39.7841 53.3418 39.7543 53.3022 39.7253 53.2638C39.6876 53.2345 39.65 53.2051 39.6125 53.1759C39.5681 53.1567 39.5237 53.138 39.4793 53.1186C39.4053 53.0954 39.3311 53.0918 39.2571 53.1086C39.2067 53.1086 39.1599 53.1218 39.1164 53.147C39.0691 53.1607 39.0283 53.1849 38.9934 53.2199C38.9516 53.2451 38.9181 53.2786 38.8935 53.3211C38.8588 53.3565 38.835 53.3979 38.8218 53.446C38.7869 53.5133 38.7708 53.5855 38.7738 53.6634L38.7938 53.8137C38.8124 53.8581 38.8313 53.9032 38.85 53.9481C38.879 53.9862 38.9079 54.0246 38.937 54.0625C38.9747 54.0919 39.0122 54.1217 39.0498 54.1511C39.0943 54.1698 39.1386 54.189 39.183 54.2076L39.3311 54.2279C39.4078 54.2309 39.4795 54.2147 39.5459 54.1793C39.5931 54.1662 39.6342 54.1419 39.6689 54.1065C39.7295 54.067 39.7772 54.014 39.8125 53.9481L39.8192 53.9361L39.8211 53.9324L39.8743 53.805C39.8805 53.7575 39.8868 53.7104 39.893 53.6634C39.8868 53.6158 39.8805 53.5688 39.8743 53.5217L39.8209 53.3938Z" fill="#E6AEDB"/>
<path d="M43.2843 49.3335C42.8745 49.3335 42.8736 49.9789 43.2843 49.9789C43.6943 49.9789 43.6948 49.3335 43.2843 49.3335Z" fill="#E6AEDB"/>
<path d="M39.9003 49.6602C39.3879 49.6602 39.387 50.467 39.9003 50.467C40.4126 50.467 40.4135 49.6602 39.9003 49.6602Z" fill="#E6AEDB"/>
<path d="M43.0836 44.3233L43.1336 44.321C43.7311 44.2942 43.7321 43.4067 43.1336 43.3798L43.0836 43.3775C42.4831 43.3505 42.482 44.3502 43.0836 44.3233Z" fill="#E6AEDB"/>
<path d="M46.5131 47.8433C45.975 47.8433 45.9745 48.6904 46.5131 48.6904C47.0509 48.6904 47.0519 47.8433 46.5131 47.8433Z" fill="#E6AEDB"/>
<path d="M42.9511 54.8945C42.2252 54.8945 42.2242 56.037 42.9511 56.037C43.6769 56.037 43.6781 54.8945 42.9511 54.8945Z" fill="#E6AEDB"/>
<path d="M47.9706 49.9873C47.4582 49.9873 47.4572 50.7941 47.9706 50.7941C48.483 50.7941 48.4835 49.9873 47.9706 49.9873Z" fill="#E6AEDB"/>
</svg>
