<svg width="1035" height="1020" viewBox="0 0 1035 1020" fill="none" xmlns="http://www.w3.org/2000/svg">
<path d="M882.533 150.419C893.066 147.365 903.255 169.105 900.2 176.238C897.145 183.372 888.987 192.203 878.12 188.469C867.247 184.73 871.999 153.474 882.533 150.419Z" fill="#F77ADE"/>
<path d="M888.511 160.409C886.604 158.003 885.043 157.225 884.586 157.213C884.043 157.466 883.006 158.7 881.97 160.854C882.476 161.317 883.019 161.866 883.617 162.625C887.474 167.5 889.128 174.029 888.702 175.818C887.733 178.071 886.043 180.446 883.963 182.143C888.227 181.687 891.936 177.447 893.59 173.615C894.015 171.82 892.362 165.285 888.511 160.409Z" fill="#E6AEDB"/>
<path d="M904.02 703.979C921.681 692.464 943.174 708.589 945.482 727.015C947.784 745.442 918.608 760.03 918.608 760.03C908.623 764.64 894.807 756.957 888.66 746.978C882.52 736.994 886.358 715.5 904.02 703.979Z" fill="#F77ADE"/>
<path d="M208.026 914.503C217.813 935.231 197.085 958.268 174.049 947.9C161.059 942.057 159.652 917.953 166.563 909.894C173.475 901.835 198.239 893.775 208.026 914.503Z" fill="#F77ADE"/>
<path d="M783.545 335.027C784.224 335.082 784.903 335.113 785.569 335.113C793.869 335.113 801.132 331.046 809.309 331.046C813.659 331.046 816.257 331.441 816.257 335.718C816.257 339.427 794.079 362.16 794.079 376.718C794.079 385.709 801.385 389.461 808.747 389.461C815.233 389.461 827.704 383.981 836.078 383.981C844.187 383.981 849.235 386.381 849.235 393.916C849.235 407.523 839.367 411.262 839.367 421.05C839.367 437.674 878.016 441.167 878.744 471.127C878.75 471.398 878.756 471.664 878.756 471.935C878.756 481.34 874.937 492.583 874.937 502.166C874.937 523.95 906.211 527.708 927.852 527.708C949.623 527.708 973.307 523.58 993.906 523.58C1011.06 523.58 1034.44 527.023 1034.44 548.177C1034.44 562.16 1022.42 564.079 1007.95 564.079C991.376 564.079 975.004 559.186 958.201 559.186C890.666 559.186 830.241 568.751 830.241 728.454C830.241 750.873 875.831 755.816 893.345 772.052C900.842 779.001 885.785 785.832 896.837 796.68C914.06 813.582 908.463 825.4 892.012 815.323C882.78 808.516 863.335 805.437 895.368 865.492C909.796 892.533 899.022 907.973 888.519 907.973C853.715 907.973 857.855 783.37 800.922 783.37C773.986 783.37 789.994 829.189 754.202 834.521C627.149 853.441 729.667 947.226 639.929 947.226C614.462 947.226 589.247 912.996 566.236 916.322C560.645 917.131 560.225 941.463 555.906 947.226C555.906 947.226 538.121 965.9 522.12 935.224C506.112 904.548 493.258 936.273 472.345 935.748C460.472 935.452 452.765 958.914 422.151 950.176C395.64 942.611 397.504 962.086 383.854 958.507C289.05 933.638 370.377 852.441 289.124 852.441C254.622 852.441 223.194 874.668 189.34 874.668C173.339 874.668 162.065 859.537 162.065 846.751C162.065 815.971 235.696 790.435 235.696 754.027C235.696 743.802 228.223 725.943 215.357 725.943C212.191 725.943 208.766 726.375 205.335 726.375C194.4 726.375 187.76 719.507 187.76 714.459C187.76 671.694 161.583 671.694 141.515 671.694C139.553 671.694 137.597 671.707 135.641 671.707C124.126 671.707 101.849 623.425 59.3556 630.929C28.2541 636.421 3.66286 629.825 0.484829 617.501C-2.6932 605.172 10.5497 601.654 17.0106 601.654C28.0628 601.654 40.201 606.585 51.574 607.424C91.7715 610.386 98.8495 600.796 96.5107 575.409C91.7714 523.839 107.612 472.879 146.551 469.498C175.752 466.961 180.281 449.572 183.774 416.31C184.94 405.221 194.974 386.758 186.94 371.423C178.905 356.088 197.597 347.332 197.597 335.027C197.597 306.702 146.841 298.23 146.841 274.996C146.841 270.769 150.648 267.356 153.82 267.356C159.448 267.356 169.13 280.278 172.561 280.278C175.622 280.278 177.504 276.335 177.504 273.404C177.504 254.626 127.97 246.857 127.97 219.223C127.97 211.485 131.197 206.357 141.139 206.357C166.859 206.357 197.134 256.786 240.398 261.951C240.577 261.969 240.769 261.981 240.96 261.981C245.076 261.981 246.433 259.155 246.433 255.187C246.433 249.849 243.737 243.734 243.737 239.192C243.737 234.083 247.699 233.447 252.691 232.491C266.631 229.812 272.438 238.587 281.7 240.562C311.086 246.832 355.554 218.637 345.681 207.153C341.694 202.512 343.965 193.515 343.965 186.696C343.965 174.842 350.019 170.22 355.585 170.22C362.361 170.22 370.229 175.866 378.078 175.866C409.673 175.866 375.387 83.043 424.292 83.043C463.305 83.043 441.521 158.279 480.324 164.314C500.33 167.424 495.881 150.534 513.382 148.473C540.367 145.295 498.547 245.227 531.006 251.898C563.459 258.569 582.404 197.662 594.135 197.662C614.061 197.662 610.142 237.23 643.039 238.119C682.947 239.198 681.787 199.254 697.572 196.625C711.567 194.293 704.65 218.483 715.949 219.741C736.492 220.599 735.622 161.34 784.119 132.602C816.128 113.632 859.904 148.566 823.625 190.195C799.213 218.205 752.376 266.005 750.636 311.213C750.629 311.3 750.629 311.386 750.629 311.472C750.629 317.52 758.83 320.71 765.754 322.79C765.964 322.852 766.186 322.882 766.415 322.882C767.883 322.882 769.611 321.716 771.055 321.716C771.382 321.716 771.691 321.778 771.981 321.92L783.545 335.027Z" fill="#F77ADE"/>
<path d="M721.457 236.619C721.797 236.657 722.58 236.687 722.92 236.687C737.557 236.687 743.944 222.365 751.343 205.783C759.847 186.734 770.43 163.019 795.366 148.246C799.785 145.629 804.759 144.241 809.751 144.241C815.718 144.241 821.395 146.246 825.814 149.585C821.864 141.76 812.929 136.533 803.234 136.533C798.242 136.533 793.268 137.922 788.85 140.538C763.919 155.311 753.33 179.026 744.827 198.076C737.428 214.657 731.041 228.98 716.403 228.98C716.064 228.98 715.28 228.955 714.941 228.912C712.33 228.622 710.232 227.777 708.437 226.666C710.64 231.393 714.392 235.83 721.457 236.619Z" fill="white"/>
<path d="M649.326 255.048L651.153 255.079C680.354 255.079 691.301 235.974 698.546 223.336C699.348 221.929 700.446 220.022 701.563 218.251C700.317 215.363 699.607 212.42 699.083 210.192C698.811 209.056 698.459 207.569 698.101 206.391C696.324 208.137 693.609 212.858 692.023 215.629C684.778 228.267 673.831 247.372 644.624 247.372L642.798 247.347C631.005 247.026 622.791 242.657 616.75 236.961C623.081 245.965 632.56 254.598 649.326 255.048Z" fill="white"/>
<path d="M808.746 398.679C802.723 398.679 797.558 396.945 793.528 394.044C797.144 401.591 805.062 406.386 815.269 406.386C819.564 406.386 824.506 405.022 829.739 403.578C832.442 402.832 835.318 402.06 837.91 401.536C839.156 399.283 839.983 397.056 839.983 393.896C839.983 393.779 839.977 393.668 839.977 393.575C839.36 393.409 838.169 393.205 836.071 393.205C832.874 393.205 827.74 394.624 823.21 395.871C817.984 397.315 813.041 398.679 808.746 398.679Z" fill="white"/>
<path d="M785.568 344.35C784.648 344.35 783.729 344.313 782.797 344.239C780.409 344.041 778.194 342.931 776.608 341.135L768.505 331.94C767.864 332.045 767.172 332.113 766.426 332.113C765.525 332.113 763.976 331.891 763.112 331.632C760.039 330.706 754.349 328.96 749.561 325.541C753.64 334.402 764.809 337.889 769.635 339.339C770.498 339.598 772.047 339.821 772.948 339.821C773.689 339.821 774.386 339.753 775.022 339.648L783.124 348.842C784.71 350.638 786.926 351.749 789.314 351.946C790.246 352.021 791.171 352.057 792.084 352.057C792.806 352.057 793.498 351.983 794.195 351.94C796.515 348.299 798.99 344.807 801.322 341.622C800.841 341.746 800.36 341.875 799.866 342.005C795.67 343.103 790.924 344.35 785.568 344.35Z" fill="white"/>
<path d="M856.065 453.718C860.224 456.477 863.84 459.007 866.858 461.623C863.606 455.798 857.527 451.305 849.548 446.011C846.136 443.746 842.55 441.37 839.403 438.643C843.057 444.999 849.808 449.571 856.065 453.718Z" fill="white"/>
<path d="M535.682 268.637C537.94 269.106 540.23 269.334 542.488 269.334C565.747 269.334 581.273 245.527 592.602 228.149C595.577 223.589 599.465 217.659 601.84 215.11C599.304 210.636 597.447 207.971 595.528 207.162C593.17 209.587 589.134 215.764 586.086 220.442C574.756 237.819 559.23 261.627 535.972 261.627C533.713 261.627 531.424 261.392 529.165 260.929C525.487 260.177 522.488 258.751 519.952 256.881C523.068 262.818 528.018 267.063 535.682 268.637Z" fill="white"/>
<path d="M884.756 780.672C885.04 779.833 885.324 779.061 885.577 778.407C885.669 778.191 885.749 777.969 885.842 777.76C880.06 773.057 870.458 769.04 861.14 765.146C850.427 760.66 838.906 755.828 830.964 748.83C837.74 760.314 853.407 766.892 867.656 772.854C873.636 775.353 879.628 777.926 884.756 780.672Z" fill="white"/>
<path d="M934.373 544.646C945.832 544.646 957.693 543.554 969.152 542.498C980.235 541.48 990.695 540.518 1000.43 540.518C1012.9 540.518 1020.35 542.363 1024.86 544.819C1023.72 539.919 1018.45 532.816 993.904 532.816C984.172 532.816 973.713 533.779 962.63 534.797C951.17 535.852 939.31 536.945 927.85 536.945C900.038 536.945 884.444 531.169 875.805 523.807C881.871 534.421 897.317 544.646 934.373 544.646Z" fill="white"/>
<path d="M179.893 297.098C188.168 296.592 193.284 288.582 193.284 281.072C193.284 273.618 189.341 267.866 183.762 262.893C185.595 266.015 186.761 269.44 186.761 273.365C186.761 281.115 181.337 289.483 172.568 289.483C170.069 289.483 167.909 288.669 165.805 287.336C168.785 289.6 172.161 291.878 175.505 294.118C176.943 295.086 178.412 296.08 179.893 297.098Z" fill="white"/>
<path d="M485.438 181.124C487.641 181.463 489.622 181.612 491.411 181.612C503.167 181.612 508.678 175.157 512.331 170.88C512.812 170.319 513.226 169.85 513.645 169.381C513.917 164.456 513.886 160.192 513.226 157.816C509.813 158.495 508.381 160.161 505.814 163.173C502.161 167.449 496.644 173.904 484.889 173.904C483.099 173.904 481.118 173.756 478.915 173.417C471.64 172.281 466.036 169.375 461.581 165.382C466.678 173.318 474.052 179.353 485.438 181.124Z" fill="white"/>
<path d="M347 900.821C346.05 887.146 344.914 871.447 333.109 861.352C338.873 870.818 339.749 882.561 340.484 893.113C341.533 908.3 342.631 922.913 355.041 934.354C348.679 924.375 347.827 912.774 347 900.821Z" fill="white"/>
<path d="M177.838 854.422C177.838 844.116 193.617 831.472 208.872 819.241C229.816 802.456 251.47 785.104 251.47 761.697C251.47 751.367 246.502 738.371 237.838 730.75C242.417 737.914 244.953 746.628 244.953 753.99C244.953 777.396 223.299 794.749 202.355 811.534C187.101 823.764 171.315 836.409 171.315 846.714C171.315 851.818 174.531 858.408 179.936 862.234C178.622 859.593 177.838 856.841 177.838 854.422Z" fill="white"/>
<path d="M872.081 861.887C864.602 838.795 855.888 812.124 840.227 796.123C851.927 812.192 859.184 834.5 865.564 854.179C871.334 871.988 878.375 893.649 885.935 897.9C880.856 888.959 876.147 874.457 872.081 861.887Z" fill="white"/>
<path d="M536.849 938.612C535.473 935.984 532.419 930.275 527.47 925.906C528.759 927.924 529.716 929.726 530.327 930.905C533.036 936.094 535.93 939.834 538.688 941.852C538.071 940.84 537.454 939.772 536.849 938.612Z" fill="#B0E1F6"/>
<path d="M145.475 233.152C144.426 231.165 143.753 229.103 143.753 226.907C143.753 224.617 144.179 223.846 144.216 223.778C144.253 223.778 145.123 223.284 147.678 223.284C156.046 223.284 167.919 233.078 180.495 243.451C198.798 258.557 219.557 275.675 245.839 278.823C246.209 278.866 247.129 278.915 247.499 278.915C254.83 278.915 262.217 273.96 262.217 262.877C262.217 258.983 261.316 255.299 260.52 252.047C260.31 251.202 260.088 250.301 259.909 249.468C260.15 249.418 260.39 249.375 260.612 249.332C262.13 249.042 263.254 248.924 264.296 248.924C268.147 248.924 271.066 250.517 274.781 252.534C278.039 254.306 281.729 256.311 286.314 257.292C289.745 258.02 293.429 258.391 297.261 258.391C322.013 258.391 353.645 242.408 361.124 226.123C364 219.866 363.309 213.553 359.236 208.807C358.847 207.808 359.193 203.426 359.409 200.81C359.582 198.588 359.748 196.398 359.748 194.38C359.748 189.665 361.131 187.147 362.124 187.147C363.722 187.147 366.697 188.258 369.319 189.233C373.8 190.905 378.878 192.794 384.617 192.794C407.456 192.794 408.881 166.394 410.035 145.185C411.757 113.306 415.028 99.9767 430.831 99.9767C433.238 99.9767 435.219 100.526 436.984 101.458C434.065 95.2683 430.369 92.2754 424.315 92.2754C408.511 92.2754 405.24 105.605 403.519 137.484C402.365 158.693 400.939 185.092 378.101 185.092C372.362 185.092 367.283 183.204 362.803 181.532C360.174 180.551 357.206 179.446 355.608 179.446C354.614 179.446 353.232 181.964 353.232 186.678C353.232 188.696 353.065 190.887 352.892 193.108C352.676 195.725 352.331 200.112 352.72 201.106C356.792 205.851 357.484 212.164 354.608 218.422C347.129 234.707 315.49 250.689 290.739 250.689C286.907 250.689 283.223 250.319 279.792 249.591C275.207 248.61 271.516 246.604 268.258 244.833C264.549 242.815 261.624 241.223 257.774 241.223C256.731 241.223 255.614 241.34 254.09 241.63C253.867 241.674 253.633 241.717 253.386 241.766C253.565 242.599 253.787 243.5 253.997 244.346C254.787 247.598 255.694 251.282 255.694 255.176C255.694 266.252 248.301 271.214 240.976 271.214C240.606 271.214 239.687 271.164 239.316 271.121C213.028 267.98 192.275 250.856 173.972 235.756C161.402 225.382 149.529 215.589 141.155 215.589C138.607 215.589 137.731 216.083 137.694 216.083C137.65 216.145 137.225 216.916 137.225 219.211C137.231 224.426 140.606 228.961 145.475 233.152Z" fill="white"/>
<path d="M23.5454 618.574C28.5069 618.574 34.1779 619.883 40.1823 621.265C42.8851 621.888 45.6312 622.518 48.4143 623.048C51.4812 622.746 54.5976 622.345 57.7695 621.783C61.2684 621.166 64.7982 620.851 68.2539 620.851C74.6285 620.851 80.5093 621.919 85.9644 623.666C94.5729 622.135 100.781 619.08 105.23 614.199C113.203 605.449 113.258 593.126 112.259 582.228C109.099 547.886 115.782 516.205 129.698 499.556C136.325 491.632 144.459 487.195 153.888 486.375C190.58 483.184 195.937 458.902 199.503 424.937C199.756 422.567 200.713 419.124 201.731 415.489C204.841 404.32 209.118 389.028 201.663 374.798C199.732 371.102 200.694 368.831 205.588 361.777C209.062 356.773 213.376 350.54 213.376 342.684C213.376 331.725 208.038 323.258 200.91 316.285C204.527 321.629 206.853 327.757 206.853 334.977C206.853 342.833 202.54 349.065 199.065 354.07C194.172 361.123 193.209 363.388 195.141 367.09C202.595 381.327 198.319 396.618 195.208 407.782C194.19 411.422 193.228 414.866 192.981 417.229C189.408 451.188 184.058 475.477 147.365 478.667C137.936 479.488 129.803 483.925 123.175 491.848C109.26 508.497 102.577 540.173 105.736 574.52C106.736 585.418 106.68 597.741 98.7074 606.492C91.9811 613.86 81.3671 617.149 64.2983 617.149C60.2563 617.149 55.875 616.97 50.9074 616.606C45.0141 616.174 39.2443 614.841 33.6596 613.551C27.6553 612.169 21.9842 610.861 17.0228 610.861C14.0855 610.861 10.3767 612.064 9.38938 613.335C9.11785 613.687 9.33997 614.724 9.45105 615.15C9.82131 616.594 12.2403 618.642 16.7821 620.364C18.3064 619.389 21.1388 618.574 23.5454 618.574Z" fill="white"/>
<path d="M189.063 681.021C193.834 688.538 196.938 699.004 197.018 713.863C197.573 714.746 199.69 716.375 203.306 716.887C202.362 698.905 196.746 687.81 189.063 681.021Z" fill="white"/>
<path d="M475.362 987.537C475.362 987.537 456.942 960.459 479.719 950.104C502.496 939.75 537.806 984.026 529.271 1009.04C520.731 1034.05 490.931 1008.67 475.362 987.537Z" fill="#F77ADE"/>
<path d="M477.021 974.916C472.22 961.322 479.539 957.996 482.661 956.576C485.759 955.169 489.56 955.41 493.96 957.28C504.908 961.939 516.379 975.305 521.236 989.054C523.642 995.867 524.099 1002.15 522.538 1006.75C520.81 1011.81 518.718 1012.12 517.934 1012.24C510.369 1013.41 493.498 1000.17 481.094 983.327C481.088 983.303 478.693 979.649 477.021 974.916Z" fill="#F77ADE"/>
<path d="M522.538 1006.75C524.099 1002.15 523.643 995.869 521.236 989.056C520.822 987.89 520.304 986.736 519.798 985.576C521.285 991.117 521.483 996.184 520.168 1000.04C518.434 1005.1 516.349 1005.42 515.565 1005.54C507.999 1006.7 491.128 993.462 478.724 976.622C478.718 976.603 477.509 974.715 476.213 971.969C476.447 972.925 476.632 973.839 477.015 974.918C478.681 979.645 481.082 983.305 481.088 983.329C493.491 1000.18 510.363 1013.42 517.928 1012.25C518.724 1012.13 520.81 1011.81 522.538 1006.75Z" fill="white"/>
<path d="M378.898 27.0602C376.677 20.3771 376.714 8.78183 387.624 2.33937C403.459 -5.67667 422.564 7.97345 418.744 27.0787C414.924 46.1839 400.725 57.1065 401.274 76.7609C401.823 96.4153 383.255 96.4153 379.978 82.2221C376.708 68.0228 385.989 48.3684 378.898 27.0602Z" fill="#F77ADE"/>
<path d="M408.752 12.6219C405.926 9.17236 401.643 7.11133 397.305 7.11133C395.078 7.11133 392.893 7.63582 391.239 8.46273C388.944 9.82033 387.45 11.4803 386.481 13.2144L386.5 13.202C388.154 12.3813 390.332 11.8505 392.566 11.8505C396.91 11.8505 401.187 13.9117 404.013 17.3612C406.932 20.9157 407.999 25.5562 407.024 30.4251C405.58 37.6513 402.378 43.6493 398.996 50.0054C394.109 59.1692 389.055 68.6478 389.419 81.6993C389.45 82.8039 389.382 83.7172 389.289 84.5441C389.82 84.9082 390.357 85.155 390.844 85.155C391.381 85.155 391.856 84.9268 392.301 84.4763C392.905 83.853 394.3 81.8722 394.164 76.9601C393.8 63.9086 398.854 54.43 403.742 45.2662C407.123 38.9101 410.326 32.9058 411.77 25.6858C412.745 20.8169 411.671 16.1764 408.752 12.6219Z" fill="white"/>
</svg>
